<?xml version="1.0" encoding="UTF-8"?>
<svg fill-opacity="1" color-rendering="auto" color-interpolation="auto" stroke="black" text-rendering="auto" stroke-linecap="square" stroke-miterlimit="10" stroke-opacity="1" shape-rendering="auto" fill="black" stroke-dasharray="none" font-weight="normal" stroke-width="1" font-family="'Dialog'" font-style="normal" stroke-linejoin="miter" font-size="12" stroke-dashoffset="0" image-rendering="auto" preserveAspectRatio="xMidYMid meet" zoomAndPan="magnify" version="1.0" contentScriptType="text/ecmascript" contentStyleType="text/css" xmlns:xlink="http://www.w3.org/1999/xlink" xmlns="http://www.w3.org/2000/svg">
	<COMMENT>Unicode Character 'TIBETAN DIGIT THREE' (U+0F23)</COMMENT>
	<defs id="genericDefs">
	</defs>
	<g transform="scale(0.3)">
		<g>
			<path d="M46.4062 331.875 L46.6875 331.875 Q44.4375 333.5625 41.625 333.5625 Q39.0938 333.5625 39.0938 332.1562 Q39.0938 330.1875 42.1875 326.8125 Q45.5625 323.4375 49.5 319.5 Q53.4375 315.5625 56.8125 310.9219 Q60.1875 306.2812 62.4375 301.3594 Q64.6875 296.4375 64.6875 291.375 Q64.6875 288.8438 64.2656 285.8906 Q63.8438 282.9375 62.7188 280.4062 Q61.5938 277.875 60.0469 276.1875 Q58.5 274.5 56.5312 274.5 Q44.7188 274.5 35.8594 280.2656 Q27 286.0312 20.25 291.9375 Q18.2812 293.9062 16.4531 295.3125 Q14.625 296.7188 11.5312 298.9688 Q10.125 299.8125 8.1562 300.375 Q6.1875 300.9375 4.7812 300.9375 Q2.5312 300.9375 2.25 301.2188 L3.6562 299.5312 Q5.9062 297 8.1562 294.3281 Q10.4062 291.6562 12.6562 288.5625 L12.6562 288.8438 Q18 282.0938 24.3281 274.9219 Q30.6562 267.75 37.5469 261.7031 Q44.4375 255.6562 52.0312 251.7188 Q59.625 247.7812 67.7812 247.7812 Q82.9688 247.7812 88.5938 252 Q94.2188 256.2188 94.2188 265.2188 Q94.2188 267.4688 92.8125 270.1406 Q91.4062 272.8125 90 275.3438 Q88.875 277.0312 88.1719 280.4062 Q87.4688 283.7812 87.4688 286.3125 Q107.7188 286.3125 115.875 291.5156 Q124.0312 296.7188 124.0312 307.4062 Q124.0312 313.875 121.0781 320.4844 Q118.125 327.0938 114.1875 332.1562 L96.1875 355.7812 Q103.2188 355.7812 110.8125 358.5938 Q118.4062 361.4062 124.875 366.3281 Q131.3438 371.25 135.5625 377.4375 Q139.7812 383.625 139.7812 390.375 Q139.7812 394.0312 137.6719 397.6875 Q135.5625 401.3438 132.1875 404.4375 Q128.8125 407.5312 124.5938 409.5 Q120.375 411.4688 116.1562 411.4688 Q115.0312 411.4688 113.2031 409.3594 Q111.375 407.25 108.8438 404.1562 Q106.0312 400.7812 102.9375 396.9844 Q99.8438 393.1875 96.4688 389.8125 Q93.0938 386.4375 89.7188 384.3281 Q86.3438 382.2188 82.9688 382.2188 Q74.8125 382.2188 70.1719 383.4844 Q65.5312 384.75 62.7188 385.5938 Q61.5938 385.875 60.75 386.0156 Q59.9062 386.1562 58.5 386.1562 Q57.0938 386.1562 56.8125 387 Q57.375 385.875 59.9062 382.6406 Q62.4375 379.4062 66.2344 375.1875 Q70.0312 370.9688 74.3906 366.3281 Q78.75 361.6875 82.9688 357.4688 Q88.5938 351.8438 92.3906 346.3594 Q96.1875 340.875 96.1875 336.375 Q96.1875 332.1562 95.7656 327.9375 Q95.3438 323.7188 93.9375 320.4844 Q92.5312 317.25 89.7188 315.1406 Q86.9062 313.0312 82.4062 313.0312 Q77.9062 313.0312 72 315 Q66.0938 316.9688 63.2812 319.2188 L46.4062 331.875 Z" stroke="none">
			</path>
		</g>
	</g>
</svg>
