<?xml version="1.0" encoding="UTF-8"?>
<svg fill-opacity="1" color-rendering="auto" color-interpolation="auto" stroke="black" text-rendering="auto" stroke-linecap="square" stroke-miterlimit="10" stroke-opacity="1" shape-rendering="auto" fill="black" stroke-dasharray="none" font-weight="normal" stroke-width="1" font-family="'Dialog'" font-style="normal" stroke-linejoin="miter" font-size="12" stroke-dashoffset="0" image-rendering="auto" preserveAspectRatio="xMidYMid meet" zoomAndPan="magnify" version="1.0" contentScriptType="text/ecmascript" contentStyleType="text/css" xmlns:xlink="http://www.w3.org/1999/xlink" xmlns="http://www.w3.org/2000/svg">
	<COMMENT>Unicode Character 'TIBETAN DIGIT FOUR' (U+0F24)</COMMENT>
	<defs id="genericDefs">
	</defs>
	<g transform="scale(0.3)">
		<g>
			<path d="M70.3125 248.0625 Q70.875 248.0625 71.8594 249.0469 Q72.8438 250.0312 73.4062 251.1562 Q74.8125 253.125 76.2188 254.8125 Q77.625 256.5 78.1875 257.0625 Q82.9688 259.3125 89.2969 260.4375 Q95.625 261.5625 101.5312 261.5625 Q103.5 261.5625 108.1406 260.0156 Q112.7812 258.4688 118.125 256.3594 Q123.4688 254.25 128.3906 251.8594 Q133.3125 249.4688 135.8438 248.0625 Q137.25 248.0625 137.5312 247.7812 Q137.5312 261.2812 132.1875 269.4375 Q126.8438 277.5938 117.9844 281.8125 Q109.125 286.0312 97.875 287.2969 Q86.625 288.5625 74.5312 288.5625 Q71.7188 288.5625 68.3438 287.4375 Q64.9688 286.3125 61.3125 284.9062 Q58.2188 283.5 55.125 282.5156 Q52.0312 281.5312 50.625 281.5312 Q48.6562 281.5312 46.9688 284.0625 Q45.2812 286.5938 44.7188 288.5625 L38.25 299.25 L38.25 298.9688 Q37.125 300.375 36.4219 301.5 Q35.7188 302.625 35.7188 304.875 Q35.7188 310.5 39.5156 315 Q43.3125 319.5 49.7812 322.5938 Q56.25 325.6875 64.9688 327.375 Q73.6875 329.0625 83.5312 329.0625 Q99 329.0625 111.0938 326.1094 Q123.1875 323.1562 132.75 320.0625 Q138.6562 318.375 144 316.8281 Q149.3438 315.2812 154.6875 315.2812 Q154.6875 315.2812 155.25 315.5625 L155.5312 315.5625 Q155.5312 318.9375 153.4219 323.2969 Q151.3125 327.6562 147.7969 332.4375 Q144.2812 337.2188 139.5 341.8594 Q134.7188 346.5 129.6562 350.4375 L129.9375 350.4375 Q127.6875 351.8438 122.0625 352.8281 Q116.4375 353.8125 110.1094 354.375 Q103.7812 354.9375 97.875 355.2188 Q91.9688 355.5 89.1562 355.5 Q79.875 355.5 66.375 353.8125 Q52.875 352.125 40.6406 348.75 Q28.4062 345.375 19.6875 340.3125 Q10.9688 335.25 10.9688 328.5 Q10.9688 325.6875 12.2344 320.625 Q13.5 315.5625 17.1562 309.0938 Q21.9375 300.0938 27.1406 291.375 Q32.3438 282.6562 37.125 273.6562 Q43.875 262.125 53.0156 255.0938 Q62.1562 248.0625 70.3125 248.0625 Z" stroke="none">
			</path>
		</g>
	</g>
</svg>
