<?xml version="1.0" encoding="UTF-8"?>
<svg fill-opacity="1" color-rendering="auto" color-interpolation="auto" stroke="black" text-rendering="auto" stroke-linecap="square" stroke-miterlimit="10" stroke-opacity="1" shape-rendering="auto" fill="black" stroke-dasharray="none" font-weight="normal" stroke-width="1" font-family="'Dialog'" font-style="normal" stroke-linejoin="miter" font-size="12" stroke-dashoffset="0" image-rendering="auto" preserveAspectRatio="xMidYMid meet" zoomAndPan="magnify" version="1.0" contentScriptType="text/ecmascript" contentStyleType="text/css" xmlns:xlink="http://www.w3.org/1999/xlink" xmlns="http://www.w3.org/2000/svg">
	<COMMENT>Unicode Character 'TIBETAN DIGIT SIX' (U+0F26)</COMMENT>
	<defs id="genericDefs">
	</defs>
	<g transform="scale(0.3)">
		<g>
			<path d="M66.0938 203.0625 Q66.6562 203.0625 66.9375 203.625 Q67.2188 204.1875 67.2188 204.75 Q67.2188 205.875 65.25 207 Q63.2812 208.125 61.0312 210.375 Q56.8125 214.3125 51.8906 219.5156 Q46.9688 224.7188 42.4688 231.0469 Q37.9688 237.375 35.0156 244.5469 Q32.0625 251.7188 32.0625 259.3125 Q32.0625 278.1562 34.7344 296.0156 Q37.4062 313.875 45.1406 327.6562 Q52.875 341.4375 66.7969 349.875 Q80.7188 358.3125 103.5 358.3125 Q104.625 358.3125 106.3125 356.7656 Q108 355.2188 109.6875 352.9688 Q111.375 350.7188 112.5 348.3281 Q113.625 345.9375 113.625 344.5312 Q113.625 338.9062 111.0938 334.6875 Q108.5625 330.4688 104.625 327.375 Q100.6875 324.2812 95.625 322.0312 Q90.5625 319.7812 85.5 317.5312 Q77.3438 314.1562 71.2969 310.7812 Q65.25 307.4062 65.25 303.4688 Q65.25 298.6875 67.6406 293.9062 Q70.0312 289.125 73.8281 284.7656 Q77.625 280.4062 82.2656 276.4688 Q86.9062 272.5312 91.4062 269.4375 L106.0312 259.5938 Q111.9375 255.6562 119.3906 252.1406 Q126.8438 248.625 131.625 248.625 Q133.5938 248.625 133.5938 251.4375 Q133.5938 252.2812 132.1875 253.9688 Q130.7812 255.6562 128.3906 257.7656 Q126 259.875 123.3281 261.9844 Q120.6562 264.0938 118.125 265.7812 L102.6562 275.0625 Q97.875 279 94.2188 283.3594 Q90.5625 287.7188 90.5625 292.5 Q90.5625 295.5938 92.25 297.9844 Q93.9375 300.375 96.75 302.2031 Q99.5625 304.0312 103.0781 305.4375 Q106.5938 306.8438 110.25 307.9688 Q114.75 309.6562 119.6719 311.4844 Q124.5938 313.3125 128.6719 315.7031 Q132.75 318.0938 135.2812 321.1875 Q137.8125 324.2812 137.8125 328.2188 Q137.8125 339.1875 130.6406 349.4531 Q123.4688 359.7188 113.4844 367.5938 Q103.5 375.4688 92.5312 380.25 Q81.5625 385.0312 73.9688 385.0312 Q63.8438 385.0312 52.7344 379.4062 Q41.625 373.7812 32.3438 362.1094 Q23.0625 350.4375 16.875 332.5781 Q10.6875 314.7188 10.6875 290.25 Q10.6875 274.2188 17.5781 258.6094 Q24.4688 243 33.6094 230.625 Q42.75 218.25 52.0312 210.6562 Q61.3125 203.0625 66.0938 203.0625 Z" stroke="none">
			</path>
		</g>
	</g>
</svg>
