<?xml version="1.0" encoding="UTF-8"?>
<svg fill-opacity="1" color-rendering="auto" color-interpolation="auto" stroke="black" text-rendering="auto" stroke-linecap="square" stroke-miterlimit="10" stroke-opacity="1" shape-rendering="auto" fill="black" stroke-dasharray="none" font-weight="normal" stroke-width="1" font-family="'Dialog'" font-style="normal" stroke-linejoin="miter" font-size="12" stroke-dashoffset="0" image-rendering="auto" preserveAspectRatio="xMidYMid meet" zoomAndPan="magnify" version="1.0" contentScriptType="text/ecmascript" contentStyleType="text/css" xmlns:xlink="http://www.w3.org/1999/xlink" xmlns="http://www.w3.org/2000/svg">
	<COMMENT>Unicode Character 'TIBETAN DIGIT NINE' (U+0F29)</COMMENT>
	<defs id="genericDefs">
	</defs>
	<g transform="scale(0.3)">
		<g>
			<path d="M91.4062 248.0625 Q95.9062 248.0625 100.5469 248.7656 Q105.1875 249.4688 108.9844 251.0156 Q112.7812 252.5625 115.1719 255.2344 Q117.5625 257.9062 117.5625 261.8438 Q117.5625 262.6875 117.1406 264.2344 Q116.7188 265.7812 115.3125 268.5938 Q113.9062 271.4062 110.9531 275.9062 Q108 280.4062 102.6562 287.1562 L95.0625 297 Q95.0625 299.25 96.75 302.2031 Q98.4375 305.1562 101.25 307.8281 Q104.0625 310.5 107.1562 312.75 Q110.25 315 113.3438 315.8438 Q111.375 319.2188 107.1562 323.2969 Q102.9375 327.375 98.1562 330.8906 Q93.375 334.4062 89.1562 336.6562 Q84.9375 338.9062 83.25 338.9062 Q75.0938 338.9062 71.1562 334.5469 Q67.2188 330.1875 67.2188 322.875 Q67.2188 318.0938 70.875 314.0156 Q74.5312 309.9375 78.75 306 Q82.6875 302.0625 86.2031 297.4219 Q89.7188 292.7812 89.7188 287.1562 Q89.7188 284.9062 87.75 282.6562 Q85.7812 280.4062 82.8281 278.5781 Q79.875 276.75 76.3594 275.625 Q72.8438 274.5 70.0312 274.5 Q60.75 274.5 54.2812 277.7344 Q47.8125 280.9688 43.875 286.4531 Q39.9375 291.9375 38.1094 299.25 Q36.2812 306.5625 36.2812 315 Q36.2812 325.6875 39.2344 338.3438 Q42.1875 351 46.8281 361.6875 Q51.4688 372.375 57.0938 379.6875 Q62.7188 387 68.3438 387.2812 L68.3438 389.5312 Q68.3438 392.9062 66.2344 397.125 Q64.125 401.3438 60.3281 405.1406 Q56.5312 408.9375 51.6094 411.4688 Q46.6875 414 41.0625 414 Q34.875 414 29.5312 408.5156 Q24.1875 403.0312 20.1094 394.5938 Q16.0312 386.1562 13.6406 375.8906 Q11.25 365.625 11.25 356.0625 Q11.25 337.5 17.0156 318.375 Q22.7812 299.25 33.3281 283.6406 Q43.875 268.0312 58.6406 258.0469 Q73.4062 248.0625 91.4062 248.0625 Z" stroke="none">
			</path>
		</g>
	</g>
</svg>
