<?xml version="1.0" encoding="UTF-8"?>
<svg fill-opacity="1" color-rendering="auto" color-interpolation="auto" stroke="black" text-rendering="auto" stroke-linecap="square" stroke-miterlimit="10" stroke-opacity="1" shape-rendering="auto" fill="black" stroke-dasharray="none" font-weight="normal" stroke-width="1" font-family="'Dialog'" font-style="normal" stroke-linejoin="miter" font-size="12" stroke-dashoffset="0" image-rendering="auto" preserveAspectRatio="xMidYMid meet" zoomAndPan="magnify" version="1.0" contentScriptType="text/ecmascript" contentStyleType="text/css" xmlns:xlink="http://www.w3.org/1999/xlink" xmlns="http://www.w3.org/2000/svg">
	<COMMENT>Unicode Character 'TIBETAN DIGIT FIVE' (U+0F25)</COMMENT>
	<defs id="genericDefs">
	</defs>
	<g transform="scale(0.3)">
		<g>
			<path d="M138.0938 331.3125 L139.7812 335.5312 L139.5 335.5312 Q142.875 343.4062 144.9844 347.4844 Q147.0938 351.5625 149.3438 351.5625 Q148.7812 351.5625 149.625 351.4219 Q150.4688 351.2812 151.3125 350.7188 Q150.75 351.5625 149.4844 352.6875 Q148.2188 353.8125 146.8125 354.9375 L130.2188 369.5625 Q128.5312 371.25 126.5625 371.25 Q122.3438 371.25 118.4062 365.4844 Q114.4688 359.7188 110.5312 352.125 L90 311.625 Q88.0312 315 87.1875 316.4062 Q86.3438 317.8125 86.2031 318.375 Q86.0625 318.9375 86.0625 318.9375 Q86.0625 318.9375 85.7812 319.7812 L86.0625 319.7812 Q84.375 323.4375 81.9844 327.6562 Q79.5938 331.875 75.5156 335.5312 Q71.4375 339.1875 64.9688 341.7188 Q58.5 344.25 48.6562 344.25 Q41.9062 344.25 36.7031 340.7344 Q31.5 337.2188 27.4219 331.5938 Q23.3438 325.9688 20.1094 319.0781 Q16.875 312.1875 14.0625 305.4375 L10.9688 299.25 Q7.5938 291.0938 6.8906 285.0469 Q6.1875 279 6.1875 277.5938 Q6.1875 278.4375 7.0312 277.875 L26.4375 259.875 Q29.8125 257.0625 31.2188 257.0625 Q31.7812 257.0625 32.3438 259.1719 Q32.9062 261.2812 33.1875 263.25 Q35.4375 272.8125 38.1094 282.7969 Q40.7812 292.7812 45.1406 301.0781 Q49.5 309.375 55.9688 314.5781 Q62.4375 319.7812 72.5625 319.7812 Q73.9688 319.7812 75.375 317.3906 Q76.7812 315 77.7656 311.2031 Q78.75 307.4062 79.3125 302.3438 Q79.875 297.2812 79.875 291.6562 Q79.875 284.3438 78.6094 277.875 Q77.3438 271.4062 74.5312 266.9062 L75.6562 265.5 L95.0625 250.0312 Q95.625 249.75 96.0469 249.3281 Q96.4688 248.9062 97.0312 248.3438 L97.0312 248.625 Q97.875 248.0625 98.5781 247.5 Q99.2812 246.9375 100.6875 246.9375 Q100.9688 246.9375 102.5156 250.4531 Q104.0625 253.9688 104.625 256.2188 L104.625 255.0938 L104.9062 257.0625 L138.0938 331.3125 ZM153.2812 348.4688 Q153.2812 349.0312 153.1406 349.1719 Q153 349.3125 153 349.5938 L153 350.1562 L152.4375 350.4375 Q152.1562 350.4375 152.0156 350.5781 Q151.875 350.7188 151.3125 350.7188 L153.2812 348.4688 Z" stroke="none">
			</path>
		</g>
	</g>
</svg>
