<?xml version="1.0" encoding="UTF-8"?>
<svg fill-opacity="1" color-rendering="auto" color-interpolation="auto" stroke="black" text-rendering="auto" stroke-linecap="square" stroke-miterlimit="10" stroke-opacity="1" shape-rendering="auto" fill="black" stroke-dasharray="none" font-weight="normal" stroke-width="1" font-family="'Dialog'" font-style="normal" stroke-linejoin="miter" font-size="12" stroke-dashoffset="0" image-rendering="auto" preserveAspectRatio="xMidYMid meet" zoomAndPan="magnify" version="1.0" contentScriptType="text/ecmascript" contentStyleType="text/css" xmlns:xlink="http://www.w3.org/1999/xlink" xmlns="http://www.w3.org/2000/svg">
	<COMMENT>Unicode Character 'TIBETAN DIGIT ONE' (U+0F21)</COMMENT>
	<defs id="genericDefs">
	</defs>
	<g transform="scale(0.3)">
		<g>
			<path d="M75.375 369 L69.75 379.9688 Q67.5 384.4688 65.8125 387.5625 Q64.125 390.6562 61.0312 394.3125 L61.3125 394.3125 Q59.625 396.2812 57.7969 397.125 Q55.9688 397.9688 52.0312 397.9688 Q51.75 397.9688 51.75 396.8438 Q51.75 394.5938 53.0156 391.0781 Q54.2812 387.5625 57.375 381.9375 L72.5625 353.8125 Q75.375 348.1875 77.0625 338.9062 Q78.75 329.625 78.75 319.7812 Q78.75 311.3438 77.3438 303.1875 Q75.9375 295.0312 72.7031 288.7031 Q69.4688 282.375 64.2656 278.4375 Q59.0625 274.5 51.1875 274.5 Q45 274.5 39.375 280.9688 Q33.75 287.4375 29.25 295.0312 L26.7188 299.5312 Q22.7812 306 18.9844 311.625 Q15.1875 317.25 10.4062 317.25 Q7.5938 317.25 6.4688 314.7188 Q5.3438 312.1875 5.3438 309.375 Q5.3438 299.25 10.2656 288.4219 Q15.1875 277.5938 23.0625 268.5938 Q30.9375 259.5938 40.6406 253.8281 Q50.3438 248.0625 59.9062 248.0625 Q81.8438 248.0625 93.9375 259.1719 Q106.0312 270.2812 106.0312 287.7188 Q106.0312 296.7188 103.7812 307.9688 Q101.5312 319.2188 96.4688 329.625 L75.375 369 Z" stroke="none">
			</path>
		</g>
	</g>
</svg>
