<?xml version="1.0" encoding="UTF-8"?>
<svg fill-opacity="1" color-rendering="auto" color-interpolation="auto" stroke="black" text-rendering="auto" stroke-linecap="square" stroke-miterlimit="10" stroke-opacity="1" shape-rendering="auto" fill="black" stroke-dasharray="none" font-weight="normal" stroke-width="1" font-family="'Dialog'" font-style="normal" stroke-linejoin="miter" font-size="12" stroke-dashoffset="0" image-rendering="auto" preserveAspectRatio="xMidYMid meet" zoomAndPan="magnify" version="1.0" contentScriptType="text/ecmascript" contentStyleType="text/css" xmlns:xlink="http://www.w3.org/1999/xlink" xmlns="http://www.w3.org/2000/svg">
	<COMMENT>Unicode Character 'TIBETAN DIGIT TWO' (U+0F22)</COMMENT>
	<defs id="genericDefs">
	</defs>
	<g transform="scale(0.3)">
		<g>
			<path d="M90.8438 383.625 L87.75 380.8125 L87.75 381.0938 Q81.2812 375.75 75.7969 372.375 Q70.3125 369 61.0312 369 Q55.9688 369 51.8906 370.4062 Q47.8125 371.8125 43.3125 374.9062 Q37.9688 378 32.625 380.6719 Q27.2812 383.3438 24.4688 383.3438 Q23.3438 383.3438 23.3438 383.0625 Q23.3438 380.8125 26.4375 378 Q29.5312 375.1875 32.625 372.6562 L35.7188 369.2812 L35.7188 369.5625 L65.25 344.5312 Q71.1562 339.4688 76.6406 334.2656 Q82.125 329.0625 86.4844 323.5781 Q90.8438 318.0938 93.375 312.3281 Q95.9062 306.5625 95.9062 300.0938 Q95.9062 295.5938 94.3594 291.0938 Q92.8125 286.5938 90 282.9375 Q87.1875 279.2812 83.3906 277.1719 Q79.5938 275.0625 75.0938 275.0625 Q66.6562 275.0625 58.0781 281.5312 Q49.5 288 40.5 296.1562 Q36.5625 299.5312 32.7656 302.9062 Q28.9688 306.2812 25.0312 309.375 Q21.375 312.4688 17.1562 314.0156 Q12.9375 315.5625 9.5625 315.5625 Q7.0312 315.5625 5.3438 315.4219 Q3.6562 315.2812 3.6562 314.7188 Q3.6562 313.3125 4.0781 310.9219 Q4.5 308.5312 5.9062 306 L5.9062 306.2812 Q9.5625 299.5312 16.0312 292.6406 Q22.5 285.75 30.6562 279.2812 Q38.8125 272.8125 48.2344 267.1875 Q57.6562 261.5625 66.9375 257.3438 Q76.2188 253.125 85.0781 250.7344 Q93.9375 248.3438 101.25 248.3438 Q111.6562 248.3438 118.5469 253.5469 Q125.4375 258.75 125.4375 270.5625 Q125.4375 279 121.2188 289.4062 Q117 299.8125 110.25 309.9375 Q103.5 320.0625 95.2031 328.7812 Q86.9062 337.5 79.0312 342.5625 Q85.5 342.5625 95.4844 345.0938 Q105.4688 347.625 115.0312 352.2656 Q124.5938 356.9062 131.3438 363.7969 Q138.0938 370.6875 138.0938 379.125 Q138.0938 381.375 134.8594 385.875 Q131.625 390.375 127.2656 395.0156 Q122.9062 399.6562 118.4062 403.3125 Q113.9062 406.9688 111.0938 407.25 L90.8438 383.625 Z" stroke="none">
			</path>
		</g>
	</g>
</svg>
