<?xml version="1.0" encoding="UTF-8"?>
<svg fill-opacity="1" color-rendering="auto" color-interpolation="auto" stroke="black" text-rendering="auto" stroke-linecap="square" stroke-miterlimit="10" stroke-opacity="1" shape-rendering="auto" fill="black" stroke-dasharray="none" font-weight="normal" stroke-width="1" font-family="'Dialog'" font-style="normal" stroke-linejoin="miter" font-size="12" stroke-dashoffset="0" image-rendering="auto" preserveAspectRatio="xMidYMid meet" zoomAndPan="magnify" version="1.0" contentScriptType="text/ecmascript" contentStyleType="text/css" xmlns:xlink="http://www.w3.org/1999/xlink" xmlns="http://www.w3.org/2000/svg">
	<COMMENT>Unicode Character 'TIBETAN DIGIT SEVEN' (U+0F27)</COMMENT>
	<defs id="genericDefs">
	</defs>
	<g transform="scale(0.3)">
		<g>
			<path d="M46.6875 342.8438 Q46.6875 338.3438 50.4844 333.7031 Q54.2812 329.0625 59.0625 324.2812 Q64.9688 318.0938 70.3125 311.2031 Q75.6562 304.3125 75.6562 293.9062 Q75.6562 290.5312 74.25 287.1562 Q72.8438 283.7812 70.4531 281.1094 Q68.0625 278.4375 65.1094 276.75 Q62.1562 275.0625 59.0625 275.0625 Q52.5938 275.0625 47.5312 277.0312 Q42.4688 279 38.3906 282.2344 Q34.3125 285.4688 31.0781 289.125 Q27.8438 292.7812 25.0312 296.1562 Q22.2188 299.8125 19.5469 302.4844 Q16.875 305.1562 13.5 305.1562 L5.3438 305.1562 Q5.3438 303.1875 7.5938 298.125 Q9.8438 293.0625 14.2031 286.7344 Q18.5625 280.4062 24.6094 273.6562 Q30.6562 266.9062 38.5312 261.2812 Q46.4062 255.6562 55.8281 252 Q65.25 248.3438 75.9375 248.3438 Q88.875 248.3438 93.6562 251.7188 Q98.4375 255.0938 98.4375 264.9375 Q98.4375 294.4688 77.625 315.2812 Q76.2188 316.6875 76.0781 318.0938 Q75.9375 319.5 75.9375 320.9062 Q75.9375 322.5938 78.0469 326.25 Q80.1562 329.9062 83.5312 333.5625 Q86.9062 337.2188 91.4062 339.8906 Q95.9062 342.5625 100.9688 342.5625 Q112.2188 342.5625 119.9531 340.3125 Q127.6875 338.0625 133.0312 332.7188 Q137.8125 327.0938 139.9219 317.5312 Q142.0312 307.9688 142.0312 292.2188 Q142.0312 274.7812 139.6406 263.6719 Q137.25 252.5625 134.1562 243.5625 L134.1562 243.8438 L132.1875 235.6875 Q132.1875 235.4062 135 232.7344 Q137.8125 230.0625 141.8906 226.4062 Q145.9688 222.75 150.1875 219.0938 Q154.4062 215.4375 157.2188 212.9062 Q157.7812 212.3438 159.1875 212.3438 L159.75 212.625 Q163.125 226.4062 164.9531 235.5469 Q166.7812 244.6875 166.7812 254.8125 Q166.7812 264.9375 165.2344 275.625 Q163.6875 286.3125 160.3125 297 Q156.9375 307.6875 151.875 317.9531 Q146.8125 328.2188 140.0625 336.9375 L140.0625 336.6562 Q129.375 350.1562 113.7656 358.7344 Q98.1562 367.3125 76.2188 367.3125 Q70.875 367.3125 65.5312 365.4844 Q60.1875 363.6562 55.9688 360.2812 Q51.75 356.9062 49.2188 352.4062 Q46.6875 347.9062 46.6875 342.8438 Z" stroke="none">
			</path>
		</g>
	</g>
</svg>
