<?xml version="1.0" encoding="UTF-8"?>
<svg fill-opacity="1" color-rendering="auto" color-interpolation="auto" stroke="black" text-rendering="auto" stroke-linecap="square" stroke-miterlimit="10" stroke-opacity="1" shape-rendering="auto" fill="black" stroke-dasharray="none" font-weight="normal" stroke-width="1" font-family="'Dialog'" font-style="normal" stroke-linejoin="miter" font-size="12" stroke-dashoffset="0" image-rendering="auto" preserveAspectRatio="xMidYMid meet" zoomAndPan="magnify" version="1.0" contentScriptType="text/ecmascript" contentStyleType="text/css" xmlns:xlink="http://www.w3.org/1999/xlink" xmlns="http://www.w3.org/2000/svg">
	<COMMENT>Unicode Character 'TIBETAN LETTER ZHA' (U+0F5E)</COMMENT>
	<defs id="genericDefs">
	</defs>
	<g transform="scale(0.3)">
		<g>
			<path d="M128.25 248.625 Q131.3438 248.625 132.0469 249.75 Q132.75 250.875 132.75 252.2812 Q132.75 252.8438 132.6094 253.125 Q132.4688 253.4062 132.4688 253.6875 L132.4688 254.25 L127.125 270 Q126.5625 271.6875 125.8594 272.8125 Q125.1562 273.9375 123.1875 273.9375 Q124.3125 275.0625 124.3125 277.0312 Q124.3125 280.4062 122.625 285.75 Q120.9375 291.0938 118.6875 296.5781 Q116.4375 302.0625 114.3281 306.2812 Q112.2188 310.5 111.375 311.3438 Q115.875 321.4688 118.6875 334.8281 Q121.5 348.1875 122.9062 363.2344 Q124.3125 378.2812 125.0156 394.1719 Q125.7188 410.0625 126 425.6719 Q126.2812 441.2812 126.5625 455.625 Q126.8438 469.9688 127.6875 481.5 Q128.25 487.4062 129.375 492.6094 Q130.5 497.8125 130.5 498.9375 Q130.5 500.0625 129.2344 500.9062 Q127.9688 501.75 127.125 501.75 Q124.5938 501.75 122.625 495.9844 Q120.6562 490.2188 119.1094 480.2344 Q117.5625 470.25 116.2969 457.1719 Q115.0312 444.0938 113.9062 429.1875 Q113.0625 424.125 112.2188 416.25 Q111.375 408.375 110.3906 399.5156 Q109.4062 390.6562 108.1406 381.2344 Q106.875 371.8125 105.4688 363.375 Q104.0625 354.9375 102.375 348.1875 Q100.6875 341.4375 98.7188 337.7812 Q96.4688 347.625 88.1719 355.0781 Q79.875 362.5312 69.1875 362.5312 Q63.2812 362.5312 57.7969 359.8594 Q52.3125 357.1875 48.375 352.9688 Q44.4375 348.75 42.0469 343.6875 Q39.6562 338.625 39.6562 333.8438 Q39.6562 322.875 43.1719 314.7188 Q46.6875 306.5625 51.75 301.2188 Q56.8125 295.875 62.1562 293.3438 Q67.5 290.8125 71.1562 290.8125 Q78.75 290.8125 84.375 292.3594 Q90 293.9062 93.9375 296.1562 Q97.875 298.4062 100.2656 300.6562 Q102.6562 302.9062 104.0625 304.0312 Q105.75 301.2188 106.875 298.125 Q108 295.3125 108.9844 292.0781 Q109.9688 288.8438 109.9688 285.4688 Q109.9688 281.5312 108.2812 278.4375 Q106.5938 275.3438 102.0938 273.9375 L45.5625 273.9375 Q38.25 277.0312 32.4844 283.6406 Q26.7188 290.25 22.9219 297.9844 Q19.125 305.7188 17.1562 313.1719 Q15.1875 320.625 15.1875 325.4062 Q15.1875 333.5625 18.2812 341.4375 Q21.375 349.3125 26.2969 356.4844 Q31.2188 363.6562 36.9844 369.9844 Q42.75 376.3125 48.0938 381.6562 Q48.375 381.9375 48.375 382.7812 Q48.375 384.1875 46.5469 386.2969 Q44.7188 388.4062 42.1875 390.2344 Q39.6562 392.0625 36.8438 393.3281 Q34.0312 394.5938 32.0625 394.5938 Q29.8125 394.5938 25.1719 389.5312 Q20.5312 384.4688 15.75 376.0312 Q10.9688 367.5938 7.3125 356.625 Q3.6562 345.6562 3.6562 333.5625 Q3.6562 328.2188 4.9219 319.2188 Q6.1875 310.2188 10.4062 298.9688 Q14.625 287.7188 22.6406 274.7812 Q30.6562 261.8438 44.1562 248.625 L128.25 248.625 ZM92.8125 327.6562 Q91.6875 326.25 89.7188 324 Q87.75 321.75 84.7969 319.5 Q81.8438 317.25 77.9062 315.7031 Q73.9688 314.1562 69.1875 314.1562 Q66.9375 314.1562 63.8438 314.2969 Q60.75 314.4375 58.0781 315.2812 Q55.4062 316.125 53.4375 317.5312 Q51.4688 318.9375 51.4688 321.4688 Q51.4688 324.2812 53.4375 328.3594 Q55.4062 332.4375 58.6406 336.2344 Q61.875 340.0312 66.2344 342.8438 Q70.5938 345.6562 75.375 345.6562 Q79.3125 345.6562 82.2656 343.9688 Q85.2188 342.2812 87.4688 339.6094 Q89.7188 336.9375 90.9844 333.7031 Q92.25 330.4688 92.8125 327.6562 Z" stroke="none">
			</path>
		</g>
	</g>
</svg>
