<?xml version="1.0" encoding="UTF-8"?>
<svg fill-opacity="1" color-rendering="auto" color-interpolation="auto" stroke="black" text-rendering="auto" stroke-linecap="square" stroke-miterlimit="10" stroke-opacity="1" shape-rendering="auto" fill="black" stroke-dasharray="none" font-weight="normal" stroke-width="1" font-family="'Dialog'" font-style="normal" stroke-linejoin="miter" font-size="12" stroke-dashoffset="0" image-rendering="auto" preserveAspectRatio="xMidYMid meet" zoomAndPan="magnify" version="1.0" contentScriptType="text/ecmascript" contentStyleType="text/css" xmlns:xlink="http://www.w3.org/1999/xlink" xmlns="http://www.w3.org/2000/svg">
	<COMMENT>Unicode Character 'TIBETAN LETTER TSA' (U+0F59)</COMMENT>
	<defs id="genericDefs">
	</defs>
	<g transform="scale(0.3)">
		<g>
			<path d="M94.7812 248.625 Q94.7812 246.9375 94.2188 243.9844 Q93.6562 241.0312 92.3906 237.7969 Q91.125 234.5625 89.2969 231.3281 Q87.4688 228.0938 85.2188 225.5625 Q82.6875 223.0312 80.5781 221.625 Q78.4688 220.2188 78.4688 218.8125 Q78.4688 217.9688 80.4375 215.1562 Q82.4062 212.3438 84.9375 208.9688 Q87.4688 205.5938 90.1406 202.5 Q92.8125 199.4062 94.5 198 L147.9375 198 Q148.5 198 148.7812 198.7031 Q149.0625 199.4062 149.0625 199.9688 Q149.0625 203.9062 147.375 207 Q145.6875 210.0938 143.4375 212.4844 Q141.1875 214.875 138.7969 216.2812 Q136.4062 217.6875 135.2812 218.5312 Q130.5 221.3438 124.4531 222.3281 Q118.4062 223.3125 112.7812 223.3125 L103.5 223.3125 L103.5 248.625 L107.4375 248.625 Q108 248.625 108.2812 249.3281 Q108.5625 250.0312 108.5625 250.5938 Q108.5625 257.625 104.4844 262.125 Q100.4062 266.625 95.2031 269.2969 Q90 271.9688 84.7969 272.9531 Q79.5938 273.9375 77.3438 273.9375 L73.4062 273.9375 Q72.5625 273.9375 71.7188 275.0625 Q70.875 276.1875 70.875 277.5938 L70.875 297.5625 Q76.7812 295.875 81.5625 295.875 Q90.2812 295.875 97.1719 300.2344 Q104.0625 304.5938 108.7031 311.2031 Q113.3438 317.8125 115.7344 325.5469 Q118.125 333.2812 118.125 340.3125 Q118.125 351.8438 114.1875 361.5469 Q110.25 371.25 103.6406 378.4219 Q97.0312 385.5938 88.5938 389.6719 Q80.1562 393.75 71.4375 393.75 Q59.3438 393.75 50.7656 387.4219 Q42.1875 381.0938 36 371.8125 Q29.8125 362.5312 25.4531 352.4062 Q21.0938 342.2812 17.7188 334.6875 Q16.3125 331.5938 13.2188 326.6719 Q10.125 321.75 6.8906 316.9688 Q3.6562 312.1875 1.125 308.5312 Q-1.4062 304.875 -1.9688 304.3125 Q-4.5 301.2188 -4.5 300.375 Q-4.5 299.8125 -3.6562 299.5312 Q-2.8125 299.25 -1.9688 299.25 Q1.125 299.25 5.4844 302.625 Q9.8438 306 14.0625 310.2188 Q18.2812 314.4375 21.6562 318.375 Q25.0312 322.3125 26.7188 323.4375 L46.9688 310.2188 Q50.9062 307.4062 54.8438 304.875 Q58.7812 302.3438 62.4375 300.6562 L62.4375 297.2812 Q62.4375 293.0625 61.1719 288.8438 Q59.9062 284.625 57.375 281.3906 Q54.8438 278.1562 51.1875 276.0469 Q47.5312 273.9375 43.0312 273.9375 L27.2812 273.9375 Q17.7188 273.9375 17.7188 271.9688 Q17.7188 271.4062 18.1406 270.5625 Q18.5625 269.7188 19.125 268.875 L32.625 248.625 L94.7812 248.625 ZM31.2188 329.9062 Q36.5625 336.0938 40.9219 343.9688 Q45.2812 351.8438 50.2031 358.7344 Q55.125 365.625 61.875 370.4062 Q68.625 375.1875 79.0312 375.1875 Q86.0625 375.1875 90.9844 372.9375 Q95.9062 370.6875 98.8594 367.4531 Q101.8125 364.2188 103.2188 360.5625 Q104.625 356.9062 104.625 353.8125 Q104.625 348.4688 102.5156 342.4219 Q100.4062 336.375 96.4688 331.3125 Q92.5312 326.25 86.9062 322.875 Q81.2812 319.5 74.5312 319.5 Q69.1875 319.5 62.2969 320.0625 Q55.4062 320.625 49.2188 322.875 L31.2188 329.9062 Z" stroke="none">
			</path>
		</g>
	</g>
</svg>
