<?xml version="1.0" encoding="UTF-8"?>
<svg fill-opacity="1" color-rendering="auto" color-interpolation="auto" stroke="black" text-rendering="auto" stroke-linecap="square" stroke-miterlimit="10" stroke-opacity="1" shape-rendering="auto" fill="black" stroke-dasharray="none" font-weight="normal" stroke-width="1" font-family="'Dialog'" font-style="normal" stroke-linejoin="miter" font-size="12" stroke-dashoffset="0" image-rendering="auto" preserveAspectRatio="xMidYMid meet" zoomAndPan="magnify" version="1.0" contentScriptType="text/ecmascript" contentStyleType="text/css" xmlns:xlink="http://www.w3.org/1999/xlink" xmlns="http://www.w3.org/2000/svg">
	<COMMENT>Unicode Character 'TIBETAN MARK GTER YIG MGO TRUNCATED A' (U+0F01)</COMMENT>
	<defs id="genericDefs">
	</defs>
	<g transform="scale(0.3)">
		<g>
			<path d="M52.3125 248.625 Q52.875 248.625 53.1562 249.3281 Q53.4375 250.0312 53.4375 250.5938 Q53.4375 258.75 48.5156 263.1094 Q43.5938 267.4688 36.2812 271.125 Q32.0625 274.2188 28.5469 279.5625 Q25.0312 284.9062 22.7812 291.2344 Q20.5312 297.5625 19.2656 304.5938 Q18 311.625 18 317.8125 Q18 325.9688 19.9688 333.7031 Q21.9375 341.4375 27 347.7656 Q32.0625 354.0938 40.7812 357.8906 Q49.5 361.6875 62.7188 361.6875 Q66.0938 361.6875 69.8906 360.8438 Q73.6875 360 76.9219 358.1719 Q80.1562 356.3438 82.4062 353.5312 Q84.6562 350.7188 84.6562 346.7812 Q84.6562 339.75 76.7812 334.6875 Q68.9062 329.625 51.1875 329.625 Q48.0938 329.625 45 330.3281 Q41.9062 331.0312 38.5312 332.1562 Q39.6562 328.2188 41.2031 324.1406 Q42.75 320.0625 44.5781 316.2656 Q46.4062 312.4688 48.9375 309.5156 Q51.4688 306.5625 54.8438 304.875 Q57.375 296.7188 62.1562 288.9844 Q66.9375 281.25 72 273.9375 L69.1875 273.9375 Q59.625 273.9375 59.625 271.9688 Q59.625 271.4062 60.0469 270.5625 Q60.4688 269.7188 61.0312 268.875 L74.25 248.625 L95.3438 248.625 Q96.1875 248.625 97.4531 249.75 Q98.7188 250.875 99.2812 252 Q103.7812 258.4688 108.7031 268.4531 Q113.625 278.4375 118.2656 290.9531 Q122.9062 303.4688 126.9844 318.0938 Q131.0625 332.7188 134.1562 348.75 L144 397.125 Q144 398.5312 142.875 399.9375 Q141.75 401.3438 140.9062 401.3438 Q139.5 401.3438 137.3906 399.9375 Q135.2812 398.5312 134.7188 397.125 L123.4688 354.0938 Q120.0938 341.4375 115.7344 328.5 Q111.375 315.5625 106.4531 304.7344 Q101.5312 293.9062 96.1875 286.3125 Q90.8438 278.7188 85.7812 276.4688 Q83.8125 278.7188 80.2969 282.6562 Q76.7812 286.5938 73.2656 290.8125 Q69.75 295.0312 66.9375 298.8281 Q64.125 302.625 63.2812 304.5938 Q66.0938 304.0312 67.5 304.0312 Q73.125 304.0312 78.3281 306.4219 Q83.5312 308.8125 87.4688 312.8906 Q91.4062 316.9688 93.7969 322.5938 Q96.1875 328.2188 96.1875 334.6875 Q96.1875 340.0312 93.7969 348.3281 Q91.4062 356.625 86.0625 364.5 Q80.7188 372.375 72.5625 378 Q64.4062 383.625 52.5938 383.625 Q44.1562 383.625 35.5781 379.4062 Q27 375.1875 20.1094 367.4531 Q13.2188 359.7188 9 348.8906 Q4.7812 338.0625 4.7812 324.5625 Q4.7812 316.4062 6.8906 306.8438 Q9 297.2812 12.375 287.4375 Q12.9375 286.0312 13.9219 283.6406 Q14.9062 281.25 14.9062 279 Q14.9062 276.75 13.9219 275.3438 Q12.9375 273.9375 10.9688 273.9375 Q9.5625 273.9375 8.5781 274.7812 Q7.5938 275.625 7.0312 275.625 Q6.1875 275.625 5.0625 275.0625 Q3.9375 274.5 3.9375 273.0938 Q3.9375 272.5312 4.9219 271.4062 Q5.9062 270.2812 6.75 269.4375 L21.375 251.7188 Q24.1875 248.625 26.4375 248.625 L52.3125 248.625 Z" stroke="none">
			</path>
		</g>
	</g>
</svg>
