<?xml version="1.0" encoding="UTF-8"?>
<svg fill-opacity="1" color-rendering="auto" color-interpolation="auto" stroke="black" text-rendering="auto" stroke-linecap="square" stroke-miterlimit="10" stroke-opacity="1" shape-rendering="auto" fill="black" stroke-dasharray="none" font-weight="normal" stroke-width="1" font-family="'Dialog'" font-style="normal" stroke-linejoin="miter" font-size="12" stroke-dashoffset="0" image-rendering="auto" preserveAspectRatio="xMidYMid meet" zoomAndPan="magnify" version="1.0" contentScriptType="text/ecmascript" contentStyleType="text/css" xmlns:xlink="http://www.w3.org/1999/xlink" xmlns="http://www.w3.org/2000/svg">
	<COMMENT>Unicode Character 'TIBETAN LETTER -A' (U+0F60)</COMMENT>
	<defs id="genericDefs">
	</defs>
	<g transform="scale(0.3)">
		<g>
			<path d="M115.3125 248.625 Q118.4062 248.625 118.4062 250.0312 Q118.4062 252 116.7188 253.6875 L106.875 264.0938 Q107.7188 264.9375 109.125 267.0469 Q110.5312 269.1562 111.9375 272.25 Q113.3438 275.3438 114.3281 279.4219 Q115.3125 283.5 115.3125 288.2812 Q115.3125 293.9062 110.8125 300.6562 Q106.3125 307.4062 99.8438 311.0625 L94.2188 314.1562 Q97.3125 314.7188 99.5625 315.9844 Q101.8125 317.25 104.9062 319.5 Q109.9688 323.7188 114.4688 331.0312 Q118.9688 338.3438 122.4844 347.625 Q126 356.9062 127.9688 367.7344 Q129.9375 378.5625 129.9375 389.8125 Q129.9375 393.75 128.5312 393.75 Q126.2812 393.75 125.1562 390.6562 Q122.3438 382.5 117.8438 372.9375 Q113.3438 363.375 107.8594 355.2188 Q102.375 347.0625 96.0469 341.7188 Q89.7188 336.375 83.5312 336.375 Q76.7812 336.375 71.5781 337.5 Q66.375 338.625 62.2969 340.0312 Q58.2188 341.4375 55.5469 342.5625 Q52.875 343.6875 51.75 343.6875 Q50.9062 343.6875 50.625 342.8438 Q50.3438 342 50.3438 341.1562 Q50.3438 337.2188 53.4375 332.1562 Q56.5312 327.0938 61.1719 322.7344 Q65.8125 318.375 71.4375 315.2812 Q77.0625 312.1875 82.4062 311.9062 L87.4688 308.8125 Q91.4062 306.5625 94.3594 303.6094 Q97.3125 300.6562 97.3125 296.4375 Q97.3125 292.2188 94.5 288.1406 Q91.6875 284.0625 87.75 280.8281 Q83.8125 277.5938 79.0312 275.7656 Q74.25 273.9375 70.5938 273.9375 L49.7812 273.9375 Q39.0938 273.9375 32.625 276.0469 Q26.1562 278.1562 22.6406 281.5312 Q19.125 284.9062 18 289.5469 Q16.875 294.1875 16.875 299.25 Q16.875 304.875 18.2812 308.25 Q19.6875 311.625 21.375 314.5781 Q23.0625 317.5312 24.4688 320.7656 Q25.875 324 25.875 329.3438 Q25.875 332.1562 25.1719 334.9688 Q24.4688 337.7812 21.375 340.3125 Q17.7188 343.6875 13.5 346.9219 Q9.2812 350.1562 7.5938 350.1562 Q5.9062 350.1562 5.9062 348.75 Q5.9062 348.1875 6.75 346.0781 Q7.5938 343.9688 7.5938 340.0312 Q7.5938 332.7188 5.4844 324.7031 Q3.375 316.6875 3.375 309.6562 Q3.375 297.2812 9 286.1719 Q14.625 275.0625 22.5 266.7656 Q30.375 258.4688 39.0938 253.5469 Q47.8125 248.625 53.7188 248.625 L115.3125 248.625 Z" stroke="none">
			</path>
		</g>
	</g>
</svg>
