<?xml version="1.0" encoding="UTF-8"?>
<svg fill-opacity="1" color-rendering="auto" color-interpolation="auto" stroke="black" text-rendering="auto" stroke-linecap="square" stroke-miterlimit="10" stroke-opacity="1" shape-rendering="auto" fill="black" stroke-dasharray="none" font-weight="normal" stroke-width="1" font-family="'Dialog'" font-style="normal" stroke-linejoin="miter" font-size="12" stroke-dashoffset="0" image-rendering="auto" preserveAspectRatio="xMidYMid meet" zoomAndPan="magnify" version="1.0" contentScriptType="text/ecmascript" contentStyleType="text/css" xmlns:xlink="http://www.w3.org/1999/xlink" xmlns="http://www.w3.org/2000/svg">
	<COMMENT>Unicode Character 'TIBETAN LETTER TA' (U+0F4F)</COMMENT>
	<defs id="genericDefs">
	</defs>
	<g transform="scale(0.3)">
		<g>
			<path d="M105.1875 248.625 Q105.75 248.625 106.0312 249.3281 Q106.3125 250.0312 106.3125 250.5938 Q106.3125 257.625 102.2344 262.125 Q98.1562 266.625 92.9531 269.2969 Q87.75 271.9688 82.5469 272.9531 Q77.3438 273.9375 75.0938 273.9375 L34.875 273.9375 L37.9688 327.375 L45.5625 318.0938 Q52.0312 310.2188 59.9062 305.7188 Q67.7812 301.2188 75.9375 301.2188 Q95.0625 301.2188 106.4531 311.3438 Q117.8438 321.4688 117.8438 344.5312 Q117.8438 355.2188 112.6406 369.4219 Q107.4375 383.625 99.1406 398.9531 Q90.8438 414.2812 80.5781 429.75 Q70.3125 445.2188 60.6094 458.7188 Q50.9062 472.2188 42.6094 482.625 Q34.3125 493.0312 29.8125 498.375 Q27.2812 501.75 24.75 501.75 Q24.1875 501.75 23.2031 500.9062 Q22.2188 500.0625 22.2188 498.9375 Q22.2188 497.5312 23.0625 496.125 Q28.4062 488.25 36.1406 476.7188 Q43.875 465.1875 52.1719 451.8281 Q60.4688 438.4688 68.625 424.4062 Q76.7812 410.3438 83.25 397.4062 Q89.7188 384.4688 93.7969 373.5 Q97.875 362.5312 97.875 355.5 Q97.875 349.875 96.6094 344.6719 Q95.3438 339.4688 91.9688 335.3906 Q88.5938 331.3125 82.6875 328.9219 Q76.7812 326.5312 67.7812 326.5312 Q51.75 326.5312 45 331.0312 L38.5312 335.25 L40.2188 362.8125 Q40.2188 365.0625 40.2188 367.0312 Q40.2188 369 39.9375 370.6875 Q39.375 374.3438 38.25 376.5938 Q37.125 378.8438 34.875 378.8438 L33.1875 371.25 Q30.6562 359.1562 28.5469 346.3594 Q26.4375 333.5625 24.0469 320.625 Q21.6562 307.6875 18.4219 295.1719 Q15.1875 282.6562 9.8438 271.125 Q12.6562 265.2188 16.1719 259.7344 Q19.6875 254.25 23.625 248.625 L105.1875 248.625 Z" stroke="none">
			</path>
		</g>
	</g>
</svg>
