<?xml version="1.0" encoding="UTF-8"?>
<svg fill-opacity="1" color-rendering="auto" color-interpolation="auto" stroke="black" text-rendering="auto" stroke-linecap="square" stroke-miterlimit="10" stroke-opacity="1" shape-rendering="auto" fill="black" stroke-dasharray="none" font-weight="normal" stroke-width="1" font-family="'Dialog'" font-style="normal" stroke-linejoin="miter" font-size="12" stroke-dashoffset="0" image-rendering="auto" preserveAspectRatio="xMidYMid meet" zoomAndPan="magnify" version="1.0" contentScriptType="text/ecmascript" contentStyleType="text/css" xmlns:xlink="http://www.w3.org/1999/xlink" xmlns="http://www.w3.org/2000/svg">
	<COMMENT>Unicode Character 'TIBETAN LETTER TTHA' (U+0F4B)</COMMENT>
	<defs id="genericDefs">
	</defs>
	<g transform="scale(0.3)">
		<g>
			<path d="M11.5312 338.9062 Q10.6875 328.2188 8.0156 314.2969 Q5.3438 300.375 5.3438 288 Q5.3438 279.5625 9.5625 272.25 Q13.7812 264.9375 20.5312 259.7344 Q27.2812 254.5312 35.5781 251.5781 Q43.875 248.625 52.0312 248.625 Q59.9062 248.625 67.2188 251.4375 Q74.5312 254.25 80.1562 259.4531 Q85.7812 264.6562 89.2969 272.1094 Q92.8125 279.5625 92.8125 289.125 Q92.8125 298.4062 88.1719 305.7188 Q83.5312 313.0312 72.2812 317.5312 Q80.4375 324 85.6406 331.1719 Q90.8438 338.3438 92.5312 348.1875 Q95.9062 350.4375 97.875 354.375 Q99.8438 358.3125 99.8438 361.4062 Q99.8438 366.1875 98.8594 370.125 Q97.875 374.0625 96.4688 376.3125 Q94.7812 374.3438 90.5625 372.0938 Q86.3438 369.8438 81 367.875 Q75.6562 365.9062 70.1719 364.6406 Q64.6875 363.375 60.75 363.375 Q50.3438 363.375 41.7656 365.4844 Q33.1875 367.5938 26.7188 370.2656 Q20.25 372.9375 16.0312 375.0469 Q11.8125 377.1562 10.4062 377.1562 Q9.5625 377.1562 9.5625 375.75 Q9.5625 373.5 10.9688 371.8125 Q12.375 370.125 13.5 367.875 L11.5312 338.9062 ZM47.25 273.9375 Q43.5938 273.9375 39.5156 275.4844 Q35.4375 277.0312 32.0625 279.4219 Q28.6875 281.8125 26.4375 284.4844 Q24.1875 287.1562 24.1875 289.125 Q24.1875 292.2188 27.5625 293.4844 Q30.9375 294.75 32.625 295.875 Q34.5938 297 39.6562 299.6719 Q44.7188 302.3438 49.9219 305.2969 Q55.125 308.25 59.3438 310.5 Q63.5625 312.75 64.125 312.75 Q67.5 312.75 70.0312 310.0781 Q72.5625 307.4062 74.25 304.1719 Q75.9375 300.9375 76.7812 297.8438 Q77.625 294.75 77.625 293.9062 Q77.625 289.9688 75.375 286.3125 Q73.125 282.6562 69.4688 279.9844 Q65.8125 277.3125 60.8906 275.625 Q55.9688 273.9375 50.9062 273.9375 L47.25 273.9375 ZM20.5312 361.4062 Q24.75 358.0312 29.6719 354.5156 Q34.5938 351 39.7969 348.0469 Q45 345.0938 50.4844 343.125 Q55.9688 341.1562 61.0312 341.1562 Q65.5312 341.1562 71.8594 342.5625 Q78.1875 343.9688 82.125 345.375 Q81 338.9062 73.2656 333.4219 Q65.5312 327.9375 55.6875 323.7188 Q49.2188 320.9062 42.4688 318.9375 Q35.7188 316.9688 30.0938 315 Q28.125 314.4375 26.4375 313.0312 Q24.75 311.625 22.7812 309.9375 L20.5312 361.4062 Z" stroke="none">
			</path>
		</g>
	</g>
</svg>
