<?xml version="1.0" encoding="UTF-8"?>
<svg fill-opacity="1" color-rendering="auto" color-interpolation="auto" stroke="black" text-rendering="auto" stroke-linecap="square" stroke-miterlimit="10" stroke-opacity="1" shape-rendering="auto" fill="black" stroke-dasharray="none" font-weight="normal" stroke-width="1" font-family="'Dialog'" font-style="normal" stroke-linejoin="miter" font-size="12" stroke-dashoffset="0" image-rendering="auto" preserveAspectRatio="xMidYMid meet" zoomAndPan="magnify" version="1.0" contentScriptType="text/ecmascript" contentStyleType="text/css" xmlns:xlink="http://www.w3.org/1999/xlink" xmlns="http://www.w3.org/2000/svg">
	<COMMENT>Unicode Character 'TIBETAN LETTER GHA' (U+0F43)</COMMENT>
	<defs id="genericDefs">
	</defs>
	<g transform="scale(0.3)">
		<g>
			<path d="M108.2812 360 Q108.8438 360 109.125 360.7031 Q109.4062 361.4062 109.4062 361.9688 Q109.4062 368.4375 105.4688 372.5156 Q101.5312 376.5938 96.4688 379.125 Q91.4062 381.6562 86.3438 382.6406 Q81.2812 383.625 79.0312 383.625 Q73.125 383.625 67.2188 385.5938 Q61.3125 387.5625 55.8281 390.5156 Q50.3438 393.4688 45.2812 396.9844 Q40.2188 400.5 36.2812 403.875 L30.0938 409.2188 L32.0625 409.2188 Q40.5 409.2188 46.4062 414.2812 Q52.3125 419.3438 58.2188 426.375 Q59.3438 420.4688 62.8594 415.125 Q66.375 409.7812 71.0156 405.7031 Q75.6562 401.625 81 399.375 Q86.3438 397.125 91.125 397.125 Q108.2812 397.125 117 407.6719 Q125.7188 418.2188 125.7188 435.9375 Q125.7188 444.6562 121.6406 453.2344 Q117.5625 461.8125 111.6562 469.2656 Q105.75 476.7188 99 482.7656 Q92.25 488.8125 87.1875 492.75 Q86.625 493.0312 84.9375 494.4375 Q83.25 495.8438 81 497.5312 Q78.75 499.2188 76.6406 500.4844 Q74.5312 501.75 73.6875 501.75 Q70.875 501.75 70.875 498.9375 Q70.875 498.0938 72.1406 496.8281 Q73.4062 495.5625 74.9531 494.1562 Q76.5 492.75 78.0469 491.4844 Q79.5938 490.2188 80.1562 489.6562 Q84.9375 485.1562 89.7188 479.6719 Q94.5 474.1875 98.2969 468.4219 Q102.0938 462.6562 104.4844 456.6094 Q106.875 450.5625 106.875 444.6562 Q106.875 432 101.8125 425.25 Q96.75 418.5 82.4062 418.5 Q77.625 418.5 72.2812 422.2969 Q66.9375 426.0938 64.4062 430.0312 Q65.5312 432.2812 67.2188 435.375 Q68.625 437.9062 70.7344 441.7031 Q72.8438 445.5 75.9375 450.5625 Q78.1875 454.2188 78.1875 456.1875 Q78.1875 457.5938 76.7812 457.5938 Q74.8125 457.5938 73.5469 456.4688 Q72.2812 455.3438 71.7188 454.5 Q67.5 450.2812 62.2969 446.3438 Q57.0938 442.4062 51.6094 439.3125 Q46.125 436.2188 40.5 434.3906 Q34.875 432.5625 29.5312 432.5625 Q23.0625 432.5625 17.8594 433.4062 Q12.6562 434.25 9.5625 435.6562 Q10.9688 429.75 13.5 423 Q16.0312 416.25 20.5312 410.625 L26.1562 403.875 Q30.0938 399.375 34.5938 394.3125 Q39.0938 389.25 43.875 385.3125 L35.7188 385.3125 Q26.1562 385.3125 26.1562 383.3438 Q26.1562 382.7812 26.5781 381.9375 Q27 381.0938 27.5625 380.25 L41.0625 360 L108.2812 360 ZM134.1562 248.625 Q137.8125 248.625 137.8125 250.5938 Q137.8125 252.2812 137.25 253.4062 Q136.6875 254.5312 136.125 255.375 Q135.5625 256.7812 135 261.5625 Q134.4375 266.3438 133.875 274.5 Q132.4688 296.4375 130.3594 323.2969 Q128.25 350.1562 128.25 380.8125 L128.25 381.9375 Q128.25 384.1875 126.9844 385.4531 Q125.7188 386.7188 124.0312 386.7188 Q122.625 386.7188 121.2188 385.5938 Q119.8125 384.4688 119.8125 382.2188 L119.8125 380.8125 Q119.8125 349.3125 115.4531 323.0156 Q111.0938 296.7188 107.1562 273.9375 L88.875 273.9375 Q85.7812 273.9375 85.3594 277.0312 Q84.9375 280.125 84.9375 282.9375 L88.3125 338.625 Q90.2812 340.5938 90.2812 343.125 Q90.2812 346.5 86.9062 346.5 Q84.6562 346.5 82.6875 344.6719 Q80.7188 342.8438 78.4688 341.1562 Q75.0938 338.3438 68.4844 336.5156 Q61.875 334.6875 53.8594 333.5625 Q45.8438 332.4375 37.2656 331.875 Q28.6875 331.3125 21.9375 331.3125 Q16.3125 331.3125 11.25 332.8594 Q6.1875 334.4062 1.125 335.5312 Q2.25 327.9375 4.6406 321.6094 Q7.0312 315.2812 9.8438 311.3438 Q11.25 300.0938 15.6094 290.1094 Q19.9688 280.125 24.75 273.9375 L18.5625 273.9375 Q9 273.9375 9 271.9688 Q9 271.4062 9.4219 270.5625 Q9.8438 269.7188 10.4062 268.875 L23.9062 248.625 L134.1562 248.625 ZM51.75 273.9375 Q47.25 273.9375 42.0469 276.75 Q36.8438 279.5625 32.0625 284.2031 Q27.2812 288.8438 23.7656 295.1719 Q20.25 301.5 19.125 308.25 Q21.375 306.8438 25.7344 306.4219 Q30.0938 306 32.0625 306 Q43.3125 306 51.75 311.2031 Q60.1875 316.4062 65.8125 320.625 L79.875 331.875 L79.3125 325.9688 Q78.75 320.9062 77.3438 313.3125 Q75.9375 305.7188 73.4062 297.9844 Q70.875 290.25 67.5 283.6406 Q64.125 277.0312 59.625 273.9375 L51.75 273.9375 Z" stroke="none">
			</path>
		</g>
	</g>
</svg>
