<?xml version="1.0" encoding="UTF-8"?>
<svg fill-opacity="1" color-rendering="auto" color-interpolation="auto" stroke="black" text-rendering="auto" stroke-linecap="square" stroke-miterlimit="10" stroke-opacity="1" shape-rendering="auto" fill="black" stroke-dasharray="none" font-weight="normal" stroke-width="1" font-family="'Dialog'" font-style="normal" stroke-linejoin="miter" font-size="12" stroke-dashoffset="0" image-rendering="auto" preserveAspectRatio="xMidYMid meet" zoomAndPan="magnify" version="1.0" contentScriptType="text/ecmascript" contentStyleType="text/css" xmlns:xlink="http://www.w3.org/1999/xlink" xmlns="http://www.w3.org/2000/svg">
	<COMMENT>Unicode Character 'TIBETAN LETTER TSHA' (U+0F5A)</COMMENT>
	<defs id="genericDefs">
	</defs>
	<g transform="scale(0.3)">
		<g>
			<path d="M80.7188 273.9375 Q78.4688 275.3438 77.2031 280.6875 Q75.9375 286.0312 75.9375 292.5 L75.9375 304.3125 Q82.9688 303.4688 88.3125 303.0469 Q93.6562 302.625 102.6562 302.625 Q118.9688 302.625 129.5156 313.3125 Q140.0625 324 140.0625 346.7812 Q140.0625 355.2188 137.3906 362.8125 Q134.7188 370.4062 129.9375 376.1719 Q125.1562 381.9375 118.5469 385.3125 Q111.9375 388.6875 104.0625 388.6875 Q96.75 388.6875 91.2656 386.2969 Q85.7812 383.9062 81.7031 380.25 Q77.625 376.5938 75.0938 372.6562 Q72.5625 368.7188 70.875 365.3438 Q70.875 368.4375 68.2031 372.5156 Q65.5312 376.5938 61.3125 380.1094 Q57.0938 383.625 51.8906 386.1562 Q46.6875 388.6875 41.3438 388.6875 Q23.0625 388.6875 13.2188 378.1406 Q3.375 367.5938 3.375 348.75 Q3.375 341.4375 5.7656 333.2812 Q8.1562 325.125 12.6562 318.375 Q17.1562 311.625 23.625 307.125 Q30.0938 302.625 38.25 302.625 Q49.7812 302.625 56.25 303.1875 Q62.7188 303.75 67.5 304.3125 L67.5 298.6875 Q67.5 293.9062 65.25 289.4062 Q63 284.9062 59.4844 281.5312 Q55.9688 278.1562 51.4688 276.0469 Q46.9688 273.9375 42.75 273.9375 L28.4062 273.9375 Q18.8438 273.9375 18.8438 271.9688 Q18.8438 271.4062 19.2656 270.5625 Q19.6875 269.7188 20.25 268.875 L33.75 248.625 L106.0312 248.625 Q106.0312 246.9375 105.4688 243.9844 Q104.9062 241.0312 103.6406 237.7969 Q102.375 234.5625 100.5469 231.3281 Q98.7188 228.0938 96.4688 225.5625 Q93.9375 222.75 91.9688 221.3438 Q90 219.9375 90 218.5312 Q90 217.6875 91.8281 214.875 Q93.6562 212.0625 96.1875 208.6875 Q98.7188 205.3125 101.3906 202.3594 Q104.0625 199.4062 105.75 198 L159.75 198 Q160.3125 198 160.5938 198.7031 Q160.875 199.4062 160.875 199.9688 Q160.875 203.9062 159.1875 207 Q157.5 210.0938 155.25 212.4844 Q153 214.875 150.6094 216.2812 Q148.2188 217.6875 147.0938 218.5312 Q142.3125 221.3438 136.2656 222.3281 Q130.2188 223.3125 124.5938 223.3125 L114.75 223.3125 L114.75 248.625 L119.25 248.625 Q119.8125 248.625 120.0938 249.3281 Q120.375 250.0312 120.375 250.5938 Q120.375 257.625 116.2969 262.125 Q112.2188 266.625 107.0156 269.2969 Q101.8125 271.9688 96.6094 272.9531 Q91.4062 273.9375 89.1562 273.9375 L80.7188 273.9375 ZM67.5 327.9375 Q63 327.0938 54.4219 326.6719 Q45.8438 326.25 38.5312 326.25 Q30.375 326.25 25.3125 328.0781 Q20.25 329.9062 17.5781 332.7188 Q14.9062 335.5312 14.0625 338.9062 Q13.2188 342.2812 13.2188 345.375 Q13.2188 349.3125 15.4688 354.0938 Q17.7188 358.875 21.6562 362.8125 Q25.5938 366.75 30.9375 369.4219 Q36.2812 372.0938 42.75 372.0938 Q48.6562 372.0938 53.1562 370.125 Q57.6562 368.1562 60.75 365.0625 Q63.8438 361.9688 65.5312 358.1719 Q67.2188 354.375 67.5 350.7188 L67.5 327.9375 ZM75.9375 353.8125 Q78.75 360.2812 86.3438 366.0469 Q93.9375 371.8125 106.875 371.8125 Q119.5312 371.8125 124.7344 365.0625 Q129.9375 358.3125 129.9375 347.3438 Q129.9375 338.9062 121.7812 332.5781 Q113.625 326.25 98.4375 326.25 Q93.6562 326.25 87.6094 326.3906 Q81.5625 326.5312 75.9375 327.9375 L75.9375 353.8125 Z" stroke="none">
			</path>
		</g>
	</g>
</svg>
