<?xml version="1.0" encoding="UTF-8"?>
<svg fill-opacity="1" color-rendering="auto" color-interpolation="auto" stroke="black" text-rendering="auto" stroke-linecap="square" stroke-miterlimit="10" stroke-opacity="1" shape-rendering="auto" fill="black" stroke-dasharray="none" font-weight="normal" stroke-width="1" font-family="'Dialog'" font-style="normal" stroke-linejoin="miter" font-size="12" stroke-dashoffset="0" image-rendering="auto" preserveAspectRatio="xMidYMid meet" zoomAndPan="magnify" version="1.0" contentScriptType="text/ecmascript" contentStyleType="text/css" xmlns:xlink="http://www.w3.org/1999/xlink" xmlns="http://www.w3.org/2000/svg">
	<COMMENT>Unicode Character 'TIBETAN LETTER BHA' (U+0F57)</COMMENT>
	<defs id="genericDefs">
	</defs>
	<g transform="scale(0.3)">
		<g>
			<path d="M126.5625 248.625 Q129.375 248.625 129.375 251.4375 Q129.375 253.4062 128.6719 253.9688 Q127.9688 254.5312 127.6875 255.6562 Q126.2812 259.875 124.5938 264.375 Q122.9062 268.875 121.5 273.9375 Q120.0938 279.5625 119.1094 285.75 Q118.125 291.9375 118.125 298.9688 L118.125 355.7812 Q119.25 357.4688 119.25 359.4375 Q119.25 361.9688 116.4375 361.9688 Q115.0312 361.9688 111.5156 359.2969 Q108 356.625 106.5938 355.7812 Q100.9688 352.125 93.0938 347.7656 Q85.2188 343.4062 75.7969 339.75 Q66.375 336.0938 55.4062 333.7031 Q44.4375 331.3125 33.1875 331.3125 Q27.2812 331.3125 23.0625 331.875 Q18.8438 332.4375 15.4688 333.2812 Q12.0938 334.125 9.1406 335.1094 Q6.1875 336.0938 3.375 336.9375 Q7.0312 325.125 9.1406 320.0625 Q11.25 315 15.1875 311.9062 Q15.4688 301.2188 17.1562 292.5 Q18.8438 283.7812 23.625 277.3125 Q22.2188 273.9375 18.5625 273.9375 Q9.2812 273.9375 9.2812 271.9688 Q9.2812 270.8438 10.6875 268.875 L24.75 248.625 L126.5625 248.625 ZM105.4688 313.3125 Q104.625 308.25 103.5 301.5 Q102.375 294.75 100.8281 288.5625 Q99.2812 282.375 97.4531 278.1562 Q95.625 273.9375 93.6562 273.9375 L49.2188 273.9375 Q46.125 275.9062 41.7656 279.2812 Q37.4062 282.6562 33.4688 287.2969 Q29.5312 291.9375 26.7188 297.2812 Q23.9062 302.625 23.9062 308.25 Q26.1562 307.4062 27.9844 306.7031 Q29.8125 306 33.1875 306 Q50.0625 306 60.6094 309.5156 Q71.1562 313.0312 78.0469 318.0938 Q84.9375 323.1562 89.5781 328.9219 Q94.2188 334.6875 99.2812 338.9062 L109.6875 347.9062 L109.6875 343.6875 Q109.6875 338.0625 108.4219 331.4531 Q107.1562 324.8438 105.4688 313.3125 ZM102.0938 360 Q102.6562 360 102.9375 360.7031 Q103.2188 361.4062 103.2188 361.9688 Q103.2188 368.4375 99.7031 372.5156 Q96.1875 376.5938 91.5469 379.125 Q86.9062 381.6562 82.2656 382.6406 Q77.625 383.625 75.375 383.625 Q69.4688 383.625 62.8594 385.4531 Q56.25 387.2812 50.0625 390.2344 Q43.875 393.1875 38.25 396.7031 Q32.625 400.2188 28.9688 403.875 L22.5 409.2188 L24.4688 409.2188 Q32.9062 409.2188 39.6562 414.2812 Q46.4062 419.3438 52.3125 426.375 Q53.4375 420.4688 56.9531 415.125 Q60.4688 409.7812 65.1094 405.7031 Q69.75 401.625 75.0938 399.375 Q80.4375 397.125 85.2188 397.125 Q102.375 397.125 111.0938 407.6719 Q119.8125 418.2188 119.8125 435.9375 Q119.8125 444.6562 115.5938 453.2344 Q111.375 461.8125 105.3281 469.2656 Q99.2812 476.7188 92.3906 482.7656 Q85.5 488.8125 80.4375 492.75 Q80.1562 493.0312 78.4688 494.4375 Q76.7812 495.8438 74.5312 497.5312 Q72.2812 499.2188 70.0312 500.4844 Q67.7812 501.75 66.9375 501.75 Q63.2812 501.75 63.2812 498.9375 Q63.2812 498.0938 64.5469 496.8281 Q65.8125 495.5625 67.3594 494.0156 Q68.9062 492.4688 70.4531 491.2031 Q72 489.9375 72.5625 489.375 Q77.3438 484.5938 82.4062 479.25 Q87.4688 473.9062 91.5469 468.1406 Q95.625 462.375 98.2969 456.4688 Q100.9688 450.5625 100.9688 444.6562 Q100.9688 432 95.9062 425.25 Q90.8438 418.5 76.5 418.5 Q71.7188 418.5 66.375 422.2969 Q61.0312 426.0938 58.5 430.0312 Q59.625 432.2812 61.3125 435.375 Q62.7188 437.9062 64.8281 441.7031 Q66.9375 445.5 70.0312 450.5625 Q72.2812 454.2188 72.2812 456.1875 Q72.2812 457.5938 70.875 457.5938 Q68.9062 457.5938 67.6406 456.4688 Q66.375 455.3438 65.8125 454.5 Q61.5938 450.2812 56.3906 446.3438 Q51.1875 442.4062 45.5625 439.3125 Q39.9375 436.2188 34.1719 434.3906 Q28.4062 432.5625 23.0625 432.5625 Q17.7188 432.5625 12.2344 433.4062 Q6.75 434.25 3.6562 435.6562 Q5.3438 429.75 6.75 422.8594 Q8.1562 415.9688 12.9375 410.625 L18.8438 403.875 Q21.9375 400.2188 26.5781 395.7188 Q31.2188 391.2188 35.1562 388.125 Q35.1562 386.7188 32.0625 386.0156 Q28.9688 385.3125 25.875 385.3125 Q16.3125 385.3125 16.3125 383.3438 Q16.3125 382.7812 16.7344 381.9375 Q17.1562 381.0938 17.7188 380.25 L31.2188 360 L102.0938 360 Z" stroke="none">
			</path>
		</g>
	</g>
</svg>
