<?xml version="1.0" encoding="UTF-8"?>
<svg fill-opacity="1" color-rendering="auto" color-interpolation="auto" stroke="black" text-rendering="auto" stroke-linecap="square" stroke-miterlimit="10" stroke-opacity="1" shape-rendering="auto" fill="black" stroke-dasharray="none" font-weight="normal" stroke-width="1" font-family="'Dialog'" font-style="normal" stroke-linejoin="miter" font-size="12" stroke-dashoffset="0" image-rendering="auto" preserveAspectRatio="xMidYMid meet" zoomAndPan="magnify" version="1.0" contentScriptType="text/ecmascript" contentStyleType="text/css" xmlns:xlink="http://www.w3.org/1999/xlink" xmlns="http://www.w3.org/2000/svg">
	<COMMENT>Unicode Character 'TIBETAN LETTER WA' (U+0F5D)</COMMENT>
	<defs id="genericDefs">
	</defs>
	<g transform="scale(0.3)">
		<g>
			<path d="M77.3438 248.625 Q77.625 249.4688 77.625 250.5938 Q77.625 253.4062 75.2344 256.2188 Q72.8438 259.0312 70.0312 261.2812 Q71.4375 263.5312 73.125 269.1562 Q74.8125 274.7812 74.8125 278.4375 Q74.8125 281.5312 72.8438 285.0469 Q70.875 288.5625 68.2031 291.9375 Q65.5312 295.3125 62.7188 298.5469 Q59.9062 301.7812 58.2188 304.3125 Q59.625 303.75 63.1406 303.1875 Q66.6562 302.625 68.625 302.625 L108.8438 302.625 Q108 297.5625 107.0156 292.5 Q106.0312 287.4375 104.7656 283.2188 Q103.5 279 102.2344 276.4688 Q100.9688 273.9375 99.5625 273.9375 Q98.1562 273.9375 96.8906 274.7812 Q95.625 275.625 95.0625 275.625 Q94.2188 275.625 93.0938 275.0625 Q91.9688 274.5 91.9688 273.0938 Q91.9688 272.5312 92.9531 271.4062 Q93.9375 270.2812 94.7812 269.4375 L110.8125 251.7188 Q113.625 248.625 115.875 248.625 L142.875 248.625 Q143.4375 248.625 143.5781 249.4688 Q143.7188 250.3125 143.7188 250.5938 Q143.4375 255.6562 141.1875 259.3125 Q138.9375 262.9688 135.7031 265.7812 Q132.4688 268.5938 128.5312 270.5625 Q124.5938 272.5312 120.9375 273.9375 Q122.3438 275.625 122.7656 277.875 Q123.1875 280.125 123.1875 282.375 L123.1875 302.625 L129.6562 302.625 Q130.2188 302.625 130.5 303.3281 Q130.7812 304.0312 130.7812 304.5938 Q130.7812 309.6562 128.5312 313.3125 Q126.2812 316.9688 123.1875 319.7812 L123.1875 387.2812 Q123.4688 387.8438 123.75 388.5469 Q124.0312 389.25 124.0312 389.8125 Q124.0312 391.5 122.0625 392.625 Q120.0938 393.75 119.5312 393.75 Q118.125 393.75 117.2812 392.7656 Q116.4375 391.7812 115.3125 391.2188 Q104.9062 385.3125 91.2656 379.4062 Q77.625 373.5 61.0312 373.5 Q57.6562 373.5 53.2969 374.0625 Q48.9375 374.625 44.2969 375.4688 Q39.6562 376.3125 35.4375 377.4375 Q31.2188 378.5625 27.8438 379.4062 Q28.9688 372.9375 31.7812 367.0312 Q34.5938 361.125 37.9688 356.9062 Q37.9688 355.7812 39.2344 351.5625 Q40.5 347.3438 42.4688 342.5625 Q44.4375 337.7812 46.5469 333.5625 Q48.6562 329.3438 50.625 327.9375 Q46.125 327.9375 42.6094 328.9219 Q39.0938 329.9062 38.5312 329.9062 Q37.4062 329.9062 37.4062 327.9375 Q37.4062 327.375 38.6719 324.7031 Q39.9375 322.0312 40.5 321.1875 L49.7812 302.625 Q51.75 298.6875 54.5625 293.9062 Q57.375 289.125 57.375 286.3125 Q57.375 284.0625 56.9531 281.8125 Q56.5312 279.5625 54.9844 277.875 Q53.4375 276.1875 50.625 275.0625 Q47.8125 273.9375 43.0312 273.9375 L37.9688 273.9375 Q33.4688 273.9375 29.1094 274.6406 Q24.75 275.3438 21.2344 276.6094 Q17.7188 277.875 15.6094 279.7031 Q13.5 281.5312 13.5 283.5 Q14.3438 289.125 15.8906 293.0625 Q17.4375 297 18.8438 300.5156 Q20.25 304.0312 21.375 307.9688 Q22.5 311.9062 22.5 317.25 Q22.5 320.0625 21.7969 322.875 Q21.0938 325.6875 18 328.2188 Q14.3438 331.5938 10.125 334.8281 Q5.9062 338.0625 4.2188 338.0625 Q2.5312 338.0625 2.5312 336.6562 Q2.5312 336.0938 3.375 333.9844 Q4.2188 331.875 4.2188 327.9375 Q4.2188 320.625 2.1094 312.6094 Q0 304.5938 0 297.2812 Q0 292.2188 2.9531 284.0625 Q5.9062 275.9062 11.6719 268.0312 Q17.4375 260.1562 26.0156 254.3906 Q34.5938 248.625 46.125 248.625 L77.3438 248.625 ZM46.6875 349.875 Q49.5 349.3125 52.4531 348.75 Q55.4062 348.1875 58.7812 348.1875 Q68.9062 348.1875 75.9375 351.1406 Q82.9688 354.0938 88.1719 358.3125 Q93.375 362.5312 97.875 367.4531 Q102.375 372.375 107.7188 376.0312 L115.875 381.9375 L111.0938 327.9375 L70.3125 327.9375 Q65.5312 327.9375 61.3125 331.0312 Q57.0938 334.125 53.8594 338.0625 Q50.625 342 48.7969 345.5156 Q46.9688 349.0312 46.6875 349.875 Z" stroke="none">
			</path>
		</g>
	</g>
</svg>
