<?xml version="1.0" encoding="UTF-8"?>
<svg fill-opacity="1" color-rendering="auto" color-interpolation="auto" stroke="black" text-rendering="auto" stroke-linecap="square" stroke-miterlimit="10" stroke-opacity="1" shape-rendering="auto" fill="black" stroke-dasharray="none" font-weight="normal" stroke-width="1" font-family="'Dialog'" font-style="normal" stroke-linejoin="miter" font-size="12" stroke-dashoffset="0" image-rendering="auto" preserveAspectRatio="xMidYMid meet" zoomAndPan="magnify" version="1.0" contentScriptType="text/ecmascript" contentStyleType="text/css" xmlns:xlink="http://www.w3.org/1999/xlink" xmlns="http://www.w3.org/2000/svg">
	<COMMENT>Unicode Character 'TIBETAN LETTER NNA' (U+0F4E)</COMMENT>
	<defs id="genericDefs">
	</defs>
	<g transform="scale(0.3)">
		<g>
			<path d="M98.4375 248.625 Q99 248.625 99.2812 249.3281 Q99.5625 250.0312 99.5625 250.5938 Q99.5625 255.9375 96.8906 259.7344 Q94.2188 263.5312 90.2812 266.2031 Q86.3438 268.875 81.8438 270.5625 Q77.3438 272.25 73.6875 273.0938 Q64.6875 276.1875 61.1719 283.2188 Q57.6562 290.25 57.0938 297.5625 Q62.4375 295.3125 68.3438 293.9062 Q74.25 292.5 81 292.5 Q90.5625 292.5 97.4531 295.4531 Q104.3438 298.4062 108.7031 303.3281 Q113.0625 308.25 115.1719 314.7188 Q117.2812 321.1875 117.2812 328.5 Q117.2812 336.9375 114.8906 344.9531 Q112.5 352.9688 107.8594 359.4375 Q103.2188 365.9062 96.3281 369.8438 Q89.4375 373.7812 80.7188 373.7812 Q71.4375 373.7812 65.5312 368.8594 Q59.625 363.9375 56.25 357.0469 Q52.875 350.1562 51.4688 342.5625 Q50.0625 334.9688 49.7812 329.625 Q45.5625 334.4062 42.1875 339.3281 Q38.8125 344.25 37.4062 347.625 Q27.8438 369.2812 24.0469 393.0469 Q20.25 416.8125 18.5625 440.1562 L14.9062 491.625 Q14.9062 492.75 13.5 493.875 Q12.0938 495 10.6875 495 Q9.2812 495 8.4375 494.4375 Q7.5938 493.875 7.5938 491.625 L7.5938 430.0312 Q7.5938 410.625 9.7031 391.3594 Q11.8125 372.0938 16.7344 355.2188 Q21.6562 338.3438 29.3906 324.7031 Q37.125 311.0625 48.0938 302.9062 L46.6875 285.4688 Q46.6875 284.0625 46.4062 282.0938 Q46.125 280.125 45.7031 278.2969 Q45.2812 276.4688 44.2969 275.2031 Q43.3125 273.9375 41.9062 273.9375 L30.9375 273.9375 Q21.375 273.9375 21.375 271.9688 Q21.375 271.4062 21.7969 270.5625 Q22.2188 269.7188 22.7812 268.875 L36.2812 248.625 L98.4375 248.625 ZM68.3438 317.8125 Q66.0938 317.8125 63.4219 319.3594 Q60.75 320.9062 58.5 322.5938 L59.0625 326.8125 Q59.625 332.4375 61.0312 338.3438 Q62.4375 344.25 65.1094 349.0312 Q67.7812 353.8125 71.5781 356.9062 Q75.375 360 81 360 Q94.2188 360 98.7188 355.5 Q103.2188 351 103.2188 343.9688 Q103.2188 336.9375 100.4062 331.875 Q97.5938 326.8125 92.8125 323.7188 Q88.0312 320.625 81.7031 319.2188 Q75.375 317.8125 68.3438 317.8125 Z" stroke="none">
			</path>
		</g>
	</g>
</svg>
