<?xml version="1.0" encoding="UTF-8"?>
<svg fill-opacity="1" color-rendering="auto" color-interpolation="auto" stroke="black" text-rendering="auto" stroke-linecap="square" stroke-miterlimit="10" stroke-opacity="1" shape-rendering="auto" fill="black" stroke-dasharray="none" font-weight="normal" stroke-width="1" font-family="'Dialog'" font-style="normal" stroke-linejoin="miter" font-size="12" stroke-dashoffset="0" image-rendering="auto" preserveAspectRatio="xMidYMid meet" zoomAndPan="magnify" version="1.0" contentScriptType="text/ecmascript" contentStyleType="text/css" xmlns:xlink="http://www.w3.org/1999/xlink" xmlns="http://www.w3.org/2000/svg">
	<COMMENT>Unicode Character 'TIBETAN LETTER NA' (U+0F53)</COMMENT>
	<defs id="genericDefs">
	</defs>
	<g transform="scale(0.3)">
		<g>
			<path d="M106.5938 248.625 Q107.1562 248.625 107.4375 249.3281 Q107.7188 250.0312 107.7188 250.5938 Q107.7188 257.625 103.3594 261.9844 Q99 266.3438 93.5156 268.875 Q88.0312 271.4062 82.8281 272.25 Q77.625 273.0938 75.9375 273.0938 Q74.8125 273.0938 73.6875 274.2188 Q72.5625 275.3438 72.5625 277.3125 L72.5625 304.5938 Q75.6562 306 79.1719 308.9531 Q82.6875 311.9062 86.0625 316.6875 Q91.6875 324.5625 95.7656 335.8125 Q99.8438 347.0625 102.7969 360.4219 Q105.75 373.7812 107.7188 388.8281 Q109.6875 403.875 110.5312 419.3438 L115.3125 498.0938 Q115.3125 499.5 114.1875 500.625 Q113.0625 501.75 111.9375 501.75 Q109.6875 501.75 108.9844 500.7656 Q108.2812 499.7812 108 498.375 Q106.5938 492.4688 105.3281 482.4844 Q104.0625 472.5 102.7969 461.3906 Q101.5312 450.2812 100.5469 439.3125 Q99.5625 428.3438 98.7188 420.4688 Q96.4688 395.7188 88.875 374.4844 Q81.2812 353.25 72.5625 340.0312 L72.5625 344.25 Q72.5625 348.4688 70.1719 353.8125 Q67.7812 359.1562 63.8438 363.9375 Q59.9062 368.7188 54.8438 372.0938 Q49.7812 375.4688 44.4375 375.4688 Q35.7188 375.4688 28.2656 373.0781 Q20.8125 370.6875 15.3281 366.0469 Q9.8438 361.4062 6.6094 354.5156 Q3.375 347.625 3.375 338.9062 Q3.375 331.3125 7.0312 323.8594 Q10.6875 316.4062 16.7344 310.6406 Q22.7812 304.875 30.375 301.3594 Q37.9688 297.8438 45.5625 297.8438 Q50.625 297.8438 55.2656 298.8281 Q59.9062 299.8125 62.4375 300.375 L62.4375 297.2812 Q62.4375 293.0625 60.4688 288.8438 Q58.5 284.625 54.9844 281.3906 Q51.4688 278.1562 46.9688 276.0469 Q42.4688 273.9375 37.4062 273.9375 L30.0938 273.9375 Q20.5312 273.9375 20.5312 271.9688 Q20.5312 271.4062 20.9531 270.5625 Q21.375 269.7188 21.9375 268.875 L35.4375 248.625 L106.5938 248.625 ZM39.6562 360.2812 Q51.75 360.2812 56.25 354.0938 Q60.75 347.9062 60.75 338.625 L60.75 334.4062 Q58.5 330.1875 52.875 326.5312 Q47.25 322.875 39.6562 322.875 Q34.875 322.875 30.7969 323.4375 Q26.7188 324 23.625 325.6875 Q20.5312 327.375 18.7031 330.6094 Q16.875 333.8438 16.875 339.1875 Q16.875 343.9688 18.8438 347.9062 Q20.8125 351.8438 24.0469 354.6562 Q27.2812 357.4688 31.3594 358.875 Q35.4375 360.2812 39.6562 360.2812 Z" stroke="none">
			</path>
		</g>
	</g>
</svg>
