<?xml version="1.0" encoding="UTF-8"?>
<svg fill-opacity="1" color-rendering="auto" color-interpolation="auto" stroke="black" text-rendering="auto" stroke-linecap="square" stroke-miterlimit="10" stroke-opacity="1" shape-rendering="auto" fill="black" stroke-dasharray="none" font-weight="normal" stroke-width="1" font-family="'Dialog'" font-style="normal" stroke-linejoin="miter" font-size="12" stroke-dashoffset="0" image-rendering="auto" preserveAspectRatio="xMidYMid meet" zoomAndPan="magnify" version="1.0" contentScriptType="text/ecmascript" contentStyleType="text/css" xmlns:xlink="http://www.w3.org/1999/xlink" xmlns="http://www.w3.org/2000/svg">
	<COMMENT>Unicode Character 'TIBETAN LETTER DDHA' (U+0F4D)</COMMENT>
	<defs id="genericDefs">
	</defs>
	<g transform="scale(0.3)">
		<g>
			<path d="M109.6875 360 Q110.25 360 110.5312 360.7031 Q110.8125 361.4062 110.8125 361.9688 Q110.8125 368.4375 106.875 372.5156 Q102.9375 376.5938 97.875 379.125 Q92.8125 381.6562 87.75 382.6406 Q82.6875 383.625 80.4375 383.625 Q74.5312 383.625 67.9219 385.4531 Q61.3125 387.2812 55.125 390.2344 Q48.9375 393.1875 43.3125 396.7031 Q37.6875 400.2188 34.0312 403.875 L27.5625 409.2188 L29.5312 409.2188 Q37.9688 409.2188 44.7188 414.2812 Q51.4688 419.3438 57.375 426.375 Q58.5 420.4688 62.0156 415.125 Q65.5312 409.7812 70.1719 405.7031 Q74.8125 401.625 80.1562 399.375 Q85.5 397.125 90.2812 397.125 Q107.4375 397.125 116.1562 407.6719 Q124.875 418.2188 124.875 435.9375 Q124.875 444.6562 120.6562 453.2344 Q116.4375 461.8125 110.3906 469.2656 Q104.3438 476.7188 97.4531 482.7656 Q90.5625 488.8125 85.5 492.75 Q85.2188 493.0312 83.5312 494.4375 Q81.8438 495.8438 79.5938 497.5312 Q77.3438 499.2188 75.0938 500.4844 Q72.8438 501.75 72 501.75 Q69.1875 501.75 69.1875 498.9375 Q69.1875 498.0938 70.4531 496.8281 Q71.7188 495.5625 73.2656 494.0156 Q74.8125 492.4688 76.3594 491.2031 Q77.9062 489.9375 78.4688 489.375 Q83.25 484.5938 88.1719 479.25 Q93.0938 473.9062 97.0312 468.1406 Q100.9688 462.375 103.5 456.4688 Q106.0312 450.5625 106.0312 444.6562 Q106.0312 432 100.9688 425.25 Q95.9062 418.5 81.5625 418.5 Q76.7812 418.5 71.4375 422.2969 Q66.0938 426.0938 63.5625 430.0312 Q64.6875 432.2812 66.375 435.375 Q67.7812 437.9062 69.8906 441.7031 Q72 445.5 75.0938 450.5625 Q77.3438 454.2188 77.3438 456.1875 Q77.3438 457.5938 75.9375 457.5938 Q73.9688 457.5938 72.7031 456.4688 Q71.4375 455.3438 70.875 454.5 Q66.6562 450.2812 61.3125 446.3438 Q55.9688 442.4062 50.0625 439.3125 Q44.1562 436.2188 38.25 434.3906 Q32.3438 432.5625 27 432.5625 Q20.5312 432.5625 15.3281 433.4062 Q10.125 434.25 7.0312 435.6562 Q8.7188 429.75 10.9688 422.8594 Q13.2188 415.9688 18 410.625 L23.9062 403.875 Q27 400.2188 31.6406 395.7188 Q36.2812 391.2188 40.2188 388.125 Q40.2188 386.7188 37.125 386.0156 Q34.0312 385.3125 30.9375 385.3125 Q21.375 385.3125 21.375 383.3438 Q21.375 382.7812 21.7969 381.9375 Q22.2188 381.0938 22.7812 380.25 L36.2812 360 L109.6875 360 ZM124.3125 248.625 Q124.875 248.625 125.2969 249.3281 Q125.7188 250.0312 125.7188 250.5938 Q124.3125 257.3438 120.9375 261.7031 Q117.5625 266.0625 112.5 268.875 Q113.3438 272.25 114.0469 276.75 Q114.75 281.25 115.3125 286.1719 Q115.875 291.0938 116.4375 295.875 Q117 300.6562 117.5625 304.5938 L118.125 309.375 L129.375 312.4688 Q128.25 315.8438 125.8594 319.3594 Q123.4688 322.875 120.2344 325.9688 Q117 329.0625 113.2031 331.0312 Q109.4062 333 106.0312 333 Q102.6562 333 99.4219 332.1562 Q96.1875 331.3125 92.25 330.4688 Q88.3125 329.625 83.3906 328.7812 Q78.4688 327.9375 71.7188 327.9375 Q64.9688 327.9375 58.0781 330.0469 Q51.1875 332.1562 45 335.8125 Q38.8125 339.4688 33.8906 344.5312 Q28.9688 349.5938 26.1562 355.5 Q23.9062 360.2812 20.8125 365.9062 Q17.7188 371.5312 15.75 377.7188 Q15.1875 379.9688 14.0625 384.1875 Q12.9375 388.4062 11.6719 392.9062 Q10.4062 397.4062 9.2812 400.6406 Q8.1562 403.875 7.3125 403.875 Q5.625 403.875 4.0781 401.4844 Q2.5312 399.0938 2.5312 394.0312 Q2.5312 385.5938 4.6406 375.6094 Q6.75 365.625 10.5469 355.6406 Q14.3438 345.6562 19.8281 336.375 Q25.3125 327.0938 32.3438 319.7812 Q37.6875 313.875 43.1719 310.5 Q48.6562 307.125 54.7031 305.4375 Q60.75 303.75 67.3594 303.1875 Q73.9688 302.625 81.5625 302.625 Q89.7188 302.625 96.1875 303.75 Q102.6562 304.875 109.125 306.8438 L108.2812 302.625 Q107.1562 297.5625 105.3281 292.5 Q103.5 287.4375 100.5469 283.5 Q97.5938 279.5625 93.6562 276.8906 Q89.7188 274.2188 84.6562 273.9375 L44.1562 273.9375 Q34.5938 273.9375 34.5938 271.9688 Q34.5938 271.4062 35.0156 270.5625 Q35.4375 269.7188 36 268.875 L49.5 248.625 L124.3125 248.625 Z" stroke="none">
			</path>
		</g>
	</g>
</svg>
