<?xml version="1.0" encoding="UTF-8"?>
<svg fill-opacity="1" color-rendering="auto" color-interpolation="auto" stroke="black" text-rendering="auto" stroke-linecap="square" stroke-miterlimit="10" stroke-opacity="1" shape-rendering="auto" fill="black" stroke-dasharray="none" font-weight="normal" stroke-width="1" font-family="'Dialog'" font-style="normal" stroke-linejoin="miter" font-size="12" stroke-dashoffset="0" image-rendering="auto" preserveAspectRatio="xMidYMid meet" zoomAndPan="magnify" version="1.0" contentScriptType="text/ecmascript" contentStyleType="text/css" xmlns:xlink="http://www.w3.org/1999/xlink" xmlns="http://www.w3.org/2000/svg">
	<COMMENT>Unicode Character 'TIBETAN LETTER SA' (U+0F66)</COMMENT>
	<defs id="genericDefs">
	</defs>
	<g transform="scale(0.3)">
		<g>
			<path d="M0.2812 333.8438 Q1.6875 324.5625 5.2031 318.9375 Q8.7188 313.3125 12.0938 310.2188 Q12.375 305.7188 14.2031 300.9375 Q16.0312 296.1562 18.5625 291.375 Q21.0938 286.5938 24.0469 282.0938 Q27 277.5938 29.5312 273.9375 L22.5 273.9375 Q12.9375 273.9375 12.9375 271.9688 Q12.9375 271.4062 13.3594 270.5625 Q13.7812 269.7188 14.3438 268.875 L27.8438 248.625 L90 248.625 Q90.5625 248.625 90.8438 249.3281 Q91.125 250.0312 91.125 250.5938 Q91.125 255.6562 88.875 259.4531 Q86.625 263.25 83.1094 265.9219 Q79.5938 268.5938 75.5156 270.2812 Q71.4375 271.9688 67.7812 272.8125 L72 277.3125 Q83.8125 289.9688 91.125 300.9375 Q98.4375 311.9062 103.5 321.6094 Q108.5625 331.3125 112.5 339.75 Q116.4375 348.1875 121.5 355.5 L129.9375 368.1562 L129.9375 360 Q129.9375 349.5938 128.3906 337.2188 Q126.8438 324.8438 125.1562 313.3125 Q124.3125 307.9688 123.0469 301.2188 Q121.7812 294.4688 120.375 288.4219 Q118.9688 282.375 117.4219 278.1562 Q115.875 273.9375 114.75 273.9375 Q113.3438 273.9375 112.0781 274.7812 Q110.8125 275.625 110.25 275.625 Q109.4062 275.625 108.4219 275.2031 Q107.4375 274.7812 107.4375 273.6562 Q107.4375 272.5312 108.2812 271.6875 Q109.125 270.8438 109.6875 270.2812 L128.5312 251.4375 Q130.2188 249.75 131.7656 249.1875 Q133.3125 248.625 134.1562 248.625 L146.8125 248.625 Q149.625 248.625 149.625 251.4375 Q149.625 253.4062 148.9219 253.9688 Q148.2188 254.5312 147.9375 255.6562 Q146.5312 259.875 144.8438 264.375 Q143.1562 268.875 141.75 273.9375 Q140.3438 279.5625 139.3594 285.75 Q138.375 291.9375 138.375 298.9688 L138.375 376.875 Q138.6562 377.4375 138.9375 378 Q139.2188 378.5625 139.2188 379.125 Q139.2188 380.8125 137.8125 382.2188 Q136.4062 383.625 135 383.625 Q133.0312 383.625 129.9375 380.8125 Q110.5312 358.875 96.4688 342.2812 Q82.4062 325.6875 72.1406 313.875 Q61.875 302.0625 54.4219 294.6094 Q46.9688 287.1562 40.5 283.7812 Q37.9688 285.4688 34.7344 288.1406 Q31.5 290.8125 28.5469 294.0469 Q25.5938 297.2812 23.2031 300.9375 Q20.8125 304.5938 19.9688 307.9688 Q31.2188 309.0938 41.3438 316.4062 Q51.4688 323.7188 59.2031 332.8594 Q66.9375 342 71.4375 350.2969 Q75.9375 358.5938 75.9375 361.9688 Q75.9375 363.375 75.0938 363.375 Q73.125 363.375 72.1406 362.3906 Q71.1562 361.4062 69.4688 360 Q63.5625 355.2188 56.6719 350.2969 Q49.7812 345.375 42.4688 341.4375 Q35.1562 337.5 27.2812 334.9688 Q19.4062 332.4375 11.25 332.4375 Q8.4375 332.4375 5.7656 332.7188 Q3.0938 333 0.2812 333.8438 Z" stroke="none">
			</path>
		</g>
	</g>
</svg>
