<?xml version="1.0" encoding="UTF-8"?>
<svg fill-opacity="1" color-rendering="auto" color-interpolation="auto" stroke="black" text-rendering="auto" stroke-linecap="square" stroke-miterlimit="10" stroke-opacity="1" shape-rendering="auto" fill="black" stroke-dasharray="none" font-weight="normal" stroke-width="1" font-family="'Dialog'" font-style="normal" stroke-linejoin="miter" font-size="12" stroke-dashoffset="0" image-rendering="auto" preserveAspectRatio="xMidYMid meet" zoomAndPan="magnify" version="1.0" contentScriptType="text/ecmascript" contentStyleType="text/css" xmlns:xlink="http://www.w3.org/1999/xlink" xmlns="http://www.w3.org/2000/svg">
	<COMMENT>Unicode Character 'TIBETAN LETTER DHA' (U+0F52)</COMMENT>
	<defs id="genericDefs">
	</defs>
	<g transform="scale(0.3)">
		<g>
			<path d="M100.6875 360 Q101.25 360 101.5312 360.7031 Q101.8125 361.4062 101.8125 361.9688 Q101.8125 368.4375 97.875 372.5156 Q93.9375 376.5938 88.875 379.125 Q83.8125 381.6562 78.75 382.6406 Q73.6875 383.625 71.4375 383.625 Q65.5312 383.625 59.625 385.4531 Q53.7188 387.2812 48.0938 390.2344 Q42.4688 393.1875 37.5469 396.7031 Q32.625 400.2188 28.9688 403.875 L22.5 409.2188 L24.4688 409.2188 Q32.9062 409.2188 38.8125 414.2812 Q44.7188 419.3438 50.625 426.375 Q51.75 420.4688 55.2656 415.125 Q58.7812 409.7812 63.4219 405.7031 Q68.0625 401.625 73.4062 399.375 Q78.75 397.125 83.5312 397.125 Q100.6875 397.125 109.4062 407.6719 Q118.125 418.2188 118.125 435.9375 Q118.125 444.6562 115.0312 451.9688 Q111.9375 459.2812 107.0156 465.3281 Q102.0938 471.375 96.3281 476.1562 Q90.5625 480.9375 85.5 484.875 Q85.2188 485.1562 83.5312 486.5625 Q81.8438 487.9688 79.5938 489.6562 Q77.3438 491.3438 75.0938 492.6094 Q72.8438 493.875 72 493.875 Q68.625 493.875 68.625 491.0625 Q68.625 490.2188 69.8906 488.9531 Q71.1562 487.6875 72.7031 486.2812 Q74.25 484.875 75.7969 483.6094 Q77.3438 482.3438 77.9062 481.7812 Q87.75 472.5 93.5156 464.4844 Q99.2812 456.4688 99.2812 444.6562 Q99.2812 432 94.2188 425.25 Q89.1562 418.5 74.8125 418.5 Q70.0312 418.5 64.6875 422.2969 Q59.3438 426.0938 56.8125 430.0312 Q57.9375 432.2812 59.625 435.375 Q61.0312 437.9062 63.1406 441.7031 Q65.25 445.5 68.3438 450.5625 Q70.5938 454.2188 70.5938 456.1875 Q70.5938 457.5938 69.1875 457.5938 Q67.2188 457.5938 65.9531 456.4688 Q64.6875 455.3438 64.125 454.5 Q59.9062 450.2812 54.7031 446.3438 Q49.5 442.4062 44.0156 439.3125 Q38.5312 436.2188 32.9062 434.3906 Q27.2812 432.5625 21.9375 432.5625 Q15.4688 432.5625 10.2656 433.4062 Q5.0625 434.25 1.9688 435.6562 Q3.375 429.75 5.7656 422.8594 Q8.1562 415.9688 12.9375 410.625 L18.8438 403.875 Q21.9375 400.2188 25.7344 395.7188 Q29.5312 391.2188 33.4688 388.125 Q33.4688 386.7188 30.375 386.0156 Q27.2812 385.3125 24.1875 385.3125 Q14.625 385.3125 14.625 383.3438 Q14.625 382.7812 15.0469 381.9375 Q15.4688 381.0938 16.0312 380.25 L29.5312 360 L100.6875 360 ZM94.7812 248.625 Q95.3438 248.625 95.625 249.3281 Q95.9062 250.0312 95.9062 250.5938 Q95.9062 257.625 91.4062 261.9844 Q86.9062 266.3438 81 268.875 Q75.0938 271.4062 69.4688 272.3906 Q63.8438 273.375 61.5938 273.6562 Q52.5938 274.5 46.4062 277.875 Q40.2188 281.25 36.1406 285.4688 Q32.0625 289.6875 29.9531 294.1875 Q27.8438 298.6875 26.7188 302.0625 Q28.9688 300.9375 32.7656 300.0938 Q36.5625 299.25 38.8125 299.25 Q54.8438 299.25 69.8906 301.2188 Q84.9375 303.1875 95.9062 311.625 Q111.0938 322.875 119.1094 344.25 Q127.125 365.625 131.0625 396 Q131.9062 402.4688 132.6094 407.8125 Q133.3125 413.1562 133.3125 414.5625 Q133.3125 415.6875 132.0469 416.5312 Q130.7812 417.375 129.9375 417.375 Q128.5312 417.375 127.2656 416.25 Q126 415.125 125.7188 414 L122.0625 396.2812 Q120.0938 386.7188 117 379.4062 Q113.9062 372.0938 110.8125 364.5 Q106.3125 355.7812 101.1094 348.6094 Q95.9062 341.4375 89.4375 336.0938 Q79.875 328.5 66.9375 326.25 Q54 324 41.3438 324 Q37.9688 324 33.1875 324.7031 Q28.4062 325.4062 23.3438 326.25 Q18.2812 327.0938 13.3594 328.0781 Q8.4375 329.0625 4.7812 329.625 Q3.375 329.625 3.375 328.2188 Q3.375 326.5312 4.6406 323.8594 Q5.9062 321.1875 7.7344 317.9531 Q9.5625 314.7188 12.0938 311.4844 Q14.625 308.25 17.1562 305.7188 Q19.4062 299.25 22.5 290.8125 Q25.5938 282.375 28.6875 276.1875 Q28.6875 274.5 26.4375 273.9375 L21.375 273.9375 Q11.8125 273.9375 11.8125 271.9688 Q11.8125 271.4062 12.2344 270.5625 Q12.6562 269.7188 13.2188 268.875 L26.7188 248.625 L94.7812 248.625 Z" stroke="none">
			</path>
		</g>
	</g>
</svg>
