<?xml version="1.0" encoding="UTF-8"?>
<svg fill-opacity="1" color-rendering="auto" color-interpolation="auto" stroke="black" text-rendering="auto" stroke-linecap="square" stroke-miterlimit="10" stroke-opacity="1" shape-rendering="auto" fill="black" stroke-dasharray="none" font-weight="normal" stroke-width="1" font-family="'Dialog'" font-style="normal" stroke-linejoin="miter" font-size="12" stroke-dashoffset="0" image-rendering="auto" preserveAspectRatio="xMidYMid meet" zoomAndPan="magnify" version="1.0" contentScriptType="text/ecmascript" contentStyleType="text/css" xmlns:xlink="http://www.w3.org/1999/xlink" xmlns="http://www.w3.org/2000/svg">
	<COMMENT>Unicode Character 'TIBETAN LETTER SSA' (U+0F65)</COMMENT>
	<defs id="genericDefs">
	</defs>
	<g transform="scale(0.3)">
		<g>
			<path d="M23.0625 474.75 Q23.0625 475.875 22.2188 477 Q21.375 478.125 20.5312 478.125 Q19.6875 478.125 18.5625 477 Q17.4375 475.875 17.4375 474.75 L11.8125 308.5312 Q11.25 295.875 14.3438 284.9062 Q17.4375 273.9375 24.1875 265.9219 Q30.9375 257.9062 41.4844 253.2656 Q52.0312 248.625 66.9375 248.625 Q72 248.625 79.3125 251.8594 Q86.625 255.0938 93.375 260.4375 Q100.125 265.7812 104.9062 272.5312 Q109.6875 279.2812 109.6875 286.0312 Q109.6875 302.0625 105.75 317.25 Q101.8125 332.4375 96.1875 347.0625 Q98.1562 346.7812 99.8438 346.6406 Q101.5312 346.5 103.2188 346.5 Q112.5 346.5 119.1094 349.5938 Q125.7188 352.6875 129.7969 358.1719 Q133.875 363.6562 135.8438 370.8281 Q137.8125 378 137.8125 385.875 Q137.8125 386.4375 137.6719 388.2656 Q137.5312 390.0938 137.25 392.0625 Q136.9688 394.0312 136.4062 395.5781 Q135.8438 397.125 135 397.125 Q134.1562 397.125 133.0312 396 Q131.9062 394.875 130.9219 393.4688 Q129.9375 392.0625 129.0938 390.5156 Q128.25 388.9688 127.6875 388.4062 Q124.3125 384.1875 121.5 381.0938 Q118.6875 378 115.0312 375.8906 Q111.375 373.7812 106.5938 372.7969 Q101.8125 371.8125 94.2188 371.8125 Q92.25 371.8125 88.7344 372.2344 Q85.2188 372.6562 81.5625 373.3594 Q77.9062 374.0625 75.2344 374.4844 Q72.5625 374.9062 72.2812 374.9062 Q70.875 374.9062 70.875 373.5 Q70.875 372.375 72.5625 368.8594 Q74.25 365.3438 76.7812 361.4062 Q79.3125 357.4688 82.2656 354.0938 Q85.2188 350.7188 87.4688 349.5938 Q87.75 349.3125 88.7344 346.2188 Q89.7188 343.125 90.7031 339.1875 Q91.6875 335.25 92.6719 331.0312 Q93.6562 326.8125 94.2188 324.2812 Q88.5938 331.875 79.1719 335.9531 Q69.75 340.0312 59.3438 340.0312 Q55.9688 340.0312 51.8906 338.3438 Q47.8125 336.6562 43.7344 334.125 Q39.6562 331.5938 36.1406 328.5 Q32.625 325.4062 30.0938 322.875 L26.4375 407.25 L23.0625 474.75 ZM52.875 273.9375 Q47.8125 273.9375 43.4531 276.0469 Q39.0938 278.1562 36 281.3906 Q32.9062 284.625 31.0781 288.2812 Q29.25 291.9375 29.25 295.3125 Q29.25 301.7812 32.2031 306.8438 Q35.1562 311.9062 40.0781 315.5625 Q45 319.2188 51.6094 321.1875 Q58.2188 323.1562 65.5312 323.1562 Q70.5938 323.1562 74.9531 320.9062 Q79.3125 318.6562 82.5469 315 Q85.7812 311.3438 87.6094 306.7031 Q89.4375 302.0625 89.4375 297.2812 Q89.4375 291.6562 86.3438 287.2969 Q83.25 282.9375 78.1875 279.9844 Q73.125 277.0312 66.5156 275.4844 Q59.9062 273.9375 52.875 273.9375 Z" stroke="none">
			</path>
		</g>
	</g>
</svg>
