<?xml version="1.0" encoding="UTF-8"?>
<svg fill-opacity="1" color-rendering="auto" color-interpolation="auto" stroke="black" text-rendering="auto" stroke-linecap="square" stroke-miterlimit="10" stroke-opacity="1" shape-rendering="auto" fill="black" stroke-dasharray="none" font-weight="normal" stroke-width="1" font-family="'Dialog'" font-style="normal" stroke-linejoin="miter" font-size="12" stroke-dashoffset="0" image-rendering="auto" preserveAspectRatio="xMidYMid meet" zoomAndPan="magnify" version="1.0" contentScriptType="text/ecmascript" contentStyleType="text/css" xmlns:xlink="http://www.w3.org/1999/xlink" xmlns="http://www.w3.org/2000/svg">
	<COMMENT>Unicode Character 'TIBETAN LETTER THA' (U+0F50)</COMMENT>
	<defs id="genericDefs">
	</defs>
	<g transform="scale(0.3)">
		<g>
			<path d="M13.5 289.4062 Q13.5 286.0312 14.3438 282.7969 Q15.1875 279.5625 18.4219 275.2031 Q21.6562 270.8438 27.9844 264.5156 Q34.3125 258.1875 45.5625 248.625 L114.1875 248.625 Q115.875 248.625 116.2969 249.0469 Q116.7188 249.4688 116.7188 250.0312 Q116.7188 251.7188 116.1562 252.8438 Q115.5938 253.9688 115.3125 255.375 Q114.75 257.625 114.0469 262.4062 Q113.3438 267.1875 112.7812 273.9375 Q112.2188 282.0938 111.375 292.5 Q110.5312 302.9062 109.8281 314.0156 Q109.125 325.125 108.5625 336.2344 Q108 347.3438 108 357.4688 L108 386.1562 Q108 387.5625 108.4219 388.8281 Q108.8438 390.0938 108.8438 391.5 Q108.8438 392.9062 106.7344 394.1719 Q104.625 395.4375 102.9375 395.4375 Q101.25 395.4375 94.9219 391.2188 Q88.5938 387 77.3438 381.9375 Q66.0938 376.875 50.0625 372.6562 Q34.0312 368.4375 12.9375 368.4375 Q9.8438 368.4375 6.6094 369.7031 Q3.375 370.9688 1.6875 370.9688 Q-1.6875 370.9688 -1.6875 368.4375 Q-1.6875 366.1875 3.5156 359.2969 Q8.7188 352.4062 16.5938 344.5312 L34.5938 326.5312 Q29.5312 324.5625 25.5938 320.625 Q21.6562 316.6875 18.9844 311.625 Q16.3125 306.5625 14.9062 300.7969 Q13.5 295.0312 13.5 289.4062 ZM80.1562 314.4375 Q64.9688 319.5 53.5781 327.2344 Q42.1875 334.9688 29.8125 343.4062 Q32.0625 343.125 34.3125 342.8438 Q36.5625 342.5625 38.8125 342.5625 Q48.375 342.5625 56.25 345.7969 Q64.125 349.0312 70.4531 353.8125 Q76.7812 358.5938 81.9844 363.9375 Q87.1875 369.2812 91.6875 373.5 L99.8438 381.0938 L99.8438 373.5 Q99.8438 369.5625 99 362.25 Q98.1562 354.9375 97.1719 346.0781 Q96.1875 337.2188 94.9219 327.7969 Q93.6562 318.375 92.8125 309.9375 L80.1562 314.4375 ZM56.25 273.9375 Q47.25 273.9375 41.3438 274.3594 Q35.4375 274.7812 31.9219 276.0469 Q28.4062 277.3125 27 279.4219 Q25.5938 281.5312 25.5938 285.1875 Q25.5938 291.6562 28.6875 295.875 Q31.7812 300.0938 36.5625 302.7656 Q41.3438 305.4375 47.3906 306.5625 Q53.4375 307.6875 59.0625 307.6875 Q63 307.6875 66.9375 306.4219 Q70.875 305.1562 74.8125 304.3125 L91.4062 300.375 L88.5938 273.9375 L56.25 273.9375 Z" stroke="none">
			</path>
		</g>
	</g>
</svg>
