<?xml version="1.0" encoding="UTF-8"?>
<svg fill-opacity="1" color-rendering="auto" color-interpolation="auto" stroke="black" text-rendering="auto" stroke-linecap="square" stroke-miterlimit="10" stroke-opacity="1" shape-rendering="auto" fill="black" stroke-dasharray="none" font-weight="normal" stroke-width="1" font-family="'Dialog'" font-style="normal" stroke-linejoin="miter" font-size="12" stroke-dashoffset="0" image-rendering="auto" preserveAspectRatio="xMidYMid meet" zoomAndPan="magnify" version="1.0" contentScriptType="text/ecmascript" contentStyleType="text/css" xmlns:xlink="http://www.w3.org/1999/xlink" xmlns="http://www.w3.org/2000/svg">
	<COMMENT>Unicode Character 'TIBETAN LETTER BA' (U+0F56)</COMMENT>
	<defs id="genericDefs">
	</defs>
	<g transform="scale(0.3)">
		<g>
			<path d="M124.875 248.625 Q127.6875 248.625 127.6875 251.4375 Q127.6875 253.4062 126.9844 253.9688 Q126.2812 254.5312 126 255.6562 Q124.5938 259.875 122.9062 264.375 Q121.2188 268.875 119.8125 273.9375 Q118.4062 279.5625 117.4219 285.75 Q116.4375 291.9375 116.4375 298.9688 L116.4375 373.2188 Q117.2812 375.75 117.2812 378.8438 Q117.2812 380.5312 116.1562 382.0781 Q115.0312 383.625 113.0625 383.625 Q110.8125 383.625 108 380.5312 Q104.9062 376.875 98.0156 369.5625 Q91.125 362.25 81.1406 354.7969 Q71.1562 347.3438 58.6406 341.8594 Q46.125 336.375 31.5 336.375 Q25.5938 336.375 21.375 336.9375 Q17.1562 337.5 13.7812 338.3438 Q10.4062 339.1875 7.4531 340.1719 Q4.5 341.1562 1.6875 342 Q5.3438 330.1875 7.4531 325.125 Q9.5625 320.0625 13.5 316.9688 Q13.5 304.5938 15.1875 294.6094 Q16.875 284.625 21.9375 277.3125 Q22.7812 276.1875 22.7812 275.3438 Q21.9375 273.9375 20.25 273.9375 L16.875 273.9375 Q7.5938 273.9375 7.5938 271.9688 Q7.5938 271.4062 8.0156 270.5625 Q8.4375 269.7188 9 268.875 L22.5 248.625 L124.875 248.625 ZM103.2188 313.3125 Q102.375 308.25 101.25 301.5 Q100.125 294.75 98.5781 288.5625 Q97.0312 282.375 95.2031 278.1562 Q93.375 273.9375 91.4062 273.9375 L47.5312 273.9375 Q44.1562 276.1875 39.6562 280.2656 Q35.1562 284.3438 31.3594 289.6875 Q27.5625 295.0312 24.8906 301.0781 Q22.2188 307.125 22.2188 313.3125 Q24.4688 312.4688 26.2969 311.7656 Q28.125 311.0625 31.5 311.0625 Q48.375 311.0625 59.2031 315.8438 Q70.0312 320.625 77.2031 327.375 Q84.375 334.125 89.0156 341.4375 Q93.6562 348.75 97.5938 353.8125 L108 367.0312 L108 360 Q108 349.5938 106.4531 337.2188 Q104.9062 324.8438 103.2188 313.3125 Z" stroke="none">
			</path>
		</g>
	</g>
</svg>
