<?xml version="1.0" encoding="UTF-8"?>
<svg fill-opacity="1" color-rendering="auto" color-interpolation="auto" stroke="black" text-rendering="auto" stroke-linecap="square" stroke-miterlimit="10" stroke-opacity="1" shape-rendering="auto" fill="black" stroke-dasharray="none" font-weight="normal" stroke-width="1" font-family="'Dialog'" font-style="normal" stroke-linejoin="miter" font-size="12" stroke-dashoffset="0" image-rendering="auto" preserveAspectRatio="xMidYMid meet" zoomAndPan="magnify" version="1.0" contentScriptType="text/ecmascript" contentStyleType="text/css" xmlns:xlink="http://www.w3.org/1999/xlink" xmlns="http://www.w3.org/2000/svg">
	<COMMENT>Unicode Character 'TIBETAN LETTER KHA' (U+0F41)</COMMENT>
	<defs id="genericDefs">
	</defs>
	<g transform="scale(0.3)">
		<g>
			<path d="M102.9375 273.9375 Q97.3125 273.9375 91.2656 277.875 Q85.2188 281.8125 80.0156 288 Q74.8125 294.1875 71.0156 301.3594 Q67.2188 308.5312 66.0938 314.7188 Q72 312.4688 76.7812 312.4688 Q85.5 312.4688 92.5312 316.2656 Q99.5625 320.0625 104.9062 325.4062 Q110.25 330.75 114.1875 336.375 Q118.125 342 121.2188 345.6562 L129.9375 356.625 L129.9375 348.1875 Q129.9375 335.5312 129.0938 324.8438 Q128.25 314.1562 126.5625 305.1562 Q124.875 296.1562 122.4844 288.5625 Q120.0938 280.9688 117.2812 273.9375 L102.9375 273.9375 ZM146.5312 248.625 Q149.9062 248.625 149.9062 250.5938 Q149.9062 252.2812 149.2031 253.4062 Q148.5 254.5312 147.9375 255.375 Q146.25 259.5938 144.2812 264.2344 Q142.3125 268.875 140.9062 273.9375 Q139.5 279.5625 138.9375 285.8906 Q138.375 292.2188 138.375 298.9688 L138.375 365.0625 Q139.2188 366.75 139.7812 368.8594 Q140.3438 370.9688 140.3438 371.8125 Q140.3438 373.5 138.375 373.5 Q135.5625 373.5 133.4531 371.9531 Q131.3438 370.4062 129.9375 368.7188 Q124.5938 363.375 118.4062 357.75 Q112.2188 352.125 105.0469 347.7656 Q97.875 343.4062 89.5781 340.5938 Q81.2812 337.7812 71.1562 337.7812 Q65.5312 337.7812 60.3281 338.9062 Q55.125 340.0312 48.6562 342.2812 Q50.9062 328.7812 53.5781 323.8594 Q56.25 318.9375 57.375 317.8125 Q58.5 311.0625 61.0312 303.6094 Q63.5625 296.1562 66.0938 289.8281 Q68.625 283.5 70.7344 279.1406 Q72.8438 274.7812 73.125 273.9375 L40.2188 273.9375 Q37.6875 273.9375 36 275.7656 Q34.3125 277.5938 33.1875 280.125 Q32.0625 282.6562 31.3594 285.3281 Q30.6562 288 30.375 289.4062 Q27.8438 300.6562 25.7344 310.2188 Q23.625 319.7812 22.0781 329.3438 Q20.5312 338.9062 19.5469 349.0312 Q18.5625 359.1562 18.5625 371.8125 L18.5625 378.2812 Q18.5625 381.0938 17.0156 382.3594 Q15.4688 383.625 14.3438 383.625 Q12.9375 383.625 11.5312 382.3594 Q10.125 381.0938 10.125 378.2812 L10.125 294.4688 Q10.125 284.9062 13.5 276.4688 Q16.875 268.0312 21.9375 261.8438 Q27 255.6562 32.9062 252.1406 Q38.8125 248.625 43.875 248.625 L146.5312 248.625 Z" stroke="none">
			</path>
		</g>
	</g>
</svg>
