<?xml version="1.0" encoding="UTF-8"?>
<svg fill-opacity="1" color-rendering="auto" color-interpolation="auto" stroke="black" text-rendering="auto" stroke-linecap="square" stroke-miterlimit="10" stroke-opacity="1" shape-rendering="auto" fill="black" stroke-dasharray="none" font-weight="normal" stroke-width="1" font-family="'Dialog'" font-style="normal" stroke-linejoin="miter" font-size="12" stroke-dashoffset="0" image-rendering="auto" preserveAspectRatio="xMidYMid meet" zoomAndPan="magnify" version="1.0" contentScriptType="text/ecmascript" contentStyleType="text/css" xmlns:xlink="http://www.w3.org/1999/xlink" xmlns="http://www.w3.org/2000/svg">
	<COMMENT>Unicode Character 'TIBETAN LETTER PHA' (U+0F55)</COMMENT>
	<defs id="genericDefs">
	</defs>
	<g transform="scale(0.3)">
		<g>
			<path d="M73.125 248.625 Q73.6875 248.625 73.9688 249.3281 Q74.25 250.0312 74.25 250.5938 Q74.25 255.375 72.1406 259.0312 Q70.0312 262.6875 66.7969 265.3594 Q63.5625 268.0312 59.4844 269.7188 Q55.4062 271.4062 51.4688 272.25 Q48.6562 272.8125 43.7344 276.6094 Q38.8125 280.4062 34.0312 286.1719 Q29.25 291.9375 25.7344 299.1094 Q22.2188 306.2812 22.2188 313.3125 Q24.4688 312.4688 26.2969 311.7656 Q28.125 311.0625 31.5 311.0625 Q38.5312 311.0625 44.4375 312.0469 Q50.3438 313.0312 55.4062 314.4375 Q57.0938 307.6875 63.1406 301.6406 Q69.1875 295.5938 76.0781 291.0938 Q82.9688 286.5938 88.875 283.7812 Q94.7812 280.9688 96.1875 280.4062 Q94.2188 273.9375 92.8125 273.9375 Q91.4062 273.9375 90.1406 274.7812 Q88.875 275.625 88.3125 275.625 Q87.4688 275.625 86.4844 275.2031 Q85.5 274.7812 85.5 273.6562 Q85.5 272.5312 86.3438 271.6875 Q87.1875 270.8438 87.75 270.2812 L106.5938 251.4375 Q108.2812 249.75 109.8281 249.1875 Q111.375 248.625 112.2188 248.625 L124.875 248.625 Q127.6875 248.625 127.6875 251.4375 Q127.6875 253.4062 126.9844 253.9688 Q126.2812 254.5312 126 255.6562 Q124.5938 259.875 122.9062 264.375 Q121.2188 268.875 119.8125 273.9375 Q118.4062 279.5625 117.4219 285.75 Q116.4375 291.9375 116.4375 298.9688 L116.4375 373.2188 Q117.2812 375.75 117.2812 378.8438 Q117.2812 380.5312 116.1562 382.0781 Q115.0312 383.625 113.0625 383.625 Q110.8125 383.625 108 380.5312 Q104.9062 376.875 98.0156 369.5625 Q91.125 362.25 81.1406 354.7969 Q71.1562 347.3438 58.6406 341.8594 Q46.125 336.375 31.5 336.375 Q25.5938 336.375 21.375 336.9375 Q17.1562 337.5 13.7812 338.3438 Q10.4062 339.1875 7.4531 340.1719 Q4.5 341.1562 1.6875 342 Q5.3438 330.1875 7.4531 325.125 Q9.5625 320.0625 13.5 316.9688 Q13.5 304.5938 15.1875 294.6094 Q16.875 284.625 21.9375 277.3125 Q20.5312 274.2188 16.875 274.2188 Q12.0938 274.2188 9.8438 273.375 Q7.5938 272.5312 7.5938 271.9688 Q7.5938 271.4062 8.0156 270.5625 Q8.4375 269.7188 9 268.875 L22.5 248.625 L73.125 248.625 ZM99 291.6562 Q97.0312 292.2188 91.6875 294.4688 Q86.3438 296.7188 80.5781 300.375 Q74.8125 304.0312 69.8906 308.5312 Q64.9688 313.0312 64.125 318.0938 Q71.1562 321.75 76.2188 326.3906 Q81.2812 331.0312 85.0781 335.9531 Q88.875 340.875 91.8281 345.5156 Q94.7812 350.1562 97.5938 353.8125 L108 367.0312 L108 360 Q108 349.5938 106.4531 337.2188 Q104.9062 324.8438 103.2188 313.3125 Q102.6562 308.8125 101.5312 303.0469 Q100.4062 297.2812 99 291.6562 Z" stroke="none">
			</path>
		</g>
	</g>
</svg>
