<?xml version="1.0" encoding="UTF-8"?>
<svg fill-opacity="1" color-rendering="auto" color-interpolation="auto" stroke="black" text-rendering="auto" stroke-linecap="square" stroke-miterlimit="10" stroke-opacity="1" shape-rendering="auto" fill="black" stroke-dasharray="none" font-weight="normal" stroke-width="1" font-family="'Dialog'" font-style="normal" stroke-linejoin="miter" font-size="12" stroke-dashoffset="0" image-rendering="auto" preserveAspectRatio="xMidYMid meet" zoomAndPan="magnify" version="1.0" contentScriptType="text/ecmascript" contentStyleType="text/css" xmlns:xlink="http://www.w3.org/1999/xlink" xmlns="http://www.w3.org/2000/svg">
	<COMMENT>Unicode Character 'TIBETAN LETTER YA' (U+0F61)</COMMENT>
	<defs id="genericDefs">
	</defs>
	<g transform="scale(0.3)">
		<g>
			<path d="M46.4062 248.625 Q49.2188 248.625 50.0625 249.75 Q50.9062 250.875 50.9062 252.2812 Q50.9062 253.125 50.7656 253.8281 Q50.625 254.5312 50.3438 255.375 L43.0312 268.875 Q42.4688 270.2812 40.9219 271.8281 Q39.375 273.375 36.8438 273.9375 Q36.2812 278.1562 34.0312 282.375 Q31.7812 286.5938 29.3906 290.5312 Q27 294.4688 25.1719 297.9844 Q23.3438 301.5 23.3438 304.3125 Q23.3438 309.6562 24.1875 314.0156 Q25.0312 318.375 27.8438 321.6094 Q30.6562 324.8438 35.8594 326.6719 Q41.0625 328.5 49.7812 328.5 Q61.0312 328.5 66.9375 324.5625 Q72.8438 320.625 75.6562 316.4062 L75.6562 305.1562 Q75.6562 298.9688 73.9688 291.7969 Q72.2812 284.625 65.5312 273.9375 Q64.6875 272.5312 62.8594 270.5625 Q61.0312 268.5938 61.0312 266.9062 Q61.0312 265.5 62.1562 263.5312 L74.25 248.625 L97.5938 248.625 Q100.4062 248.625 101.25 249.75 Q102.0938 250.875 102.0938 252.2812 Q102.0938 253.125 101.9531 253.8281 Q101.8125 254.5312 101.5312 255.375 L94.2188 268.875 Q93.6562 270.2812 91.6875 272.1094 Q89.7188 273.9375 86.0625 273.9375 Q84.6562 277.5938 84.5156 282.2344 Q84.375 286.875 84.375 291.0938 L84.375 303.1875 Q88.875 305.7188 95.2031 312.75 Q101.5312 319.7812 108.5625 329.0625 Q115.5938 338.3438 122.7656 348.4688 Q129.9375 358.5938 136.6875 367.0312 L136.6875 360 Q136.6875 349.5938 135.1406 337.3594 Q133.5938 325.125 132.1875 313.5938 Q131.3438 308.25 130.0781 301.5 Q128.8125 294.75 127.2656 288.5625 Q125.7188 282.375 124.1719 278.1562 Q122.625 273.9375 121.5 273.9375 Q120.0938 273.9375 118.8281 274.7812 Q117.5625 275.625 117 275.625 Q116.1562 275.625 115.1719 275.2031 Q114.1875 274.7812 114.1875 273.6562 Q114.1875 272.5312 115.0312 271.6875 Q115.875 270.8438 116.4375 270.2812 L135.2812 251.4375 Q136.9688 249.75 138.5156 249.1875 Q140.0625 248.625 140.9062 248.625 L153.5625 248.625 Q156.375 248.625 156.375 251.4375 Q156.375 253.4062 155.6719 253.9688 Q154.9688 254.5312 154.6875 255.6562 Q153.2812 259.875 151.5938 264.375 Q149.9062 268.875 148.5 273.9375 Q147.0938 279.5625 146.1094 285.75 Q145.125 291.9375 145.125 298.9688 L145.125 376.875 Q145.9688 377.7188 145.9688 379.125 Q145.9688 380.8125 144.8438 382.2188 Q143.7188 383.625 142.3125 383.625 Q140.9062 383.625 139.6406 382.5 Q138.375 381.375 136.6875 379.9688 L79.3125 331.5938 Q77.9062 334.125 74.25 337.7812 Q70.5938 341.4375 65.5312 344.8125 Q60.4688 348.1875 54.4219 350.5781 Q48.375 352.9688 42.4688 352.9688 Q32.3438 352.9688 25.7344 349.3125 Q19.125 345.6562 15.0469 340.3125 Q10.9688 334.9688 9.2812 329.0625 Q7.5938 323.1562 7.5938 318.9375 Q7.5938 311.0625 10.2656 304.1719 Q12.9375 297.2812 16.1719 292.0781 Q19.4062 286.875 22.2188 283.6406 Q25.0312 280.4062 25.5938 279.2812 Q26.4375 278.1562 26.4375 276.75 Q26.4375 273.9375 23.9062 273.9375 L20.25 273.9375 Q10.9688 273.9375 10.9688 271.9688 Q10.9688 271.4062 11.3906 270.5625 Q11.8125 269.7188 12.375 268.875 L25.875 248.625 L46.4062 248.625 Z" stroke="none">
			</path>
		</g>
	</g>
</svg>
