<?xml version="1.0" encoding="UTF-8"?>
<svg fill-opacity="1" color-rendering="auto" color-interpolation="auto" stroke="black" text-rendering="auto" stroke-linecap="square" stroke-miterlimit="10" stroke-opacity="1" shape-rendering="auto" fill="black" stroke-dasharray="none" font-weight="normal" stroke-width="1" font-family="'Dialog'" font-style="normal" stroke-linejoin="miter" font-size="12" stroke-dashoffset="0" image-rendering="auto" preserveAspectRatio="xMidYMid meet" zoomAndPan="magnify" version="1.0" contentScriptType="text/ecmascript" contentStyleType="text/css" xmlns:xlink="http://www.w3.org/1999/xlink" xmlns="http://www.w3.org/2000/svg">
	<COMMENT>Unicode Character 'TIBETAN SYLLABLE OM' (U+0F00)</COMMENT>
	<defs id="genericDefs">
	</defs>
	<g transform="scale(0.3)">
		<g>
			<path d="M128.7188 248.625 Q129.2812 248.625 129.5625 249.3281 Q129.8438 250.0312 129.8438 250.5938 Q129.8438 259.5938 123.7969 264.5156 Q117.75 269.4375 111.2812 271.6875 L112.6875 273.375 Q122.25 284.9062 127.3125 295.7344 Q132.375 306.5625 135.8906 317.6719 Q139.4062 328.7812 143.0625 340.5938 Q146.7188 352.4062 153.4688 365.3438 L161.625 381.375 L161.625 364.2188 Q161.625 353.8125 160.0781 341.4375 Q158.5312 329.0625 156.8438 317.5312 Q156 312.1875 154.7344 304.7344 Q153.4688 297.2812 152.0625 290.3906 Q150.6562 283.5 149.1094 278.7188 Q147.5625 273.9375 146.4375 273.9375 Q145.0312 273.9375 143.7656 274.7812 Q142.5 275.625 141.9375 275.625 Q141.0938 275.625 140.1094 275.2031 Q139.125 274.7812 139.125 273.6562 Q139.125 272.5312 139.9688 271.6875 Q140.8125 270.8438 141.375 270.2812 L160.2188 251.4375 Q161.9062 249.75 163.4531 249.1875 Q165 248.625 165.8438 248.625 L178.5 248.625 Q181.3125 248.625 181.3125 251.4375 Q181.3125 253.4062 180.6094 253.9688 Q179.9062 254.5312 179.625 255.6562 Q178.2188 259.875 176.5312 264.375 Q174.8438 268.875 173.4375 273.9375 Q172.0312 279.5625 171.0469 285.75 Q170.0625 291.9375 170.0625 298.9688 L170.0625 393.4688 Q170.9062 395.7188 170.9062 397.125 Q170.9062 398.25 169.5 398.9531 Q168.0938 399.6562 167.25 399.6562 Q164.1562 399.6562 161.625 397.125 Q161.0625 396.5625 156.2812 388.6875 Q151.5 380.8125 144.3281 369.1406 Q137.1562 357.4688 128.4375 343.6875 Q119.7188 329.9062 111.2812 317.25 Q102.8438 304.5938 95.5312 294.75 Q88.2188 284.9062 84 281.5312 Q82.0312 283.7812 79.3594 286.875 Q76.6875 289.9688 74.0156 293.2031 Q71.3438 296.4375 69.2344 299.5312 Q67.125 302.625 66.2812 304.5938 Q69.0938 304.0312 70.5 304.0312 Q76.125 304.0312 81.6094 306.4219 Q87.0938 308.8125 91.3125 312.8906 Q95.5312 316.9688 98.2031 322.5938 Q100.875 328.2188 100.875 334.6875 Q100.875 340.0312 98.2031 348.3281 Q95.5312 356.625 89.9062 364.5 Q84.2812 372.375 75.8438 378 Q67.4062 383.625 55.5938 383.625 Q47.1562 383.625 38.5781 379.4062 Q30 375.1875 23.1094 367.4531 Q16.2188 359.7188 12 348.8906 Q7.7812 338.0625 7.7812 324.5625 Q7.7812 316.4062 9.8906 306.8438 Q12 297.2812 15.375 287.4375 Q15.9375 286.0312 16.9219 283.6406 Q17.9062 281.25 17.9062 279 Q17.9062 276.75 16.9219 275.3438 Q15.9375 273.9375 13.9688 273.9375 Q12.5625 273.9375 11.7188 274.7812 Q10.875 275.625 10.3125 275.625 Q9.4688 275.625 8.3438 275.0625 Q7.2188 274.5 7.2188 273.0938 Q7.2188 272.5312 8.2031 271.5469 Q9.1875 270.5625 9.75 269.4375 L22.125 251.7188 Q24.9375 248.625 27.1875 248.625 L55.3125 248.625 Q55.875 248.625 56.1562 249.3281 Q56.4375 250.0312 56.4375 250.5938 Q56.4375 258.75 51.5156 263.1094 Q46.5938 267.4688 39.2812 271.125 Q35.0625 274.2188 31.5469 279.5625 Q28.0312 284.9062 25.7812 291.2344 Q23.5312 297.5625 22.2656 304.5938 Q21 311.625 21 317.8125 Q21 325.9688 22.9688 333.7031 Q24.9375 341.4375 30 347.7656 Q35.0625 354.0938 43.7812 357.8906 Q52.5 361.6875 65.7188 361.6875 Q69.0938 361.6875 73.1719 360.8438 Q77.25 360 80.7656 358.1719 Q84.2812 356.3438 86.8125 353.5312 Q89.3438 350.7188 89.3438 346.7812 Q89.3438 339.75 80.625 334.6875 Q71.9062 329.625 54.1875 329.625 Q51.0938 329.625 48 330.3281 Q44.9062 331.0312 41.5312 332.1562 Q42.6562 328.2188 44.2031 324.1406 Q45.75 320.0625 47.5781 316.2656 Q49.4062 312.4688 51.9375 309.5156 Q54.4688 306.5625 57.8438 304.875 Q60.375 296.7188 63.8906 288.9844 Q67.4062 281.25 72.4688 273.9375 L69.6562 273.9375 Q60.0938 273.9375 60.0938 271.9688 Q60.0938 271.4062 60.5156 270.5625 Q60.9375 269.7188 61.5 268.875 L74.7188 248.625 L128.7188 248.625 ZM93.5 221.0625 Q93.5 217.125 95.1875 211.9219 Q96.875 206.7188 99.6875 201.6562 Q102.5 196.5938 105.7344 192.375 Q108.9688 188.1562 112.3438 186.4688 Q118.5312 183.0938 128.2344 180.1406 Q137.9375 177.1875 149.1875 174.5156 Q160.4375 171.8438 172.3906 168.8906 Q184.3438 165.9375 195.3125 162.2812 Q197.8438 161.4375 200.5156 159.75 Q203.1875 158.0625 205.7188 156.375 Q208.25 154.6875 210.3594 153.4219 Q212.4688 152.1562 213.3125 152.1562 Q215 152.1562 215 154.125 Q215 159.1875 209.0938 165.0938 Q203.1875 171 194.6094 176.7656 Q186.0312 182.5312 176.3281 187.3125 Q166.625 192.0938 159.0312 194.625 Q151.1562 197.1562 140.8906 198.4219 Q130.625 199.6875 121.4844 202.0781 Q112.3438 204.4688 106.0156 208.9688 Q99.6875 213.4688 99.6875 222.4688 Q99.6875 224.7188 99.9688 228.375 Q100.25 232.0312 100.5312 235.125 Q100.5312 236.25 100.9531 237.2344 Q101.375 238.2188 101.375 238.7812 Q101.375 242.1562 96.5938 242.1562 Q95.1875 242.1562 93.5 240.75 Q91.8125 239.3438 89.8438 237.375 Q87.875 235.4062 86.1875 233.4375 Q84.5 231.4688 83.375 230.3438 Q78.3125 225.2812 72.125 219.6562 Q65.9375 214.0312 59.0469 209.25 Q52.1562 204.4688 44.7031 201.2344 Q37.25 198 30.2188 198 Q28.25 198 26.1406 199.2656 Q24.0312 200.5312 23.4688 200.5312 Q22.3438 200.5312 21.7812 199.6875 Q21.2188 198.8438 21.2188 198 Q21.2188 196.875 22.9062 192.7969 Q24.5938 188.7188 27.2656 184.2188 Q29.9375 179.7188 33.3125 176.2031 Q36.6875 172.6875 39.7812 172.6875 Q46.8125 172.6875 53.2812 176.9062 Q59.75 181.125 65.5156 187.4531 Q71.2812 193.7812 76.2031 201.2344 Q81.125 208.6875 85.0625 215.1562 L93.5 229.2188 L93.5 221.0625 ZM93.2188 118.9688 Q97.4375 118.9688 102.2188 120.5156 Q107 122.0625 111.2188 125.0156 Q115.4375 127.9688 118.25 132.4688 Q121.0625 136.9688 121.0625 142.875 Q121.0625 147.0938 119.0938 153 Q117.125 158.9062 113.4688 164.3906 Q109.8125 169.875 104.6094 173.6719 Q99.4062 177.4688 93.2188 177.4688 Q88.4375 177.4688 83.2344 176.2031 Q78.0312 174.9375 73.6719 172.125 Q69.3125 169.3125 66.5 165.0938 Q63.6875 160.875 63.6875 154.9688 Q63.6875 151.3125 65.7969 145.2656 Q67.9062 139.2188 71.7031 133.3125 Q75.5 127.4062 80.9844 123.1875 Q86.4688 118.9688 93.2188 118.9688 ZM77.75 133.5938 Q77.1875 135 76.4844 137.5312 Q75.7812 140.0625 75.7812 141.1875 Q75.7812 145.4062 78.7344 149.4844 Q81.6875 153.5625 86.3281 156.7969 Q90.9688 160.0312 96.4531 162 Q101.9375 163.9688 107 163.9688 Q107.8438 162.5625 108.8281 160.3125 Q109.8125 158.0625 109.8125 155.8125 Q109.8125 151.3125 106.5781 147.375 Q103.3438 143.4375 98.5625 140.3438 Q93.7812 137.25 88.1562 135.4219 Q82.5312 133.5938 77.75 133.5938 Z" stroke="none">
			</path>
		</g>
	</g>
</svg>
