<?xml version="1.0" encoding="UTF-8"?>
<svg fill-opacity="1" color-rendering="auto" color-interpolation="auto" stroke="black" text-rendering="auto" stroke-linecap="square" stroke-miterlimit="10" stroke-opacity="1" shape-rendering="auto" fill="black" stroke-dasharray="none" font-weight="normal" stroke-width="1" font-family="'Dialog'" font-style="normal" stroke-linejoin="miter" font-size="12" stroke-dashoffset="0" image-rendering="auto" preserveAspectRatio="xMidYMid meet" zoomAndPan="magnify" version="1.0" contentScriptType="text/ecmascript" contentStyleType="text/css" xmlns:xlink="http://www.w3.org/1999/xlink" xmlns="http://www.w3.org/2000/svg">
	<COMMENT>Unicode Character 'TIBETAN LETTER MA' (U+0F58)</COMMENT>
	<defs id="genericDefs">
	</defs>
	<g transform="scale(0.3)">
		<g>
			<path d="M93.375 248.625 Q93.9375 248.625 94.2188 249.3281 Q94.5 250.0312 94.5 250.5938 Q94.5 255.375 92.5312 258.8906 Q90.5625 262.4062 87.6094 265.0781 Q84.6562 267.75 80.8594 269.4375 Q77.0625 271.125 73.6875 272.25 Q72 272.8125 70.5938 273.9375 Q69.1875 275.0625 69.1875 277.5938 L69.1875 300.9375 Q78.4688 306 85.0781 312.8906 Q91.6875 319.7812 97.1719 327.6562 Q102.6562 335.5312 107.8594 343.8281 Q113.0625 352.125 119.5312 359.7188 L128.25 370.125 L128.25 360 Q128.25 349.5938 126.7031 337.3594 Q125.1562 325.125 123.75 313.5938 Q122.9062 308.25 121.6406 301.5 Q120.375 294.75 118.8281 288.5625 Q117.2812 282.375 115.7344 278.1562 Q114.1875 273.9375 113.0625 273.9375 Q111.6562 273.9375 110.3906 274.7812 Q109.125 275.625 108.5625 275.625 Q107.7188 275.625 106.7344 275.2031 Q105.75 274.7812 105.75 273.6562 Q105.75 272.5312 106.5938 271.6875 Q107.4375 270.8438 108 270.2812 L126.8438 251.4375 Q128.5312 249.75 130.0781 249.1875 Q131.625 248.625 132.4688 248.625 L145.125 248.625 Q147.9375 248.625 147.9375 251.4375 Q147.9375 252 146.9531 254.5312 Q145.9688 257.0625 144.7031 260.4375 Q143.4375 263.8125 142.1719 267.4688 Q140.9062 271.125 140.0625 273.9375 Q138.6562 279.5625 137.6719 285.8906 Q136.6875 292.2188 136.6875 299.25 L136.6875 376.875 Q138.375 379.6875 138.375 383.625 Q138.375 385.0312 136.5469 386.0156 Q134.7188 387 133.5938 387 Q132.1875 387 130.9219 386.0156 Q129.6562 385.0312 128.25 383.625 L69.1875 332.4375 Q69.1875 336.9375 67.2188 343.4062 Q65.25 349.875 61.0312 355.7812 Q56.8125 361.6875 50.4844 365.9062 Q44.1562 370.125 35.4375 370.125 Q27.2812 370.125 21.0938 367.3125 Q14.9062 364.5 10.6875 359.7188 Q6.4688 354.9375 4.3594 348.6094 Q2.25 342.2812 2.25 335.25 Q2.25 326.5312 5.7656 318.9375 Q9.2812 311.3438 14.7656 305.8594 Q20.25 300.375 27 297.2812 Q33.75 294.1875 40.2188 294.1875 Q44.4375 294.1875 48.2344 294.75 Q52.0312 295.3125 54.8438 295.875 Q57.9375 296.7188 60.75 297.5625 Q60.75 293.625 59.0625 289.4062 Q57.375 285.1875 54.8438 281.8125 Q52.3125 278.4375 49.3594 276.1875 Q46.4062 273.9375 43.875 273.9375 L25.0312 273.9375 Q15.4688 273.9375 15.4688 271.9688 Q15.4688 271.4062 15.8906 270.5625 Q16.3125 269.7188 16.875 268.875 L30.375 248.625 L93.375 248.625 ZM60.75 329.3438 Q57.6562 325.6875 52.1719 322.5938 Q46.6875 319.5 34.875 319.5 Q23.0625 319.5 18.8438 322.1719 Q14.625 324.8438 14.625 329.625 Q14.625 333 15.75 337.6406 Q16.875 342.2812 19.8281 346.5 Q22.7812 350.7188 27.5625 353.6719 Q32.3438 356.625 39.6562 356.625 Q45.5625 356.625 49.6406 354.0938 Q53.7188 351.5625 56.25 347.7656 Q58.7812 343.9688 59.7656 339.6094 Q60.75 335.25 60.75 331.875 L60.75 329.3438 Z" stroke="none">
			</path>
		</g>
	</g>
</svg>
