<?xml version="1.0" encoding="UTF-8"?>
<svg fill-opacity="1" color-rendering="auto" color-interpolation="auto" stroke="black" text-rendering="auto" stroke-linecap="square" stroke-miterlimit="10" stroke-opacity="1" shape-rendering="auto" fill="black" stroke-dasharray="none" font-weight="normal" stroke-width="1" font-family="'Dialog'" font-style="normal" stroke-linejoin="miter" font-size="12" stroke-dashoffset="0" image-rendering="auto" preserveAspectRatio="xMidYMid meet" zoomAndPan="magnify" version="1.0" contentScriptType="text/ecmascript" contentStyleType="text/css" xmlns:xlink="http://www.w3.org/1999/xlink" xmlns="http://www.w3.org/2000/svg">
	<COMMENT>Unicode Character 'TIBETAN LETTER PA' (U+0F54)</COMMENT>
	<defs id="genericDefs">
	</defs>
	<g transform="scale(0.3)">
		<g>
			<path d="M71.4375 248.625 Q72 248.625 72.2812 249.3281 Q72.5625 250.0312 72.5625 250.5938 Q72.5625 255.375 70.4531 259.0312 Q68.3438 262.6875 65.1094 265.3594 Q61.875 268.0312 57.7969 269.7188 Q53.7188 271.4062 49.7812 272.25 Q46.9688 272.8125 41.7656 276.75 Q36.5625 280.6875 31.3594 286.5938 Q26.1562 292.5 22.3594 299.6719 Q18.5625 306.8438 18.5625 313.875 Q20.8125 312.75 23.625 311.9062 Q26.4375 311.0625 29.8125 311.0625 Q46.6875 311.0625 57.5156 315.9844 Q68.3438 320.9062 75.7969 327.7969 Q83.25 334.6875 88.0312 342 Q92.8125 349.3125 97.5938 353.8125 L108 363.9375 L108 360 Q108 349.5938 106.4531 337.2188 Q104.9062 324.8438 103.2188 313.3125 Q102.375 307.9688 101.1094 301.2188 Q99.8438 294.4688 98.4375 288.4219 Q97.0312 282.375 95.4844 278.1562 Q93.9375 273.9375 92.8125 273.9375 Q91.4062 273.9375 90.1406 274.7812 Q88.875 275.625 88.3125 275.625 Q87.4688 275.625 86.4844 275.2031 Q85.5 274.7812 85.5 273.6562 Q85.5 272.5312 86.3438 271.6875 Q87.1875 270.8438 87.75 270.2812 L106.5938 251.4375 Q108.2812 249.75 109.8281 249.1875 Q111.375 248.625 112.2188 248.625 L124.875 248.625 Q127.6875 248.625 127.6875 251.4375 Q127.6875 253.4062 126.9844 253.9688 Q126.2812 254.5312 126 255.6562 Q124.5938 259.875 122.9062 264.375 Q121.2188 268.875 119.8125 273.9375 Q118.4062 279.5625 117.4219 285.75 Q116.4375 291.9375 116.4375 298.9688 L116.4375 370.125 Q117.2812 372.6562 117.2812 375.75 Q117.2812 377.4375 116.1562 378.9844 Q115.0312 380.5312 113.0625 380.5312 Q110.8125 380.5312 108 377.4375 Q104.9062 373.7812 97.7344 366.8906 Q90.5625 360 80.2969 353.25 Q70.0312 346.5 57.2344 341.4375 Q44.4375 336.375 29.8125 336.375 Q23.9062 336.375 19.8281 337.0781 Q15.75 337.7812 12.5156 338.7656 Q9.2812 339.75 6.4688 340.7344 Q3.6562 341.7188 0.8438 342.5625 Q1.9688 336.6562 2.9531 333.1406 Q3.9375 329.625 4.7812 327.2344 Q5.625 324.8438 6.6094 323.1562 Q7.5938 321.4688 8.7188 319.2188 Q9.5625 305.4375 14.3438 294.1875 Q19.125 282.9375 24.1875 274.2188 L18.5625 274.2188 Q13.7812 274.2188 11.5312 273.375 Q9.2812 272.5312 9.2812 271.9688 Q9.2812 271.4062 9.7031 270.5625 Q10.125 269.7188 10.6875 268.875 L24.1875 248.625 L71.4375 248.625 Z" stroke="none">
			</path>
		</g>
	</g>
</svg>
