<?xml version="1.0" encoding="UTF-8"?>
<svg fill-opacity="1" color-rendering="auto" color-interpolation="auto" stroke="black" text-rendering="auto" stroke-linecap="square" stroke-miterlimit="10" stroke-opacity="1" shape-rendering="auto" fill="black" stroke-dasharray="none" font-weight="normal" stroke-width="1" font-family="'Dialog'" font-style="normal" stroke-linejoin="miter" font-size="12" stroke-dashoffset="0" image-rendering="auto" preserveAspectRatio="xMidYMid meet" zoomAndPan="magnify" version="1.0" contentScriptType="text/ecmascript" contentStyleType="text/css" xmlns:xlink="http://www.w3.org/1999/xlink" xmlns="http://www.w3.org/2000/svg">
	<COMMENT>Unicode Character 'TIBETAN LETTER HA' (U+0F67)</COMMENT>
	<defs id="genericDefs">
	</defs>
	<g transform="scale(0.3)">
		<g>
			<path d="M106.5938 248.625 Q107.1562 248.625 107.4375 249.3281 Q107.7188 250.0312 107.7188 250.5938 Q107.7188 257.3438 103.5 261.8438 Q99.2812 266.3438 93.9375 268.875 Q88.5938 271.4062 83.5312 272.5312 Q78.4688 273.6562 76.5 273.9375 Q70.5938 274.5 63.9844 276.1875 Q57.375 277.875 53.1562 280.4062 Q44.7188 285.1875 36.7031 291.7969 Q28.6875 298.4062 21.375 304.5938 L23.0625 304.5938 Q31.5 304.5938 37.9688 310.5 Q44.4375 316.4062 50.3438 323.4375 Q52.3125 316.125 56.8125 310.3594 Q61.3125 304.5938 67.0781 300.6562 Q72.8438 296.7188 79.0312 294.6094 Q85.2188 292.5 91.125 292.5 Q101.25 292.5 108.9844 297.2812 Q116.7188 302.0625 121.7812 310.2188 Q126.8438 318.375 129.375 329.0625 Q131.9062 339.75 131.9062 351.5625 Q131.9062 361.6875 128.25 375.0469 Q124.5938 388.4062 117.9844 403.1719 Q111.375 417.9375 102.5156 432.8438 Q93.6562 447.75 83.5312 460.6875 L53.1562 499.2188 Q52.0312 500.625 50.2031 501.1875 Q48.375 501.75 47.25 501.75 Q46.6875 501.75 46.125 501.0469 Q45.5625 500.3438 45.5625 499.5 Q45.5625 498.375 46.6875 496.6875 Q52.5938 487.9688 59.625 476.7188 Q66.6562 465.4688 73.6875 453.2344 Q80.7188 441 87.3281 428.0625 Q93.9375 415.125 99 403.1719 Q104.0625 391.2188 107.1562 380.5312 Q110.25 369.8438 110.25 361.9688 Q110.25 354.375 108.5625 346.5 Q106.875 338.625 103.2188 332.2969 Q99.5625 325.9688 93.7969 321.8906 Q88.0312 317.8125 79.875 317.8125 Q70.5938 317.8125 65.1094 319.6406 Q59.625 321.4688 55.9688 330.4688 Q57.375 332.1562 59.625 335.9531 Q61.875 339.75 63.9844 343.8281 Q66.0938 347.9062 67.9219 351.4219 Q69.75 354.9375 70.3125 356.0625 Q71.4375 358.0312 72.4219 359.5781 Q73.4062 361.125 73.4062 361.9688 Q73.4062 363.375 71.7188 363.375 Q68.9062 363.375 66.375 360.7031 Q63.8438 358.0312 61.875 356.0625 Q56.8125 351.2812 52.0312 346.3594 Q47.25 341.4375 42.1875 337.3594 Q37.125 333.2812 31.6406 330.6094 Q26.1562 327.9375 19.9688 327.9375 Q13.5 327.9375 8.2969 328.7812 Q3.0938 329.625 0 331.0312 Q1.6875 325.125 3.9375 318.0938 Q6.1875 311.0625 10.9688 306 Q17.4375 298.4062 23.625 290.6719 Q29.8125 282.9375 38.5312 273.9375 L23.9062 273.9375 Q16.875 273.9375 16.875 271.9688 Q16.875 271.4062 17.2969 270.5625 Q17.7188 269.7188 18.2812 268.875 L31.7812 248.625 L106.5938 248.625 Z" stroke="none">
			</path>
		</g>
	</g>
</svg>
