<?xml version="1.0" encoding="UTF-8"?>
<svg fill-opacity="1" color-rendering="auto" color-interpolation="auto" stroke="black" text-rendering="auto" stroke-linecap="square" stroke-miterlimit="10" stroke-opacity="1" shape-rendering="auto" fill="black" stroke-dasharray="none" font-weight="normal" stroke-width="1" font-family="'Dialog'" font-style="normal" stroke-linejoin="miter" font-size="12" stroke-dashoffset="0" image-rendering="auto" preserveAspectRatio="xMidYMid meet" zoomAndPan="magnify" version="1.0" contentScriptType="text/ecmascript" contentStyleType="text/css" xmlns:xlink="http://www.w3.org/1999/xlink" xmlns="http://www.w3.org/2000/svg">
	<COMMENT>Unicode Character 'TIBETAN MARK PALUTA' (U+0F85)</COMMENT>
	<defs id="genericDefs">
	</defs>
	<g transform="scale(0.3)">
		<g>
			<path d="M82.9688 361.6875 Q87.4688 357.1875 89.8594 351.1406 Q92.25 345.0938 92.25 340.0312 Q92.25 333.5625 89.2969 328.5 Q86.3438 323.4375 81.7031 319.9219 Q77.0625 316.4062 71.5781 314.5781 Q66.0938 312.75 61.0312 312.75 Q57.9375 312.75 54.9844 314.7188 Q52.0312 316.6875 49.5 319.2188 Q44.7188 324.2812 39.9375 329.4844 Q35.1562 334.6875 31.2188 334.6875 Q30.6562 334.6875 29.6719 334.125 Q28.6875 333.5625 28.6875 331.5938 Q28.6875 329.9062 31.6406 325.5469 Q34.5938 321.1875 39.9375 314.7188 L48.9375 303.1875 Q52.875 298.4062 56.1094 292.9219 Q59.3438 287.4375 59.3438 282.6562 Q59.3438 278.7188 56.1094 276.3281 Q52.875 273.9375 44.7188 273.9375 Q38.5312 273.9375 35.1562 277.3125 L28.9688 283.5 Q26.4375 286.0312 23.9062 289.125 Q21.375 292.2188 18.8438 294.8906 Q16.3125 297.5625 13.9219 299.3906 Q11.5312 301.2188 9.2812 301.2188 Q8.7188 301.2188 8.0156 300.7969 Q7.3125 300.375 7.3125 298.4062 Q7.3125 296.4375 11.1094 290.8125 Q14.9062 285.1875 21.9375 277.875 L37.125 261.8438 Q42.75 256.2188 48.7969 252.4219 Q54.8438 248.625 62.1562 248.625 Q76.2188 248.625 81.1406 252.9844 Q86.0625 257.3438 86.0625 263.8125 Q86.0625 270.5625 82.125 278.4375 Q78.1875 286.3125 71.7188 293.625 L61.3125 305.4375 Q64.6875 302.3438 71.0156 299.1094 Q77.3438 295.875 83.8125 295.875 Q90.2812 295.875 95.3438 298.8281 Q100.4062 301.7812 103.9219 306.7031 Q107.4375 311.625 109.2656 318.0938 Q111.0938 324.5625 111.0938 331.3125 Q111.0938 342.8438 106.0312 353.8125 Q100.9688 364.7812 93.6562 371.25 L66.6562 394.875 Q61.5938 399.375 57.6562 404.0156 Q53.7188 408.6562 53.7188 413.4375 Q53.7188 424.9688 56.25 432 Q58.7812 439.0312 63.4219 443.25 Q68.0625 447.4688 74.3906 449.8594 Q80.7188 452.25 88.5938 454.5 Q88.5938 459.8438 84.375 465.0469 Q80.1562 470.25 73.6875 475.5938 Q63.8438 473.0625 56.5312 468.7031 Q49.2188 464.3438 44.2969 458.4375 Q39.375 452.5312 36.8438 445.6406 Q34.3125 438.75 34.3125 431.4375 Q34.3125 420.4688 39.9375 408.9375 Q45.5625 397.4062 56.5312 388.125 L82.9688 361.6875 Z" stroke="none">
			</path>
		</g>
	</g>
</svg>
