<?xml version="1.0" encoding="UTF-8"?>
<svg fill-opacity="1" color-rendering="auto" color-interpolation="auto" stroke="black" text-rendering="auto" stroke-linecap="square" stroke-miterlimit="10" stroke-opacity="1" shape-rendering="auto" fill="black" stroke-dasharray="none" font-weight="normal" stroke-width="1" font-family="'Dialog'" font-style="normal" stroke-linejoin="miter" font-size="12" stroke-dashoffset="0" image-rendering="auto" preserveAspectRatio="xMidYMid meet" zoomAndPan="magnify" version="1.0" contentScriptType="text/ecmascript" contentStyleType="text/css" xmlns:xlink="http://www.w3.org/1999/xlink" xmlns="http://www.w3.org/2000/svg">
	<COMMENT>Unicode Character 'TIBETAN LETTER LA' (U+0F63)</COMMENT>
	<defs id="genericDefs">
	</defs>
	<g transform="scale(0.3)">
		<g>
			<path d="M86.9062 248.625 Q89.7188 248.625 89.7188 250.875 Q89.7188 252.8438 88.3125 253.6875 L81.8438 259.875 Q84.9375 262.125 88.3125 267.4688 Q91.6875 272.8125 91.6875 279.5625 Q91.6875 282.6562 91.4062 286.3125 Q91.125 289.9688 89.8594 293.7656 Q88.5938 297.5625 85.7812 301.6406 Q82.9688 305.7188 78.1875 309.375 Q87.4688 309.375 95.625 315.2812 Q103.7812 321.1875 110.5312 329.9062 Q114.75 335.5312 117.9844 341.7188 Q121.2188 347.9062 126 353.8125 L136.6875 367.3125 L136.6875 360 Q136.6875 349.5938 135.1406 337.2188 Q133.5938 324.8438 131.9062 313.3125 Q131.0625 307.9688 129.7969 301.2188 Q128.5312 294.4688 127.125 288.4219 Q125.7188 282.375 124.1719 278.1562 Q122.625 273.9375 121.5 273.9375 Q120.0938 273.9375 118.8281 274.7812 Q117.5625 275.625 117 275.625 Q116.1562 275.625 115.1719 275.2031 Q114.1875 274.7812 114.1875 273.6562 Q114.1875 272.5312 115.0312 271.6875 Q115.875 270.8438 116.4375 270.2812 L135.2812 251.4375 Q136.9688 249.75 138.5156 249.1875 Q140.0625 248.625 140.9062 248.625 L153.5625 248.625 Q156.375 248.625 156.375 251.4375 Q156.375 253.4062 155.6719 253.9688 Q154.9688 254.5312 154.6875 255.6562 Q153.2812 259.875 151.5938 264.375 Q149.9062 268.875 148.5 273.9375 Q147.0938 279.5625 146.1094 285.75 Q145.125 291.9375 145.125 298.9688 L145.125 376.875 Q145.6875 377.4375 146.1094 378.4219 Q146.5312 379.4062 146.5312 380.25 Q146.5312 381.6562 145.4062 382.6406 Q144.2812 383.625 142.0312 383.625 Q138.9375 383.625 137.25 381.7969 Q135.5625 379.9688 133.0312 376.875 Q129.0938 372.6562 121.7812 365.4844 Q114.4688 358.3125 105.6094 351.5625 Q96.75 344.8125 87.1875 339.75 Q77.625 334.6875 69.1875 334.6875 Q59.3438 334.6875 53.4375 335.9531 Q47.5312 337.2188 45.5625 338.3438 Q45.5625 335.25 47.3906 330.6094 Q49.2188 325.9688 52.3125 321.6094 Q55.4062 317.25 59.625 313.7344 Q63.8438 310.2188 68.9062 309.375 Q70.5938 307.9688 72.1406 305.5781 Q73.6875 303.1875 74.8125 300.5156 Q75.9375 297.8438 76.6406 295.1719 Q77.3438 292.5 77.3438 290.5312 Q77.3438 287.7188 74.9531 284.7656 Q72.5625 281.8125 68.4844 279.4219 Q64.4062 277.0312 59.4844 275.4844 Q54.5625 273.9375 49.5 273.9375 Q16.0312 273.9375 16.0312 289.125 Q16.0312 294.75 17.4375 298.6875 Q18.8438 302.625 20.5312 306.2812 Q22.2188 309.9375 23.625 313.7344 Q25.0312 317.5312 25.0312 322.875 Q25.0312 325.6875 24.3281 328.5 Q23.625 331.3125 20.5312 333.8438 Q16.875 337.2188 12.6562 340.4531 Q8.4375 343.6875 6.75 343.6875 Q5.0625 343.6875 5.0625 342.2812 Q5.0625 341.7188 5.9062 339.6094 Q6.75 337.5 6.75 333.5625 Q6.75 327.0938 4.7812 319.7812 Q2.8125 312.4688 2.8125 306 Q2.8125 297 6.0469 286.875 Q9.2812 276.75 15.1875 268.3125 Q21.0938 259.875 29.1094 254.25 Q37.125 248.625 46.6875 248.625 L86.9062 248.625 Z" stroke="none">
			</path>
		</g>
	</g>
</svg>
