<?xml version="1.0" encoding="UTF-8"?>
<svg fill-opacity="1" color-rendering="auto" color-interpolation="auto" stroke="black" text-rendering="auto" stroke-linecap="square" stroke-miterlimit="10" stroke-opacity="1" shape-rendering="auto" fill="black" stroke-dasharray="none" font-weight="normal" stroke-width="1" font-family="'Dialog'" font-style="normal" stroke-linejoin="miter" font-size="12" stroke-dashoffset="0" image-rendering="auto" preserveAspectRatio="xMidYMid meet" zoomAndPan="magnify" version="1.0" contentScriptType="text/ecmascript" contentStyleType="text/css" xmlns:xlink="http://www.w3.org/1999/xlink" xmlns="http://www.w3.org/2000/svg">
	<COMMENT>Unicode Character 'TIBETAN LETTER KSSA' (U+0F69)</COMMENT>
	<defs id="genericDefs">
	</defs>
	<g transform="scale(0.3)">
		<g>
			<path d="M18.8438 498.375 Q18.8438 499.5 18 500.625 Q17.1562 501.75 16.3125 501.75 Q15.4688 501.75 14.3438 500.625 Q13.2188 499.5 13.2188 498.375 Q12.6562 478.9688 11.3906 459.5625 Q10.125 440.1562 10.125 421.3125 L10.125 406.6875 Q10.125 381.0938 23.9062 367.3125 Q37.6875 353.5312 64.9688 353.25 Q70.0312 353.25 76.9219 357.0469 Q83.8125 360.8438 90 366.3281 Q96.1875 371.8125 100.5469 378.2812 Q104.9062 384.75 104.9062 390.0938 Q104.9062 396.8438 103.7812 402.8906 Q102.6562 408.9375 100.8281 414.7031 Q99 420.4688 96.6094 426.6562 Q94.2188 432.8438 91.4062 440.1562 Q94.2188 439.3125 96.75 439.3125 Q105.1875 439.3125 112.0781 442.9688 Q118.9688 446.625 124.0312 451.9688 Q129.0938 457.3125 131.9062 463.6406 Q134.7188 469.9688 134.7188 475.0312 Q134.7188 475.5938 134.2969 477.4219 Q133.875 479.25 133.3125 481.2188 Q132.75 483.1875 131.9062 484.7344 Q131.0625 486.2812 130.2188 486.2812 Q129.375 486.2812 128.25 485.1562 Q127.125 484.0312 126.1406 482.625 Q125.1562 481.2188 124.3125 479.6719 Q123.4688 478.125 122.9062 477.5625 Q119.5312 473.3438 116.7188 470.8125 Q113.9062 468.2812 110.25 466.875 Q106.5938 465.4688 101.8125 465.0469 Q97.0312 464.625 89.4375 464.625 Q87.4688 464.625 83.9531 465.1875 Q80.4375 465.75 76.7812 466.3125 Q73.125 466.875 70.4531 467.4375 Q67.7812 468 67.5 468 Q66.0938 468 66.0938 466.5938 Q66.0938 465.4688 67.7812 461.9531 Q69.4688 458.4375 72 454.5 Q74.5312 450.5625 77.4844 447.1875 Q80.4375 443.8125 82.6875 442.6875 Q82.9688 442.4062 83.9531 440.1562 Q84.9375 437.9062 85.9219 434.8125 Q86.9062 431.7188 87.8906 428.3438 Q88.875 424.9688 89.4375 422.4375 Q83.8125 430.0312 75.7969 433.125 Q67.7812 436.2188 57.375 436.2188 Q50.3438 436.2188 41.4844 432.2812 Q32.625 428.3438 27.5625 423 L25.875 435.0938 L18.8438 498.375 ZM138.375 248.625 Q141.1875 248.625 141.1875 251.1562 Q141.1875 252.5625 139.6406 258.8906 Q138.0938 265.2188 137.25 273.9375 Q136.6875 281.25 136.125 291.5156 Q135.5625 301.7812 135.1406 313.7344 Q134.7188 325.6875 134.2969 338.2031 Q133.875 350.7188 133.7344 361.9688 Q133.5938 373.2188 133.4531 382.6406 Q133.3125 392.0625 133.3125 397.6875 L133.3125 410.9062 Q133.3125 412.3125 131.9062 413.4375 Q130.5 414.5625 129.0938 414.5625 Q127.9688 414.5625 126.4219 413.1562 Q124.875 411.75 124.875 410.9062 L124.875 397.6875 Q124.875 393.75 124.3125 386.4375 Q123.75 379.125 122.9062 369.5625 Q122.0625 360 121.0781 349.3125 Q120.0938 338.625 118.9688 327.9375 Q116.1562 302.9062 113.0625 273.9375 L85.2188 273.9375 Q84.375 279.5625 83.1094 288.9844 Q81.8438 298.4062 80.7188 308.8125 Q79.5938 319.2188 78.75 329.0625 Q77.9062 338.9062 77.625 345.6562 Q77.625 349.0312 75.6562 349.0312 Q75.0938 349.0312 73.5469 348.0469 Q72 347.0625 72 345.6562 Q71.4375 339.1875 70.4531 329.0625 Q69.4688 318.9375 67.9219 308.3906 Q66.375 297.8438 64.5469 288.4219 Q62.7188 279 60.75 273.9375 L40.5 273.9375 Q40.5 286.0312 37.2656 298.2656 Q34.0312 310.5 25.875 319.5 Q21.0938 324.8438 14.625 328.9219 Q8.1562 333 -0.8438 333 Q-2.8125 333 -2.8125 331.0312 Q-2.8125 329.9062 0.5625 327.6562 Q5.3438 324.5625 9.1406 322.0312 Q12.9375 319.5 15.4688 315.8438 Q19.6875 309.6562 20.9531 300.2344 Q22.2188 290.8125 22.2188 273.9375 L20.25 273.9375 Q10.6875 273.9375 10.6875 271.9688 Q10.6875 271.4062 11.1094 270.5625 Q11.5312 269.7188 12.0938 268.875 L25.5938 248.625 L138.375 248.625 ZM50.9062 378.5625 Q45.8438 378.5625 41.625 380.25 Q37.4062 381.9375 34.4531 384.4688 Q31.5 387 29.8125 390.2344 Q28.125 393.4688 28.125 396.8438 Q28.125 403.3125 31.0781 408.0938 Q34.0312 412.875 38.9531 415.9688 Q43.875 419.0625 50.3438 420.75 Q56.8125 422.4375 64.125 422.4375 Q69.1875 422.4375 73.125 420.4688 Q77.0625 418.5 79.875 415.125 Q82.6875 411.75 84.0938 407.5312 Q85.5 403.3125 85.5 398.8125 Q85.5 394.3125 82.6875 390.6562 Q79.875 387 75.2344 384.3281 Q70.5938 381.6562 64.2656 380.1094 Q57.9375 378.5625 50.9062 378.5625 Z" stroke="none">
			</path>
		</g>
	</g>
</svg>
