<?xml version="1.0" encoding="UTF-8"?>
<svg fill-opacity="1" color-rendering="auto" color-interpolation="auto" stroke="black" text-rendering="auto" stroke-linecap="square" stroke-miterlimit="10" stroke-opacity="1" shape-rendering="auto" fill="black" stroke-dasharray="none" font-weight="normal" stroke-width="1" font-family="'Dialog'" font-style="normal" stroke-linejoin="miter" font-size="12" stroke-dashoffset="0" image-rendering="auto" preserveAspectRatio="xMidYMid meet" zoomAndPan="magnify" version="1.0" contentScriptType="text/ecmascript" contentStyleType="text/css" xmlns:xlink="http://www.w3.org/1999/xlink" xmlns="http://www.w3.org/2000/svg">
	<COMMENT>Unicode Character 'TIBETAN LETTER NGA' (U+0F44)</COMMENT>
	<defs id="genericDefs">
	</defs>
	<g transform="scale(0.3)">
		<g>
			<path d="M91.6875 248.625 Q92.25 248.625 92.5312 249.3281 Q92.8125 250.0312 92.8125 250.5938 Q92.8125 255.0938 90.9844 258.6094 Q89.1562 262.125 86.3438 264.7969 Q83.5312 267.4688 79.875 269.1562 Q76.2188 270.8438 72.8438 271.6875 Q64.6875 273.375 59.4844 273.6562 Q54.2812 273.9375 48.0938 275.625 Q44.7188 276.4688 40.3594 281.1094 Q36 285.75 31.7812 291.9375 Q27.5625 298.125 23.9062 304.875 Q20.25 311.625 18.5625 316.6875 Q19.4062 316.4062 21.9375 315.1406 Q24.4688 313.875 27.9844 312.6094 Q31.5 311.3438 35.7188 310.3594 Q39.9375 309.375 44.1562 309.375 Q63.2812 309.375 75.0938 315.7031 Q86.9062 322.0312 94.9219 332.2969 Q102.9375 342.5625 109.125 355.2188 Q115.3125 367.875 122.9062 380.5312 Q123.4688 381.0938 125.1562 384.1875 Q126.8438 387.2812 126.8438 389.25 Q126.8438 391.2188 125.1562 391.2188 Q123.4688 391.2188 122.4844 390.5156 Q121.5 389.8125 120.0938 387.8438 Q112.5 378.2812 104.4844 368.8594 Q96.4688 359.4375 87.4688 351.8438 Q78.4688 344.25 67.6406 339.6094 Q56.8125 334.9688 43.875 334.9688 Q29.8125 334.9688 21.7969 335.9531 Q13.7812 336.9375 9.2812 338.2031 Q4.7812 339.4688 2.8125 340.4531 Q0.8438 341.4375 -0.8438 341.4375 Q-1.6875 341.4375 -1.6875 340.5938 Q1.6875 332.1562 4.6406 326.5312 Q7.5938 320.9062 9.2812 319.5 Q13.5 307.125 17.2969 295.875 Q21.0938 284.625 28.9688 273.9375 L20.5312 273.9375 Q10.9688 273.9375 10.9688 271.9688 Q10.9688 271.4062 11.3906 270.5625 Q11.8125 269.7188 12.375 268.875 L25.875 248.625 L91.6875 248.625 Z" stroke="none">
			</path>
		</g>
	</g>
</svg>
