<?xml version="1.0" encoding="UTF-8"?>
<svg fill-opacity="1" color-rendering="auto" color-interpolation="auto" stroke="black" text-rendering="auto" stroke-linecap="square" stroke-miterlimit="10" stroke-opacity="1" shape-rendering="auto" fill="black" stroke-dasharray="none" font-weight="normal" stroke-width="1" font-family="'Dialog'" font-style="normal" stroke-linejoin="miter" font-size="12" stroke-dashoffset="0" image-rendering="auto" preserveAspectRatio="xMidYMid meet" zoomAndPan="magnify" version="1.0" contentScriptType="text/ecmascript" contentStyleType="text/css" xmlns:xlink="http://www.w3.org/1999/xlink" xmlns="http://www.w3.org/2000/svg">
	<COMMENT>Unicode Character 'TIBETAN LETTER TTA' (U+0F4A)</COMMENT>
	<defs id="genericDefs">
	</defs>
	<g transform="scale(0.3)">
		<g>
			<path d="M76.5 324.8438 Q72.8438 315.5625 60.4688 315.5625 Q48.6562 315.5625 42.1875 320.7656 Q35.7188 325.9688 35.7188 336.6562 Q35.7188 352.9688 39.0938 369.2812 Q42.4688 385.5938 47.9531 401.3438 Q53.4375 417.0938 60.3281 432 Q67.2188 446.9062 73.9688 460.4062 Q74.8125 462.375 77.9062 468 Q81 473.625 84.375 479.6719 Q87.75 485.7188 90.4219 490.9219 Q93.0938 496.125 93.0938 497.25 Q93.0938 500.3438 92.1094 501.0469 Q91.125 501.75 89.4375 501.75 Q88.875 501.75 88.3125 501.0469 Q87.75 500.3438 87.1875 499.7812 L57.375 453.6562 Q51.4688 444.6562 43.875 432.5625 Q36.2812 420.4688 29.5312 406.9688 Q22.7812 393.4688 18.1406 379.2656 Q13.5 365.0625 13.5 351.8438 Q13.5 342.5625 17.4375 333.7031 Q21.375 324.8438 27.9844 317.9531 Q34.5938 311.0625 43.0312 306.7031 Q51.4688 302.3438 60.4688 302.3438 Q64.9688 302.3438 68.9062 303.0469 Q72.8438 303.75 76.5 306 L78.1875 277.875 Q78.1875 276.75 77.2031 275.3438 Q76.2188 273.9375 74.5312 273.9375 L21.375 273.9375 Q11.8125 273.9375 11.8125 271.9688 Q11.8125 271.4062 12.2344 270.5625 Q12.6562 269.7188 13.2188 268.875 L26.7188 248.625 L101.5312 248.625 Q106.3125 248.625 106.3125 250.3125 Q106.3125 251.1562 105.8906 252.8438 Q105.4688 254.5312 105.1875 255.375 L99 273.9375 Q93.9375 289.125 91.125 312.0469 Q88.3125 334.9688 82.4062 366.75 Q81.8438 369.8438 81.2812 371.5312 Q80.7188 373.2188 78.4688 373.2188 Q76.2188 373.2188 75.9375 370.8281 Q75.6562 368.4375 75.6562 367.0312 L76.5 324.8438 Z" stroke="none">
			</path>
		</g>
	</g>
</svg>
