<?xml version="1.0" encoding="UTF-8"?>
<svg fill-opacity="1" color-rendering="auto" color-interpolation="auto" stroke="black" text-rendering="auto" stroke-linecap="square" stroke-miterlimit="10" stroke-opacity="1" shape-rendering="auto" fill="black" stroke-dasharray="none" font-weight="normal" stroke-width="1" font-family="'Dialog'" font-style="normal" stroke-linejoin="miter" font-size="12" stroke-dashoffset="0" image-rendering="auto" preserveAspectRatio="xMidYMid meet" zoomAndPan="magnify" version="1.0" contentScriptType="text/ecmascript" contentStyleType="text/css" xmlns:xlink="http://www.w3.org/1999/xlink" xmlns="http://www.w3.org/2000/svg">
	<COMMENT>Unicode Character 'TIBETAN LETTER SHA' (U+0F64)</COMMENT>
	<defs id="genericDefs">
	</defs>
	<g transform="scale(0.3)">
		<g>
			<path d="M57.375 292.7812 Q57.375 297.8438 59.3438 303.75 Q61.3125 309.6562 65.1094 314.5781 Q68.9062 319.5 74.3906 322.875 Q79.875 326.25 86.625 326.25 Q92.8125 326.25 97.7344 323.1562 Q102.6562 320.0625 106.0312 315.7031 Q109.4062 311.3438 111.0938 306.5625 Q112.7812 301.7812 112.7812 298.125 Q112.7812 287.1562 106.1719 279.2812 Q99.5625 271.4062 84.0938 271.4062 Q79.3125 271.4062 74.5312 273.0938 Q69.75 274.7812 65.9531 277.5938 Q62.1562 280.4062 59.7656 284.3438 Q57.375 288.2812 57.375 292.7812 ZM133.3125 497.5312 Q133.3125 499.2188 132.1875 500.4844 Q131.0625 501.75 129.6562 501.75 Q128.25 501.75 126.5625 500.0625 Q124.875 498.375 124.875 497.5312 L124.875 450.2812 Q124.875 443.25 124.1719 431.7188 Q123.4688 420.1875 122.3438 406.9688 Q121.2188 393.75 119.9531 380.1094 Q118.6875 366.4688 117.4219 355.0781 Q116.1562 343.6875 115.1719 335.8125 Q114.1875 327.9375 113.625 326.25 L111.6562 328.5 Q106.875 334.125 98.7188 338.625 Q90.5625 343.125 80.4375 343.125 Q71.1562 343.125 63 338.2031 Q54.8438 333.2812 48.9375 325.125 Q49.7812 332.7188 51.0469 341.8594 Q52.3125 351 52.3125 360 Q52.3125 365.0625 51.4688 369.9844 Q50.625 374.9062 49.2188 378.7031 Q47.8125 382.5 46.2656 384.75 Q44.7188 387 43.5938 387 Q42.75 387 41.2031 384.1875 Q39.6562 381.375 36.8438 377.1562 Q34.0312 372.9375 29.5312 368.0156 Q25.0312 363.0938 18.5625 358.5938 Q14.0625 355.5 8.7188 353.3906 Q3.375 351.2812 -2.5312 351.2812 Q-4.7812 351.2812 -6.75 352.2656 Q-8.7188 353.25 -10.125 353.25 Q-10.9688 353.25 -10.9688 351.8438 Q-10.9688 350.4375 -7.875 346.5 L1.6875 333.2812 Q2.5312 331.875 3.375 331.1719 Q4.2188 330.4688 4.7812 330.1875 Q6.75 329.0625 10.4062 328.3594 Q14.0625 327.6562 18.5625 327.6562 Q20.5312 327.6562 23.2031 329.0625 Q25.875 330.4688 28.125 332.2969 Q30.375 334.125 32.3438 336.375 Q34.3125 338.625 35.1562 340.3125 L40.7812 352.125 Q41.3438 352.125 41.7656 350.2969 Q42.1875 348.4688 42.1875 345.9375 Q42.1875 342 41.625 335.25 Q41.0625 328.5 40.5 321.1875 Q39.9375 313.875 39.375 307.2656 Q38.8125 300.6562 38.8125 297.2812 Q38.8125 288 44.0156 279.2812 Q49.2188 270.5625 57.0938 263.6719 Q64.9688 256.7812 74.3906 252.7031 Q83.8125 248.625 92.25 248.625 Q95.9062 248.625 99.5625 249.8906 Q103.2188 251.1562 106.3125 253.125 Q109.4062 255.0938 111.9375 257.3438 Q114.4688 259.5938 115.875 261.2812 L125.7188 251.7188 Q127.4062 250.0312 129.375 248.4844 Q131.3438 246.9375 133.5938 246.9375 L140.0625 246.9375 Q141.1875 246.9375 141.75 248.2031 Q142.3125 249.4688 142.3125 250.3125 Q142.3125 251.4375 141.6094 252.1406 Q140.9062 252.8438 140.625 253.4062 Q139.7812 255.6562 138.9375 264.2344 Q138.0938 272.8125 137.3906 285.3281 Q136.6875 297.8438 136.125 313.1719 Q135.5625 328.5 135.1406 344.8125 Q134.7188 361.125 134.4375 376.875 Q134.1562 392.625 133.875 405.9844 Q133.5938 419.3438 133.4531 429.1875 Q133.3125 439.0312 133.3125 442.9688 L133.3125 497.5312 Z" stroke="none">
			</path>
		</g>
	</g>
</svg>
