<?xml version="1.0" encoding="UTF-8"?>
<svg fill-opacity="1" color-rendering="auto" color-interpolation="auto" stroke="black" text-rendering="auto" stroke-linecap="square" stroke-miterlimit="10" stroke-opacity="1" shape-rendering="auto" fill="black" stroke-dasharray="none" font-weight="normal" stroke-width="1" font-family="'Dialog'" font-style="normal" stroke-linejoin="miter" font-size="12" stroke-dashoffset="0" image-rendering="auto" preserveAspectRatio="xMidYMid meet" zoomAndPan="magnify" version="1.0" contentScriptType="text/ecmascript" contentStyleType="text/css" xmlns:xlink="http://www.w3.org/1999/xlink" xmlns="http://www.w3.org/2000/svg">
	<COMMENT>Unicode Character 'TIBETAN LETTER DA' (U+0F51)</COMMENT>
	<defs id="genericDefs">
	</defs>
	<g transform="scale(0.3)">
		<g>
			<path d="M94.7812 248.625 Q95.3438 248.625 95.625 249.3281 Q95.9062 250.0312 95.9062 250.5938 Q95.9062 257.625 91.4062 261.9844 Q86.9062 266.3438 81 268.875 Q75.0938 271.4062 69.4688 272.3906 Q63.8438 273.375 61.5938 273.6562 Q52.5938 274.5 46.4062 278.1562 Q40.2188 281.8125 36.1406 286.5938 Q32.0625 291.375 29.9531 296.1562 Q27.8438 300.9375 26.7188 304.3125 Q28.9688 303.1875 32.4844 302.3438 Q36 301.5 38.25 301.5 Q50.625 301.5 59.3438 302.4844 Q68.0625 303.4688 74.3906 305.4375 Q80.7188 307.4062 85.2188 310.3594 Q89.7188 313.3125 93.375 316.9688 Q101.25 325.4062 106.7344 338.2031 Q112.2188 351 115.7344 366.8906 Q119.25 382.7812 121.3594 400.6406 Q123.4688 418.5 124.875 437.0625 L129.0938 498.375 Q129.0938 499.5 128.25 500.7656 Q127.4062 502.0312 126.5625 502.0312 Q125.1562 502.0312 123.6094 500.9062 Q122.0625 499.7812 121.7812 498.375 L114.1875 438.75 Q110.25 408.375 103.5 383.4844 Q96.75 358.5938 86.9062 345.0938 Q79.875 335.5312 68.9062 330.8906 Q57.9375 326.25 41.3438 326.25 Q37.9688 326.25 33.1875 327.0938 Q28.4062 327.9375 23.3438 329.2031 Q18.2812 330.4688 13.3594 331.5938 Q8.4375 332.7188 4.7812 333.2812 Q3.375 333.2812 3.375 331.875 Q3.375 330.1875 4.6406 327.2344 Q5.9062 324.2812 7.7344 320.9062 Q9.5625 317.5312 12.0938 314.0156 Q14.625 310.5 17.1562 307.9688 Q18.2812 304.5938 19.5469 300.375 Q20.8125 296.1562 22.3594 291.7969 Q23.9062 287.4375 25.4531 283.3594 Q27 279.2812 28.6875 276.1875 Q28.6875 274.5 26.4375 273.9375 L21.375 273.9375 Q11.8125 273.9375 11.8125 271.9688 Q11.8125 271.4062 12.2344 270.5625 Q12.6562 269.7188 13.2188 268.875 L26.7188 248.625 L94.7812 248.625 Z" stroke="none">
			</path>
		</g>
	</g>
</svg>
