<?xml version="1.0" encoding="UTF-8"?>
<svg fill-opacity="1" color-rendering="auto" color-interpolation="auto" stroke="black" text-rendering="auto" stroke-linecap="square" stroke-miterlimit="10" stroke-opacity="1" shape-rendering="auto" fill="black" stroke-dasharray="none" font-weight="normal" stroke-width="1" font-family="'Dialog'" font-style="normal" stroke-linejoin="miter" font-size="12" stroke-dashoffset="0" image-rendering="auto" preserveAspectRatio="xMidYMid meet" zoomAndPan="magnify" version="1.0" contentScriptType="text/ecmascript" contentStyleType="text/css" xmlns:xlink="http://www.w3.org/1999/xlink" xmlns="http://www.w3.org/2000/svg">
	<COMMENT>Unicode Character 'TIBETAN LETTER GA' (U+0F42)</COMMENT>
	<defs id="genericDefs">
	</defs>
	<g transform="scale(0.3)">
		<g>
			<path d="M149.3438 248.625 Q152.4375 248.625 152.4375 250.5938 Q152.4375 252 150.75 258.1875 Q149.0625 264.375 148.5 273.9375 Q147.6562 284.0625 147.0938 298.8281 Q146.5312 313.5938 145.9688 330.4688 Q145.4062 347.3438 144.9844 364.9219 Q144.5625 382.5 144.1406 398.1094 Q143.7188 413.7188 143.5781 426.2344 Q143.4375 438.75 143.4375 445.5 L143.4375 495 Q143.4375 498.0938 142.4531 499.9219 Q141.4688 501.75 140.0625 501.75 Q138.9375 501.75 136.9688 499.9219 Q135 498.0938 135 495 L135 450.5625 Q135 442.6875 134.2969 429.3281 Q133.5938 415.9688 132.6094 399.6562 Q131.625 383.3438 130.3594 365.3438 Q129.0938 347.3438 127.8281 330.3281 Q126.5625 313.3125 125.2969 298.5469 Q124.0312 283.7812 123.1875 273.9375 L92.8125 273.9375 Q89.7188 273.9375 89.2969 276.75 Q88.875 279.5625 88.875 282.375 L91.9688 361.4062 Q93.0938 362.5312 93.5156 364.0781 Q93.9375 365.625 93.9375 366.75 Q93.9375 370.125 90.5625 370.125 Q88.3125 370.125 86.2031 368.4375 Q84.0938 366.75 82.125 364.7812 Q76.5 359.1562 68.9062 354.2344 Q61.3125 349.3125 53.0156 345.6562 Q44.7188 342 36.5625 339.8906 Q28.4062 337.7812 21.6562 337.7812 Q16.0312 337.7812 10.9688 339.6094 Q5.9062 341.4375 0.8438 342.5625 Q1.9688 334.9688 4.3594 328.5 Q6.75 322.0312 9.5625 318.0938 Q10.125 312.4688 12.375 306 Q14.625 299.5312 17.4375 293.4844 Q20.25 287.4375 23.3438 282.2344 Q26.4375 277.0312 28.6875 273.9375 L22.5 273.9375 Q12.9375 273.9375 12.9375 271.9688 Q12.9375 271.4062 13.3594 270.5625 Q13.7812 269.7188 14.3438 268.875 L27.8438 248.625 L149.3438 248.625 ZM55.6875 273.9375 Q51.1875 273.9375 45.2812 277.7344 Q39.375 281.5312 33.8906 287.5781 Q28.4062 293.625 24.1875 300.9375 Q19.9688 308.25 18.8438 315 Q21.0938 313.5938 25.4531 313.1719 Q29.8125 312.75 31.7812 312.75 Q39.0938 312.75 45 315.1406 Q50.9062 317.5312 55.6875 321.3281 Q60.4688 325.125 64.4062 330.0469 Q68.3438 334.9688 72 339.75 L83.5312 354.6562 L83.5312 346.5 Q83.5312 340.875 82.5469 333.2812 Q81.5625 325.6875 79.875 317.3906 Q78.1875 309.0938 75.9375 300.9375 Q73.6875 292.7812 70.875 285.75 Q69.1875 281.5312 67.5 277.7344 Q65.8125 273.9375 62.7188 273.9375 L55.6875 273.9375 Z" stroke="none">
			</path>
		</g>
	</g>
</svg>
