<?xml version="1.0" encoding="UTF-8"?>
<svg fill-opacity="1" color-rendering="auto" color-interpolation="auto" stroke="black" text-rendering="auto" stroke-linecap="square" stroke-miterlimit="10" stroke-opacity="1" shape-rendering="auto" fill="black" stroke-dasharray="none" font-weight="normal" stroke-width="1" font-family="'Dialog'" font-style="normal" stroke-linejoin="miter" font-size="12" stroke-dashoffset="0" image-rendering="auto" preserveAspectRatio="xMidYMid meet" zoomAndPan="magnify" version="1.0" contentScriptType="text/ecmascript" contentStyleType="text/css" xmlns:xlink="http://www.w3.org/1999/xlink" xmlns="http://www.w3.org/2000/svg">
	<COMMENT>Unicode Character 'TIBETAN LETTER NYA' (U+0F49)</COMMENT>
	<defs id="genericDefs">
	</defs>
	<g transform="scale(0.3)">
		<g>
			<path d="M3.375 298.125 Q3.375 295.0312 5.0625 289.6875 Q6.75 284.3438 10.6875 279.8438 L26.7188 261.8438 Q32.0625 255.9375 37.2656 252.2812 Q42.4688 248.625 50.3438 248.625 Q61.0312 248.625 68.2031 250.3125 Q75.375 252 79.7344 254.9531 Q84.0938 257.9062 85.9219 262.125 Q87.75 266.3438 87.75 271.4062 Q87.75 277.875 86.3438 282.5156 Q84.9375 287.1562 82.4062 290.9531 Q79.875 294.75 76.6406 298.125 Q73.4062 301.5 70.0312 305.4375 L59.625 317.25 Q63 314.1562 69.3281 311.0625 Q75.6562 307.9688 82.125 307.9688 Q92.25 307.9688 98.7188 311.4844 Q105.1875 315 108.7031 320.7656 Q112.2188 326.5312 113.4844 333.8438 Q114.75 341.1562 114.75 349.0312 Q114.75 360.2812 110.6719 373.5 Q106.5938 386.7188 99.9844 400.6406 Q93.375 414.5625 84.7969 428.4844 Q76.2188 442.4062 67.0781 455.2031 Q57.9375 468 48.9375 479.1094 Q39.9375 490.2188 32.625 498.375 Q31.5 499.7812 30.2344 500.7656 Q28.9688 501.75 27.5625 501.75 Q27 501.75 26.2969 500.7656 Q25.5938 499.7812 25.5938 498.9375 Q25.5938 497.5312 26.4375 496.125 Q32.3438 487.4062 39.7969 476.2969 Q47.25 465.1875 54.8438 452.9531 Q62.4375 440.7188 69.6094 427.9219 Q76.7812 415.125 82.2656 403.1719 Q87.75 391.2188 91.125 380.6719 Q94.5 370.125 94.5 362.25 Q94.5 355.5 91.125 348.6094 Q87.75 341.7188 82.5469 336.375 Q77.3438 331.0312 71.1562 327.6562 Q64.9688 324.2812 59.3438 324.2812 Q56.25 324.2812 53.2969 326.1094 Q50.3438 327.9375 47.9531 330.4688 Q45.5625 333 44.0156 335.6719 Q42.4688 338.3438 42.4688 339.75 Q42.4688 342 44.0156 345.0938 Q45.5625 348.1875 48.2344 351.1406 Q50.9062 354.0938 54.7031 356.2031 Q58.5 358.3125 62.7188 358.3125 Q65.8125 358.3125 69.0469 357.3281 Q72.2812 356.3438 73.6875 356.3438 Q74.25 356.3438 74.3906 357.1875 Q74.5312 358.0312 74.5312 358.3125 Q74.5312 359.7188 73.6875 361.6875 L68.0625 372.0938 Q66.0938 375.75 63.1406 378 Q60.1875 380.25 54 380.25 Q49.7812 380.25 45 378.7031 Q40.2188 377.1562 36.2812 373.5 Q32.3438 369.8438 29.6719 363.6562 Q27 357.4688 27 348.1875 Q27 341.7188 30.375 336.6562 Q33.75 331.5938 38.25 326.5312 L48.375 315 Q53.1562 309.6562 57.6562 302.4844 Q62.1562 295.3125 62.1562 287.4375 Q62.1562 280.9688 57.2344 277.4531 Q52.3125 273.9375 40.5 273.9375 L33.75 273.9375 Q32.3438 273.9375 30.0938 274.5 Q27.8438 275.0625 26.1562 276.75 L20.25 282.0938 Q16.875 284.9062 16.875 287.7188 Q16.875 290.8125 18.2812 293.4844 Q19.6875 296.1562 21.2344 299.1094 Q22.7812 302.0625 24.1875 305.8594 Q25.5938 309.6562 25.5938 315 Q25.5938 317.8125 24.8906 320.625 Q24.1875 323.4375 21.0938 325.9688 Q17.4375 329.3438 13.2188 332.5781 Q9 335.8125 7.3125 335.8125 Q5.625 335.8125 5.625 334.4062 Q5.625 333.8438 6.4688 331.7344 Q7.3125 329.625 7.3125 325.6875 Q7.3125 319.2188 5.3438 311.9062 Q3.375 304.5938 3.375 298.125 Z" stroke="none">
			</path>
		</g>
	</g>
</svg>
