<?xml version="1.0" encoding="UTF-8"?>
<svg fill-opacity="1" color-rendering="auto" color-interpolation="auto" stroke="black" text-rendering="auto" stroke-linecap="square" stroke-miterlimit="10" stroke-opacity="1" shape-rendering="auto" fill="black" stroke-dasharray="none" font-weight="normal" stroke-width="1" font-family="'Dialog'" font-style="normal" stroke-linejoin="miter" font-size="12" stroke-dashoffset="0" image-rendering="auto" preserveAspectRatio="xMidYMid meet" zoomAndPan="magnify" version="1.0" contentScriptType="text/ecmascript" contentStyleType="text/css" xmlns:xlink="http://www.w3.org/1999/xlink" xmlns="http://www.w3.org/2000/svg">
	<COMMENT>Unicode Character 'TIBETAN LETTER KA' (U+0F40)</COMMENT>
	<defs id="genericDefs">
	</defs>
	<g transform="scale(0.3)">
		<g>
			<path d="M137.5312 248.625 Q140.625 248.625 140.625 250.5938 Q140.625 252.2812 138.9375 258.3281 Q137.25 264.375 136.6875 273.9375 Q135.8438 284.0625 135.2812 298.8281 Q134.7188 313.5938 134.1562 330.4688 Q133.5938 347.3438 133.1719 364.9219 Q132.75 382.5 132.3281 398.1094 Q131.9062 413.7188 131.7656 426.2344 Q131.625 438.75 131.625 445.5 L131.625 495 Q131.625 498.0938 130.6406 499.9219 Q129.6562 501.75 128.25 501.75 Q127.125 501.75 125.1562 499.9219 Q123.1875 498.0938 123.1875 495 L123.1875 450.5625 Q123.1875 442.6875 122.4844 429.3281 Q121.7812 415.9688 120.7969 399.6562 Q119.8125 383.3438 118.5469 365.3438 Q117.2812 347.3438 116.0156 330.3281 Q114.75 313.3125 113.4844 298.5469 Q112.2188 283.7812 111.375 273.9375 L84.9375 273.9375 Q83.8125 281.5312 82.5469 289.2656 Q81.2812 297 80.4375 307.6875 Q79.3125 321.75 78.75 337.6406 Q78.1875 353.5312 77.625 369.5625 Q77.625 372.9375 75.0938 372.9375 Q72.2812 372.9375 72.2812 369.5625 Q71.4375 355.7812 70.0312 340.875 Q68.625 325.9688 66.9375 312.8906 Q65.25 299.8125 63.2812 289.4062 Q61.3125 279 59.3438 273.9375 L40.2188 273.9375 Q38.8125 274.5 38.8125 277.3125 Q38.8125 284.3438 37.5469 291.5156 Q36.2812 298.6875 33.3281 305.1562 Q30.375 311.625 25.875 317.1094 Q21.375 322.5938 15.1875 326.25 Q14.9062 326.25 12.6562 327.375 Q10.4062 328.5 7.4531 329.7656 Q4.5 331.0312 1.4062 332.0156 Q-1.6875 333 -3.375 333 Q-4.7812 333 -4.7812 331.5938 Q-4.7812 331.0312 -2.6719 329.3438 Q-0.5625 327.6562 1.9688 325.8281 Q4.5 324 7.0312 322.1719 Q9.5625 320.3438 10.4062 319.5 Q13.2188 316.125 15.3281 312.1875 Q17.4375 308.25 18.5625 302.9062 Q19.6875 297.5625 20.25 290.5312 Q20.8125 283.5 20.8125 273.9375 L15.75 273.9375 Q10.125 273.9375 10.125 271.9688 Q10.125 271.4062 10.5469 270.5625 Q10.9688 269.7188 11.5312 268.875 L25.0312 248.625 L137.5312 248.625 Z" stroke="none">
			</path>
		</g>
	</g>
</svg>
