<?xml version="1.0" encoding="UTF-8"?>
<svg fill-opacity="1" color-rendering="auto" color-interpolation="auto" stroke="black" text-rendering="auto" stroke-linecap="square" stroke-miterlimit="10" stroke-opacity="1" shape-rendering="auto" fill="black" stroke-dasharray="none" font-weight="normal" stroke-width="1" font-family="'Dialog'" font-style="normal" stroke-linejoin="miter" font-size="12" stroke-dashoffset="0" image-rendering="auto" preserveAspectRatio="xMidYMid meet" zoomAndPan="magnify" version="1.0" contentScriptType="text/ecmascript" contentStyleType="text/css" xmlns:xlink="http://www.w3.org/1999/xlink" xmlns="http://www.w3.org/2000/svg">
	<COMMENT>Unicode Character 'TIBETAN LETTER DZHA' (U+0F5C)</COMMENT>
	<defs id="genericDefs">
	</defs>
	<g transform="scale(0.3)">
		<g>
			<path d="M93.9375 248.625 Q93.9375 246.9375 93.375 243.9844 Q92.8125 241.0312 91.5469 237.7969 Q90.2812 234.5625 88.4531 231.3281 Q86.625 228.0938 84.375 225.5625 Q81.8438 222.75 79.875 221.3438 Q77.9062 219.9375 77.9062 218.5312 Q77.9062 217.6875 79.7344 214.875 Q81.5625 212.0625 84.0938 208.6875 Q86.625 205.3125 89.2969 202.3594 Q91.9688 199.4062 93.6562 198 L144.8438 198 Q145.4062 198 145.6875 198.7031 Q145.9688 199.4062 145.9688 199.9688 Q145.9688 203.9062 144.2812 207 Q142.5938 210.0938 140.3438 212.4844 Q138.0938 214.875 135.7031 216.2812 Q133.3125 217.6875 132.1875 218.5312 Q127.4062 221.3438 121.3594 222.3281 Q115.3125 223.3125 109.6875 223.3125 L102.6562 223.3125 L102.6562 248.625 L104.625 248.625 L104.625 250.5938 Q104.625 256.2188 99 261.5625 Q93.375 266.9062 86.0625 269.7188 Q82.125 271.125 76.7812 271.8281 Q71.4375 272.5312 65.6719 272.8125 Q59.9062 273.0938 54.7031 273.2344 Q49.5 273.375 46.125 273.9375 Q44.1562 274.2188 41.2031 278.2969 Q38.25 282.375 35.2969 287.7188 Q32.3438 293.0625 30.0938 298.5469 Q27.8438 304.0312 27.2812 307.125 Q31.5 303.75 35.2969 300.375 Q39.0938 297 44.1562 294.3281 Q49.2188 291.6562 56.1094 290.1094 Q63 288.5625 73.4062 288.5625 Q77.0625 288.5625 80.2969 288.8438 Q83.5312 289.125 87.1875 289.125 Q91.125 289.125 95.625 288.5625 Q100.125 288 106.0312 285.75 Q104.0625 290.8125 100.6875 295.7344 Q97.3125 300.6562 92.9531 304.3125 Q88.5938 307.9688 83.6719 310.2188 Q78.75 312.4688 73.6875 312.4688 Q68.0625 312.4688 61.0312 311.3438 Q54 310.2188 45 310.2188 Q40.2188 310.2188 34.3125 311.4844 Q28.4062 312.75 25.0312 315 Q24.4688 316.125 23.625 318.6562 Q22.7812 321.1875 21.9375 324.1406 Q21.0938 327.0938 20.25 330.0469 Q19.4062 333 19.125 334.9688 Q23.625 331.875 29.6719 330.0469 Q35.7188 328.2188 42.0469 327.375 Q48.375 326.5312 54.2812 326.3906 Q60.1875 326.25 64.9688 326.25 Q80.1562 326.25 92.25 335.1094 Q104.3438 343.9688 115.3125 358.3125 Q116.4375 359.7188 118.5469 362.25 Q120.6562 364.7812 122.7656 367.7344 Q124.875 370.6875 126.5625 373.5 Q128.25 376.3125 128.25 378.2812 Q128.25 378.8438 127.8281 379.6875 Q127.4062 380.5312 126.8438 380.5312 Q122.9062 380.25 116.8594 374.9062 Q110.8125 369.5625 104.0625 365.0625 Q103.5 370.9688 99.5625 374.9062 Q95.625 378.8438 90.5625 381.0938 Q85.5 383.3438 80.5781 384.3281 Q75.6562 385.3125 73.6875 385.3125 Q67.7812 385.3125 61.1719 387.1406 Q54.5625 388.9688 48.375 391.9219 Q42.1875 394.875 36.5625 398.3906 Q30.9375 401.9062 27.2812 405.5625 L20.8125 410.9062 L22.7812 410.9062 Q31.2188 410.9062 37.9688 415.9688 Q44.7188 421.0312 50.625 428.0625 Q51.75 422.1562 55.2656 416.8125 Q58.7812 411.4688 63.4219 407.3906 Q68.0625 403.3125 73.4062 401.0625 Q78.75 398.8125 83.5312 398.8125 Q100.6875 398.8125 109.4062 409.3594 Q118.125 419.9062 118.125 437.625 Q118.125 446.3438 115.0312 453.6562 Q111.9375 460.9688 107.0156 467.0156 Q102.0938 473.0625 96.3281 477.8438 Q90.5625 482.625 85.5 486.5625 Q85.2188 486.8438 83.5312 488.25 Q81.8438 489.6562 79.5938 491.3438 Q77.3438 493.0312 75.0938 494.2969 Q72.8438 495.5625 72 495.5625 Q69.1875 495.5625 69.1875 492.75 Q69.1875 491.9062 70.4531 490.6406 Q71.7188 489.375 73.2656 487.9688 Q74.8125 486.5625 76.3594 485.2969 Q77.9062 484.0312 78.4688 483.4688 Q88.3125 474.1875 93.7969 466.1719 Q99.2812 458.1562 99.2812 446.3438 Q99.2812 433.6875 94.2188 426.9375 Q89.1562 420.1875 74.8125 420.1875 Q70.0312 420.1875 64.6875 423.9844 Q59.3438 427.7812 56.8125 431.7188 Q57.9375 433.9688 59.625 437.0625 Q61.0312 439.5938 63.1406 443.3906 Q65.25 447.1875 68.3438 452.25 Q70.5938 455.9062 70.5938 457.875 Q70.5938 459.2812 69.1875 459.2812 Q67.2188 459.2812 65.9531 458.1562 Q64.6875 457.0312 64.125 456.1875 Q59.9062 451.9688 54.5625 448.0312 Q49.2188 444.0938 43.3125 441 Q37.4062 437.9062 31.5 436.0781 Q25.5938 434.25 20.25 434.25 Q13.7812 434.25 8.5781 435.0938 Q3.375 435.9375 0.2812 437.3438 Q1.6875 431.4375 4.0781 424.5469 Q6.4688 417.6562 11.25 412.3125 L17.1562 405.5625 Q20.25 401.9062 24.8906 397.4062 Q29.5312 392.9062 33.4688 389.8125 Q33.4688 388.4062 30.375 387.7031 Q27.2812 387 24.1875 387 Q14.625 387 14.625 385.0312 Q14.625 384.4688 15.0469 383.625 Q15.4688 382.7812 16.0312 381.9375 L29.5312 361.6875 L98.1562 361.6875 Q76.5 350.1562 52.875 350.1562 Q45 350.1562 36.1406 351.1406 Q27.2812 352.125 19.6875 353.8125 Q17.7188 354.375 15.1875 355.0781 Q12.6562 355.7812 10.2656 356.625 Q7.875 357.4688 6.0469 358.0312 Q4.2188 358.5938 3.6562 358.5938 Q2.25 358.5938 2.25 357.4688 Q2.25 355.5 3.2344 352.5469 Q4.2188 349.5938 5.4844 346.9219 Q6.75 344.25 7.875 342.1406 Q9 340.0312 9.2812 339.4688 Q10.4062 337.7812 11.8125 330.1875 Q13.2188 322.5938 15.3281 312.6094 Q17.4375 302.625 20.5312 292.0781 Q23.625 281.5312 27.8438 273.9375 L22.7812 273.9375 Q13.2188 273.9375 13.2188 271.9688 Q13.2188 271.4062 13.6406 270.5625 Q14.0625 269.7188 14.625 268.875 L28.125 248.625 L93.9375 248.625 Z" stroke="none">
			</path>
		</g>
	</g>
</svg>
