<?xml version="1.0" encoding="UTF-8"?>
<svg fill-opacity="1" color-rendering="auto" color-interpolation="auto" stroke="black" text-rendering="auto" stroke-linecap="square" stroke-miterlimit="10" stroke-opacity="1" shape-rendering="auto" fill="black" stroke-dasharray="none" font-weight="normal" stroke-width="1" font-family="'Dialog'" font-style="normal" stroke-linejoin="miter" font-size="12" stroke-dashoffset="0" image-rendering="auto" preserveAspectRatio="xMidYMid meet" zoomAndPan="magnify" version="1.0" contentScriptType="text/ecmascript" contentStyleType="text/css" xmlns:xlink="http://www.w3.org/1999/xlink" xmlns="http://www.w3.org/2000/svg">
	<COMMENT>Unicode Character 'TIBETAN LETTER DZA' (U+0F5B)</COMMENT>
	<defs id="genericDefs">
	</defs>
	<g transform="scale(0.3)">
		<g>
			<path d="M92.5312 248.625 Q92.5312 246.9375 91.9688 243.9844 Q91.4062 241.0312 90.2812 237.7969 Q89.1562 234.5625 87.3281 231.3281 Q85.5 228.0938 83.25 225.5625 Q80.7188 222.75 78.75 221.3438 Q76.7812 219.9375 76.7812 218.5312 Q76.7812 217.6875 78.6094 214.875 Q80.4375 212.0625 82.9688 208.6875 Q85.5 205.3125 88.1719 202.3594 Q90.8438 199.4062 92.5312 198 L143.1562 198 Q143.7188 198 144 198.7031 Q144.2812 199.4062 144.2812 199.9688 Q144.2812 203.9062 142.5938 207 Q140.9062 210.0938 138.6562 212.4844 Q136.4062 214.875 134.0156 216.2812 Q131.625 217.6875 130.5 218.5312 Q125.7188 221.3438 119.6719 222.3281 Q113.625 223.3125 108 223.3125 L101.25 223.3125 L101.25 248.625 L107.4375 248.625 Q108 248.625 108.2812 249.3281 Q108.5625 250.0312 108.5625 250.5938 Q108.5625 256.2188 102.9375 261.5625 Q97.3125 266.9062 90 269.7188 Q86.0625 271.125 80.1562 271.8281 Q74.25 272.5312 67.9219 272.8125 Q61.5938 273.0938 55.8281 273.2344 Q50.0625 273.375 46.6875 273.9375 Q44.7188 274.2188 41.7656 278.7188 Q38.8125 283.2188 35.8594 289.125 Q32.9062 295.0312 30.6562 300.7969 Q28.4062 306.5625 27.8438 309.6562 Q32.0625 306.2812 35.8594 302.625 Q39.6562 298.9688 44.7188 296.1562 Q49.7812 293.3438 56.6719 291.5156 Q63.5625 289.6875 73.9688 289.6875 Q77.625 289.6875 80.8594 289.9688 Q84.0938 290.25 87.75 290.25 Q91.6875 290.25 96.1875 289.6875 Q100.6875 289.125 106.5938 286.875 Q106.5938 289.6875 104.3438 293.3438 Q102.0938 297 99.1406 300.375 Q96.1875 303.75 93.375 306.4219 Q90.5625 309.0938 89.1562 309.6562 Q85.7812 311.9062 81.9844 313.4531 Q78.1875 315 74.25 315 Q68.625 315 61.5938 313.875 Q54.5625 312.75 45.5625 312.75 Q40.7812 312.75 34.875 314.0156 Q28.9688 315.2812 25.5938 317.5312 Q25.0312 318.6562 24.1875 321.4688 Q23.3438 324.2812 22.5 327.6562 Q21.6562 331.0312 20.8125 334.4062 Q19.9688 337.7812 19.6875 339.75 Q24.1875 336.6562 30.2344 334.8281 Q36.2812 333 42.6094 332.1562 Q48.9375 331.3125 54.8438 331.1719 Q60.75 331.0312 65.5312 331.0312 Q80.7188 331.0312 92.8125 338.7656 Q104.9062 346.5 115.875 360.8438 Q117.8438 363.375 118.8281 364.7812 Q119.8125 366.1875 120.6562 367.4531 Q121.5 368.7188 122.4844 370.125 Q123.4688 371.5312 125.7188 374.3438 Q126.5625 375.75 128.8125 378.7031 Q131.0625 381.6562 131.0625 383.3438 Q131.0625 383.9062 130.7812 385.4531 Q130.5 387 129.9375 387 Q128.25 387 126.8438 385.5938 Q117 376.0312 107.0156 370.2656 Q97.0312 364.5 86.3438 361.5469 Q75.6562 358.5938 64.125 357.6094 Q52.5938 356.625 39.6562 356.625 Q29.25 356.625 20.25 358.5938 Q18.2812 359.1562 15.75 359.8594 Q13.2188 360.5625 10.8281 361.4062 Q8.4375 362.25 6.6094 362.8125 Q4.7812 363.375 4.2188 363.375 Q2.8125 363.375 2.8125 362.25 Q2.8125 360.2812 3.7969 357.3281 Q4.7812 354.375 6.0469 351.7031 Q7.3125 349.0312 8.4375 346.9219 Q9.5625 344.8125 9.8438 344.25 Q10.9688 342.5625 12.375 334.125 Q13.7812 325.6875 15.8906 315 Q18 304.3125 21.0938 292.9219 Q24.1875 281.5312 28.4062 273.9375 L23.3438 273.9375 Q13.7812 273.9375 13.7812 271.9688 Q13.7812 271.4062 14.2031 270.5625 Q14.625 269.7188 15.1875 268.875 L28.6875 248.625 L92.5312 248.625 Z" stroke="none">
			</path>
		</g>
	</g>
</svg>
