<?xml version="1.0" encoding="UTF-8"?>
<svg fill-opacity="1" color-rendering="auto" color-interpolation="auto" stroke="black" text-rendering="auto" stroke-linecap="square" stroke-miterlimit="10" stroke-opacity="1" shape-rendering="auto" fill="black" stroke-dasharray="none" font-weight="normal" stroke-width="1" font-family="'Dialog'" font-style="normal" stroke-linejoin="miter" font-size="12" stroke-dashoffset="0" image-rendering="auto" preserveAspectRatio="xMidYMid meet" zoomAndPan="magnify" version="1.0" contentScriptType="text/ecmascript" contentStyleType="text/css" xmlns:xlink="http://www.w3.org/1999/xlink" xmlns="http://www.w3.org/2000/svg">
	<COMMENT>Unicode Character 'TIBETAN VOWEL SIGN OO' (U+0F7D)</COMMENT>
	<defs id="genericDefs">
	</defs>
	<g transform="scale(0.3)">
		<g>
			<path d="M-66.375 178.3125 Q-66.375 174.375 -64.8281 169.875 Q-63.2812 165.375 -60.75 161.0156 Q-58.2188 156.6562 -54.9844 153.1406 Q-51.75 149.625 -48.6562 147.375 Q-44.7188 144.5625 -37.125 140.9062 Q-29.5312 137.25 -19.125 137.25 Q-12.0938 137.25 -4.7812 135.8438 Q2.5312 134.4375 9.8438 132.1875 Q13.7812 130.7812 16.7344 128.3906 Q19.6875 126 21.6562 123.6094 Q23.625 121.2188 24.8906 119.5312 Q26.1562 117.8438 27 117.8438 Q28.6875 117.8438 29.3906 118.9688 Q30.0938 120.0938 30.0938 120.6562 Q30.0938 125.7188 25.4531 133.0312 Q20.8125 140.3438 13.0781 146.9531 Q5.3438 153.5625 -4.7812 158.2031 Q-14.9062 162.8438 -25.875 162.8438 L-27 162.8438 Q-32.9062 162.8438 -38.8125 163.6875 Q-44.7188 164.5312 -49.5 166.3594 Q-54.2812 168.1875 -57.375 171.5625 Q-60.4688 174.9375 -61.0312 180 L-62.1562 190.125 Q-61.5938 191.25 -61.5938 192.375 Q-61.5938 196.0312 -66.0938 196.0312 Q-68.0625 196.0312 -70.1719 192.9375 Q-72.2812 189.8438 -73.6875 187.875 Q-76.2188 184.2188 -80.2969 179.4375 Q-84.375 174.6562 -90.1406 170.5781 Q-95.9062 166.5 -103.7812 163.6875 Q-111.6562 160.875 -121.7812 160.875 Q-125.7188 160.875 -127.125 162.1406 Q-128.5312 163.4062 -129.375 163.4062 Q-130.5 163.4062 -130.9219 162.5625 Q-131.3438 161.7188 -131.3438 160.875 Q-131.3438 159.75 -129.5156 155.6719 Q-127.6875 151.5938 -124.7344 147.0938 Q-121.7812 142.5938 -118.2656 139.0781 Q-114.75 135.5625 -111.6562 135.5625 Q-103.7812 135.5625 -98.0156 138.7969 Q-92.25 142.0312 -87.8906 147.0938 Q-83.5312 152.1562 -80.2969 158.625 Q-77.0625 165.0938 -73.9688 171.8438 L-66.375 184.7812 L-66.375 178.3125 ZM-62.1562 220.2188 Q-62.1562 216.2812 -60.3281 211.5 Q-58.5 206.7188 -55.5469 202.0781 Q-52.5938 197.4375 -49.2188 193.6406 Q-45.8438 189.8438 -42.4688 187.875 Q-36.8438 184.2188 -28.5469 180.5625 Q-20.25 176.9062 -11.5312 176.9062 Q-5.0625 176.9062 1.8281 175.9219 Q8.7188 174.9375 12.0938 173.5312 Q16.3125 171.5625 18.8438 168.75 Q21.375 165.9375 22.7812 163.2656 Q24.1875 160.5938 25.0312 158.7656 Q25.875 156.9375 26.7188 156.9375 Q27.8438 156.9375 28.9688 158.2031 Q30.0938 159.4688 30.0938 160.0312 Q30.0938 167.3438 26.5781 175.0781 Q23.0625 182.8125 16.875 189 Q10.6875 195.1875 2.1094 199.125 Q-6.4688 203.0625 -16.5938 203.0625 Q-22.5 203.0625 -28.9688 203.7656 Q-35.4375 204.4688 -41.0625 206.4375 Q-46.6875 208.4062 -51.0469 212.2031 Q-55.4062 216 -56.5312 221.9062 Q-57.0938 225.2812 -57.2344 228.9375 Q-57.375 232.5938 -57.9375 237.375 Q-57.375 238.5 -57.375 239.625 Q-57.375 243.2812 -61.875 243.2812 Q-63.8438 243.2812 -64.9688 241.7344 Q-66.0938 240.1875 -68.9062 236.8125 Q-71.4375 233.7188 -77.3438 229.0781 Q-83.25 224.4375 -90.5625 220.2188 Q-97.875 216 -106.0312 212.9062 Q-114.1875 209.8125 -121.2188 209.8125 Q-125.1562 209.8125 -126.5625 211.0781 Q-127.9688 212.3438 -128.8125 212.3438 Q-129.9375 212.3438 -130.3594 211.5 Q-130.7812 210.6562 -130.7812 209.8125 Q-130.7812 208.6875 -128.9531 204.6094 Q-127.125 200.5312 -124.1719 196.0312 Q-121.2188 191.5312 -117.7031 188.0156 Q-114.1875 184.5 -111.0938 184.5 Q-103.2188 184.5 -96.8906 187.4531 Q-90.5625 190.4062 -85.5 195.1875 Q-80.4375 199.9688 -76.6406 206.1562 Q-72.8438 212.3438 -69.75 219.0938 L-62.1562 232.0312 L-62.1562 220.2188 Z" stroke="none">
			</path>
		</g>
	</g>
</svg>
