<?xml version="1.0" encoding="UTF-8"?>
<svg fill-opacity="1" color-rendering="auto" color-interpolation="auto" stroke="black" text-rendering="auto" stroke-linecap="square" stroke-miterlimit="10" stroke-opacity="1" shape-rendering="auto" fill="black" stroke-dasharray="none" font-weight="normal" stroke-width="1" font-family="'Dialog'" font-style="normal" stroke-linejoin="miter" font-size="12" stroke-dashoffset="0" image-rendering="auto" preserveAspectRatio="xMidYMid meet" zoomAndPan="magnify" version="1.0" contentScriptType="text/ecmascript" contentStyleType="text/css" xmlns:xlink="http://www.w3.org/1999/xlink" xmlns="http://www.w3.org/2000/svg">
	<COMMENT>Unicode Character 'TIBETAN LETTER DDA' (U+0F4C)</COMMENT>
	<defs id="genericDefs">
	</defs>
	<g transform="scale(0.3)">
		<g>
			<path d="M28.4062 327.9375 Q35.4375 315.8438 46.125 309.2344 Q56.8125 302.625 74.25 302.625 Q77.9062 302.625 83.25 303.75 Q88.5938 304.875 95.0625 306.8438 L94.2188 302.625 Q93.0938 297.5625 91.4062 292.5 Q89.7188 287.4375 87.0469 283.5 Q84.375 279.5625 80.7188 276.8906 Q77.0625 274.2188 72 273.9375 L32.9062 273.9375 Q23.3438 273.9375 23.3438 271.9688 Q23.3438 271.4062 23.7656 270.5625 Q24.1875 269.7188 24.75 268.875 L38.25 248.625 L113.0625 248.625 Q113.625 248.625 114.0469 249.3281 Q114.4688 250.0312 114.4688 250.5938 Q113.0625 257.3438 109.6875 261.7031 Q106.3125 266.0625 101.25 268.875 Q101.5312 272.25 101.6719 276.75 Q101.8125 281.25 102.0938 286.1719 Q102.375 291.0938 102.6562 295.875 Q102.9375 300.6562 103.5 304.5938 L104.0625 309.375 L115.3125 312.4688 Q114.1875 315.8438 111.7969 319.3594 Q109.4062 322.875 106.1719 325.9688 Q102.9375 329.0625 99.1406 331.0312 Q95.3438 333 91.9688 333 Q85.5 333 78.6094 330.4688 Q71.7188 327.9375 64.4062 327.9375 Q57.0938 327.9375 50.7656 333.5625 Q44.4375 339.1875 39.9375 347.625 Q34.5938 358.0312 31.2188 370.125 Q27.8438 382.2188 25.875 394.875 Q23.9062 407.5312 22.9219 420.1875 Q21.9375 432.8438 21.0938 444.375 L17.4375 498.375 Q17.4375 499.5 16.0312 500.625 Q14.625 501.75 13.2188 501.75 Q10.125 501.75 10.125 498.375 L10.125 434.25 Q10.125 420.4688 10.8281 405.7031 Q11.5312 390.9375 13.6406 377.0156 Q15.75 363.0938 19.2656 350.4375 Q22.7812 337.7812 28.4062 327.9375 Z" stroke="none">
			</path>
		</g>
	</g>
</svg>
