<?xml version="1.0" encoding="UTF-8"?>
<svg fill-opacity="1" color-rendering="auto" color-interpolation="auto" stroke="black" text-rendering="auto" stroke-linecap="square" stroke-miterlimit="10" stroke-opacity="1" shape-rendering="auto" fill="black" stroke-dasharray="none" font-weight="normal" stroke-width="1" font-family="'Dialog'" font-style="normal" stroke-linejoin="miter" font-size="12" stroke-dashoffset="0" image-rendering="auto" preserveAspectRatio="xMidYMid meet" zoomAndPan="magnify" version="1.0" contentScriptType="text/ecmascript" contentStyleType="text/css" xmlns:xlink="http://www.w3.org/1999/xlink" xmlns="http://www.w3.org/2000/svg">
	<COMMENT>Unicode Character 'TIBETAN VOWEL SIGN O' (U+0F7C)</COMMENT>
	<defs id="genericDefs">
	</defs>
	<g transform="scale(0.3)">
		<g>
			<path d="M-68.3438 220.2188 Q-68.625 218.8125 -68.625 216 Q-68.625 208.9688 -65.1094 202.7812 Q-61.5938 196.5938 -56.5312 191.8125 Q-48.0938 183.375 -37.5469 178.0312 Q-27 172.6875 -16.875 172.6875 Q-8.7188 172.6875 -2.1094 170.5781 Q4.5 168.4688 10.9688 164.25 Q13.5 162.5625 15.8906 160.1719 Q18.2812 157.7812 20.3906 155.6719 Q22.5 153.5625 24.1875 152.0156 Q25.875 150.4688 27 150.4688 Q27.5625 150.4688 28.125 151.4531 Q28.6875 152.4375 28.6875 153 Q28.6875 155.5312 27.2812 159.6094 Q25.875 163.6875 23.4844 168.3281 Q21.0938 172.9688 18 177.3281 Q14.9062 181.6875 11.8125 184.7812 Q4.2188 192.0938 -3.2344 195.0469 Q-10.6875 198 -17.1562 198 Q-24.4688 198 -33.8906 199.6875 Q-43.3125 201.375 -49.7812 204.75 Q-54.8438 207.2812 -58.5 211.5 Q-62.1562 215.7188 -62.1562 221.625 Q-62.1562 223.875 -61.875 227.6719 Q-61.5938 231.4688 -60.4688 235.125 Q-59.625 237.375 -59.625 238.7812 Q-59.625 242.1562 -64.4062 242.1562 Q-65.8125 242.1562 -67.5 240.75 Q-69.1875 239.3438 -71.1562 237.375 Q-73.125 235.4062 -74.8125 233.4375 Q-76.5 231.4688 -77.625 230.3438 Q-82.4062 225.2812 -88.4531 219.2344 Q-94.5 213.1875 -101.3906 208.125 Q-108.2812 203.0625 -115.5938 199.6875 Q-122.9062 196.3125 -129.9375 196.3125 Q-131.9062 196.3125 -133.3125 197.7188 Q-134.7188 199.125 -136.125 199.125 Q-137.25 199.125 -137.8125 198.1406 Q-138.375 197.1562 -138.375 196.3125 Q-138.375 195.1875 -136.6875 191.1094 Q-135 187.0312 -132.3281 182.5312 Q-129.6562 178.0312 -126.4219 174.5156 Q-123.1875 171 -120.0938 171 Q-113.3438 171 -107.4375 174.9375 Q-101.5312 178.875 -96.3281 184.9219 Q-91.125 190.9688 -86.4844 198.1406 Q-81.8438 205.3125 -77.9062 211.7812 Q-77.0625 212.9062 -75.9375 215.1562 L-67.5 229.2188 L-68.3438 220.2188 Z" stroke="none">
			</path>
		</g>
	</g>
</svg>
