<?xml version="1.0" encoding="UTF-8"?>
<svg fill-opacity="1" color-rendering="auto" color-interpolation="auto" stroke="black" text-rendering="auto" stroke-linecap="square" stroke-miterlimit="10" stroke-opacity="1" shape-rendering="auto" fill="black" stroke-dasharray="none" font-weight="normal" stroke-width="1" font-family="'Dialog'" font-style="normal" stroke-linejoin="miter" font-size="12" stroke-dashoffset="0" image-rendering="auto" preserveAspectRatio="xMidYMid meet" zoomAndPan="magnify" version="1.0" contentScriptType="text/ecmascript" contentStyleType="text/css" xmlns:xlink="http://www.w3.org/1999/xlink" xmlns="http://www.w3.org/2000/svg">
	<COMMENT>Unicode Character 'TIBETAN LETTER RA' (U+0F62)</COMMENT>
	<defs id="genericDefs">
	</defs>
	<g transform="scale(0.3)">
		<g>
			<path d="M105.1875 248.625 Q105.75 248.625 106.0312 249.3281 Q106.3125 250.0312 106.3125 250.5938 Q106.3125 257.625 102.2344 262.125 Q98.1562 266.625 92.9531 269.2969 Q87.75 271.9688 82.5469 272.9531 Q77.3438 273.9375 75.0938 273.9375 L72.2812 273.9375 Q70.875 273.9375 69.8906 274.6406 Q68.9062 275.3438 68.9062 275.9062 Q68.9062 276.4688 69.4688 278.4375 Q70.0312 280.4062 70.5938 283.0781 Q71.1562 285.75 71.7188 288.7031 Q72.2812 291.6562 72.2812 293.625 Q72.2812 296.1562 71.4375 299.25 Q70.5938 302.3438 69.4688 304.875 Q68.3438 307.9688 66.6562 310.7812 Q79.3125 313.0312 89.2969 319.6406 Q99.2812 326.25 107.4375 336.0938 Q115.5938 345.9375 122.625 358.0312 Q129.6562 370.125 136.125 382.7812 Q136.4062 383.3438 136.9688 384.4688 Q137.5312 385.5938 137.5312 386.7188 Q137.5312 388.4062 135.5625 388.4062 Q133.3125 388.4062 132.1875 387 Q131.0625 385.5938 130.5 385.0312 Q122.625 374.0625 113.3438 364.7812 Q104.0625 355.5 93.6562 348.8906 Q83.25 342.2812 72 338.4844 Q60.75 334.6875 48.9375 334.6875 Q37.6875 334.6875 29.6719 335.9531 Q21.6562 337.2188 16.4531 338.625 Q11.25 340.0312 8.4375 341.2969 Q5.625 342.5625 4.7812 342.5625 Q3.0938 342.5625 2.8125 342 Q2.5312 341.4375 2.5312 340.3125 Q2.5312 336.9375 6.0469 331.5938 Q9.5625 326.25 15.6094 321.3281 Q21.6562 316.4062 29.9531 312.75 Q38.25 309.0938 47.8125 309.0938 Q50.9062 309.0938 52.4531 309.0938 Q54 309.0938 55.6875 309.375 Q57.6562 306.2812 58.7812 303.3281 Q59.9062 300.375 59.9062 295.3125 Q59.9062 291.0938 56.6719 287.1562 Q53.4375 283.2188 48.6562 280.2656 Q43.875 277.3125 38.25 275.625 Q32.625 273.9375 28.125 273.9375 L17.1562 273.9375 Q7.5938 273.9375 7.5938 271.9688 Q7.5938 271.4062 8.0156 270.5625 Q8.4375 269.7188 9 268.875 L22.5 248.625 L105.1875 248.625 Z" stroke="none">
			</path>
		</g>
	</g>
</svg>
