<?xml version="1.0" encoding="UTF-8"?>
<svg fill-opacity="1" color-rendering="auto" color-interpolation="auto" stroke="black" text-rendering="auto" stroke-linecap="square" stroke-miterlimit="10" stroke-opacity="1" shape-rendering="auto" fill="black" stroke-dasharray="none" font-weight="normal" stroke-width="1" font-family="'Dialog'" font-style="normal" stroke-linejoin="miter" font-size="12" stroke-dashoffset="0" image-rendering="auto" preserveAspectRatio="xMidYMid meet" zoomAndPan="magnify" version="1.0" contentScriptType="text/ecmascript" contentStyleType="text/css" xmlns:xlink="http://www.w3.org/1999/xlink" xmlns="http://www.w3.org/2000/svg">
	<COMMENT>Unicode Character 'TIBETAN LETTER ZA' (U+0F5F)</COMMENT>
	<defs id="genericDefs">
	</defs>
	<g transform="scale(0.3)">
		<g>
			<path d="M19.9688 273.9375 Q10.4062 273.9375 10.4062 271.9688 Q10.4062 271.4062 10.8281 270.5625 Q11.25 269.7188 11.8125 268.875 L25.3125 248.625 L116.4375 248.625 Q119.25 248.625 119.25 250.5938 Q119.25 252.2812 118.5469 253.5469 Q117.8438 254.8125 117.5625 255.375 Q115.5938 259.3125 114.1875 264.0938 Q112.7812 268.875 111.375 273.9375 Q109.9688 279.5625 108.9844 285.75 Q108 291.9375 108 298.9688 L108 384.4688 Q108 386.1562 107.4375 387.4219 Q106.875 388.6875 105.1875 388.6875 Q103.7812 388.6875 102.9375 387.5625 Q102.0938 386.4375 100.9688 385.875 L88.5938 379.4062 Q86.0625 378 79.7344 376.7344 Q73.4062 375.4688 65.6719 374.4844 Q57.9375 373.5 49.7812 372.9375 Q41.625 372.375 34.875 372.375 Q32.3438 372.375 28.125 372.7969 Q23.9062 373.2188 19.2656 373.7812 Q14.625 374.3438 10.2656 375.4688 Q5.9062 376.5938 3.0938 377.7188 Q5.3438 371.25 6.75 366.3281 Q8.1562 361.4062 10.125 357.75 Q13.5 351.2812 19.9688 348.8906 Q26.4375 346.5 34.875 346.5 Q47.5312 346.5 55.5469 348.6094 Q63.5625 350.7188 69.0469 353.9531 Q74.5312 357.1875 78.1875 360.5625 Q81.8438 363.9375 85.5 366.4688 L99.5625 376.3125 L95.3438 333.2812 Q90.2812 328.2188 73.6875 325.8281 Q57.0938 323.4375 26.1562 322.875 L17.4375 322.875 Q7.875 322.875 7.875 320.9062 Q7.875 320.3438 8.2969 319.5 Q8.7188 318.6562 9.2812 317.8125 L20.8125 299.25 L32.9062 299.25 Q59.9062 299.25 75.2344 303.3281 Q90.5625 307.4062 93.9375 311.3438 L88.3125 273.9375 L19.9688 273.9375 Z" stroke="none">
			</path>
		</g>
	</g>
</svg>
